M48
; DRILL file {KiCad 9.0.6} date 2026-05-28T00:57:58+0300
; FORMAT={-:-/ absolute / metric / decimal}
; #@! TF.CreationDate,2026-05-28T00:57:58+03:00
; #@! TF.GenerationSoftware,Kicad,Pcbnew,9.0.6
; #@! TF.FileFunction,Plated,1,4,PTH
FMAT,2
METRIC
; #@! TA.AperFunction,Plated,PTH,ViaDrill
T1C0.300
; #@! TA.AperFunction,Plated,PTH,ComponentDrill
T2C0.600
; #@! TA.AperFunction,Plated,PTH,ComponentDrill
T3C0.650
%
G90
G05
T1
X136.5Y-39.5
X136.5Y-42.0
X136.5Y-44.5
X136.5Y-47.0
X136.5Y-49.5
X136.5Y-52.0
X136.5Y-56.0
X136.5Y-58.5
X136.5Y-61.0
X136.5Y-63.5
X136.5Y-66.0
X136.5Y-68.5
X136.5Y-71.0
X136.5Y-74.0
X136.5Y-76.5
X136.5Y-79.0
X136.5Y-81.5
X136.5Y-84.0
X139.5Y-39.5
X139.5Y-42.0
X139.5Y-44.25
X139.5Y-47.0
X139.5Y-49.5
X139.5Y-52.0
X139.5Y-57.5
X139.5Y-61.5
X139.75Y-74.0
X139.75Y-77.0
X141.75Y-68.75
X142.0Y-49.5
X142.0Y-52.0
X143.0Y-84.0
X143.25Y-81.25
X143.5Y-65.75
X143.75Y-71.25
X144.5Y-49.5
X144.5Y-52.0
X145.0Y-79.0
X145.0Y-84.0
X145.25Y-59.75
X145.25Y-63.0
X145.5Y-68.75
X145.75Y-56.5
X145.75Y-74.25
X146.75Y-77.0
X147.0Y-65.75
X147.0Y-81.25
X147.0Y-84.0
X147.25Y-39.45
X147.25Y-41.0
X147.25Y-42.45
X147.25Y-44.0
X147.25Y-45.5
X147.25Y-47.05
X147.25Y-49.5
X147.25Y-52.0
X148.75Y-40.5
X148.75Y-42.25
X148.75Y-44.5
X148.75Y-47.75
X149.0Y-68.5
X149.03Y-50.6
X149.05Y-52.15
X149.24Y-46.09
X149.5Y-39.0
X149.75Y-56.75
X150.5Y-45.0
X151.0Y-75.5
X151.25Y-54.75
X151.5Y-59.0
X151.75Y-72.0
X152.0Y-39.0
X152.1Y-70.1
X152.25Y-56.75
X152.5Y-84.0
X153.0Y-60.4
X153.0Y-62.8
X153.28Y-42.08
X153.4Y-52.85
X153.75Y-54.75
X154.0Y-82.25
X154.125Y-70.075
X154.5Y-39.0
X154.75Y-44.0
X154.75Y-46.75
X154.75Y-49.25
X155.0Y-56.0
X155.0Y-84.0
X155.25Y-74.25
X155.5Y-72.75
X155.55Y-80.65
X155.675Y-62.45
X156.0Y-60.5
X156.0Y-64.5
X156.0Y-66.75
X156.25Y-78.75
X156.5Y-54.75
X156.5Y-82.25
X157.0Y-61.75
X157.0Y-74.75
X157.0Y-80.25
X157.5Y-49.25
X157.5Y-56.5
X157.5Y-84.0
X158.75Y-64.5
X158.75Y-66.75
X159.0Y-82.25
X159.25Y-54.75
X159.25Y-58.75
X159.25Y-75.5
X159.725Y-73.325
X159.75Y-69.75
X159.75Y-71.75
X159.9Y-80.625
X160.0Y-84.0
X160.15Y-62.475
X160.2Y-52.25
X160.225Y-76.85
X160.5Y-49.25
X160.75Y-57.0
X161.0Y-59.85
X161.0Y-64.5
X161.0Y-66.75
X161.25Y-73.25
X161.5Y-75.5
X161.5Y-82.25
X162.0Y-77.5
X162.025Y-53.975
X162.27Y-58.48
X162.3Y-59.525
X162.4Y-44.8
X162.5Y-39.0
X162.5Y-55.25
X162.5Y-84.0
X162.75Y-73.25
X162.825Y-67.3
X163.0Y-40.75
X163.0Y-46.0
X163.0Y-49.25
X163.0Y-63.25
X163.6Y-44.8
X163.731Y-75.75
X164.0Y-82.25
X164.225Y-61.125
X164.425Y-72.85
X164.5Y-39.0
X164.5Y-64.75
X164.5Y-79.0
X165.0Y-84.0
X165.75Y-52.75
X165.75Y-66.5
X166.0Y-70.75
X166.0Y-72.75
X166.25Y-77.5
X166.5Y-49.25
X166.5Y-56.5
X166.5Y-60.5
X166.5Y-82.25
X166.65Y-69.5
X166.925Y-68.45
X167.25Y-41.25
X167.25Y-45.75
X167.35Y-38.9
X167.5Y-84.0
X167.75Y-75.75
X168.0Y-78.75
X168.3Y-55.25
X168.3Y-57.45
X168.3Y-59.5
X168.3Y-61.8
X169.0Y-73.75
X169.0Y-82.25
X169.5Y-63.5
X169.75Y-51.0
X169.75Y-77.0
X170.0Y-53.5
X170.0Y-84.0
X170.25Y-75.0
X170.35Y-72.7
X170.7Y-68.595
X171.0Y-51.0
X171.5Y-82.25
X171.55Y-66.4
X171.775Y-71.375
X172.5Y-64.5
X172.5Y-84.0
X172.7Y-67.15
X172.9Y-57.65
X172.9Y-59.75
X172.9Y-61.85
X172.95Y-55.45
X173.15Y-38.85
X173.25Y-41.25
X173.5Y-52.75
X173.55Y-51.0
X174.0Y-82.25
X174.25Y-45.5
X174.3Y-68.2
X174.5Y-57.5
X174.5Y-80.0
X175.0Y-84.0
X175.6Y-71.375
X175.75Y-40.0
X175.75Y-50.5
X175.75Y-52.5
X175.8Y-58.8
X175.825Y-65.575
X176.0Y-67.0
X176.3Y-42.25
X176.5Y-82.25
X176.55Y-75.4
X176.75Y-57.45
X176.75Y-58.15
X176.756Y-64.647
X176.841Y-63.899
X176.865Y-63.14
X177.0Y-62.4
X177.3Y-53.15
X177.5Y-49.0
X177.5Y-84.0
X177.75Y-68.25
X177.75Y-71.25
X177.75Y-74.25
X177.75Y-77.25
X178.28Y-62.58
X178.599Y-54.81
X178.68Y-46.27
X179.0Y-80.0
X179.0Y-82.25
X179.4Y-59.604
X179.4Y-62.6
X179.5Y-53.1
X179.6Y-57.344
X179.6Y-58.096
X179.75Y-50.25
X180.0Y-84.0
X180.46Y-54.44
X180.55Y-52.8
X181.25Y-68.25
X181.25Y-71.25
X181.25Y-74.25
X181.25Y-77.25
X181.5Y-82.25
X181.6Y-39.3
X181.65Y-52.3
X182.3Y-39.1
X182.5Y-84.0
X183.088Y-64.263
X183.1Y-41.1
X183.25Y-80.0
X183.75Y-50.0
X183.75Y-63.8
X184.0Y-82.25
X184.25Y-41.1
X184.5Y-68.25
X184.75Y-71.25
X184.75Y-74.25
X185.0Y-78.25
X185.0Y-84.0
X185.05Y-46.28
X185.09Y-66.33
X185.15Y-39.1
X185.25Y-48.75
X185.3Y-52.45
X186.4Y-52.4
X186.634Y-50.384
X186.75Y-80.25
X187.0Y-82.25
X187.05Y-61.5
X188.0Y-40.0
X188.0Y-75.0
X188.0Y-84.0
X188.05Y-42.25
X188.15Y-46.2
X188.45Y-64.8
X188.55Y-67.4
X189.0Y-79.0
X189.25Y-83.0
X189.5Y-51.25
X189.5Y-64.75
X189.75Y-53.5
X189.9Y-55.7
X190.4Y-49.65
X190.5Y-38.9
X190.5Y-41.0
X190.5Y-46.75
X190.75Y-70.75
X190.95Y-55.7
X191.0Y-67.5
X191.0Y-75.5
X191.0Y-78.5
X191.0Y-80.0
X191.0Y-82.0
X191.0Y-84.0
X191.7Y-64.05
X191.85Y-62.25
X192.25Y-54.5
X192.5Y-51.25
X192.5Y-53.5
X193.25Y-67.5
X193.25Y-78.5
X193.5Y-39.0
X193.5Y-41.75
X194.0Y-63.5
X194.0Y-65.95
X194.0Y-75.75
X194.25Y-71.25
X194.5Y-48.5
X194.88Y-72.74
X194.89Y-74.33
X195.08Y-78.61
X195.25Y-65.0
X195.25Y-67.25
X195.5Y-52.25
X195.5Y-57.25
X195.5Y-62.0
X196.0Y-41.0
X196.3Y-38.9
X197.0Y-42.5
X197.0Y-46.0
X197.0Y-48.5
X197.0Y-51.0
X197.0Y-53.5
X197.0Y-56.0
X197.0Y-58.5
X197.0Y-61.0
X197.0Y-63.5
X197.0Y-66.0
X197.0Y-68.5
X197.0Y-71.0
T3
X168.46Y-48.75
X168.46Y-50.02
X169.73Y-48.75
X169.73Y-50.02
X171.0Y-48.75
X171.0Y-50.02
X172.27Y-48.75
X172.27Y-50.02
X173.54Y-48.75
X173.54Y-50.02
T2
G00X177.53Y-40.73
M15
G01X177.53Y-39.93
M16
G05
G00X177.53Y-45.08
M15
G01X177.53Y-43.98
M16
G05
G00X186.17Y-40.73
M15
G01X186.17Y-39.93
M16
G05
G00X186.17Y-45.08
M15
G01X186.17Y-43.98
M16
G05
M30
