%TF.GenerationSoftware,KiCad,Pcbnew,9.0.6*%
%TF.CreationDate,2026-05-28T00:57:37+03:00*%
%TF.ProjectId,STM32WB55_Gesture,53544d33-3257-4423-9535-5f4765737475,rev?*%
%TF.SameCoordinates,Original*%
%TF.FileFunction,Legend,Top*%
%TF.FilePolarity,Positive*%
%FSLAX46Y46*%
G04 Gerber Fmt 4.6, Leading zero omitted, Abs format (unit mm)*
G04 Created by KiCad (PCBNEW 9.0.6) date 2026-05-28 00:57:37*
%MOMM*%
%LPD*%
G01*
G04 APERTURE LIST*
%ADD10C,0.300000*%
%ADD11C,0.100000*%
%ADD12C,0.200000*%
%ADD13C,0.087500*%
%ADD14C,0.125000*%
%ADD15C,0.120000*%
%ADD16C,0.127000*%
G04 APERTURE END LIST*
D10*
X138674510Y-47789400D02*
X139817368Y-47789400D01*
D11*
X168985312Y-46532419D02*
X168651979Y-46056228D01*
X168413884Y-46532419D02*
X168413884Y-45532419D01*
X168413884Y-45532419D02*
X168794836Y-45532419D01*
X168794836Y-45532419D02*
X168890074Y-45580038D01*
X168890074Y-45580038D02*
X168937693Y-45627657D01*
X168937693Y-45627657D02*
X168985312Y-45722895D01*
X168985312Y-45722895D02*
X168985312Y-45865752D01*
X168985312Y-45865752D02*
X168937693Y-45960990D01*
X168937693Y-45960990D02*
X168890074Y-46008609D01*
X168890074Y-46008609D02*
X168794836Y-46056228D01*
X168794836Y-46056228D02*
X168413884Y-46056228D01*
X169413884Y-46008609D02*
X169747217Y-46008609D01*
X169890074Y-46532419D02*
X169413884Y-46532419D01*
X169413884Y-46532419D02*
X169413884Y-45532419D01*
X169413884Y-45532419D02*
X169890074Y-45532419D01*
X170271027Y-46484800D02*
X170413884Y-46532419D01*
X170413884Y-46532419D02*
X170651979Y-46532419D01*
X170651979Y-46532419D02*
X170747217Y-46484800D01*
X170747217Y-46484800D02*
X170794836Y-46437180D01*
X170794836Y-46437180D02*
X170842455Y-46341942D01*
X170842455Y-46341942D02*
X170842455Y-46246704D01*
X170842455Y-46246704D02*
X170794836Y-46151466D01*
X170794836Y-46151466D02*
X170747217Y-46103847D01*
X170747217Y-46103847D02*
X170651979Y-46056228D01*
X170651979Y-46056228D02*
X170461503Y-46008609D01*
X170461503Y-46008609D02*
X170366265Y-45960990D01*
X170366265Y-45960990D02*
X170318646Y-45913371D01*
X170318646Y-45913371D02*
X170271027Y-45818133D01*
X170271027Y-45818133D02*
X170271027Y-45722895D01*
X170271027Y-45722895D02*
X170318646Y-45627657D01*
X170318646Y-45627657D02*
X170366265Y-45580038D01*
X170366265Y-45580038D02*
X170461503Y-45532419D01*
X170461503Y-45532419D02*
X170699598Y-45532419D01*
X170699598Y-45532419D02*
X170842455Y-45580038D01*
X171271027Y-46008609D02*
X171604360Y-46008609D01*
X171747217Y-46532419D02*
X171271027Y-46532419D01*
X171271027Y-46532419D02*
X171271027Y-45532419D01*
X171271027Y-45532419D02*
X171747217Y-45532419D01*
X172032932Y-45532419D02*
X172604360Y-45532419D01*
X172318646Y-46532419D02*
X172318646Y-45532419D01*
D10*
X162474510Y-47789400D02*
X163617368Y-47789400D01*
X163045939Y-48360828D02*
X163045939Y-47217971D01*
D11*
X166022931Y-62427847D02*
X165756265Y-62427847D01*
X165756265Y-62846895D02*
X165756265Y-62046895D01*
X165756265Y-62046895D02*
X166137217Y-62046895D01*
X166441979Y-62846895D02*
X166441979Y-62046895D01*
X166784835Y-62808800D02*
X166899121Y-62846895D01*
X166899121Y-62846895D02*
X167089597Y-62846895D01*
X167089597Y-62846895D02*
X167165788Y-62808800D01*
X167165788Y-62808800D02*
X167203883Y-62770704D01*
X167203883Y-62770704D02*
X167241978Y-62694514D01*
X167241978Y-62694514D02*
X167241978Y-62618323D01*
X167241978Y-62618323D02*
X167203883Y-62542133D01*
X167203883Y-62542133D02*
X167165788Y-62504038D01*
X167165788Y-62504038D02*
X167089597Y-62465942D01*
X167089597Y-62465942D02*
X166937216Y-62427847D01*
X166937216Y-62427847D02*
X166861026Y-62389752D01*
X166861026Y-62389752D02*
X166822931Y-62351657D01*
X166822931Y-62351657D02*
X166784835Y-62275466D01*
X166784835Y-62275466D02*
X166784835Y-62199276D01*
X166784835Y-62199276D02*
X166822931Y-62123085D01*
X166822931Y-62123085D02*
X166861026Y-62084990D01*
X166861026Y-62084990D02*
X166937216Y-62046895D01*
X166937216Y-62046895D02*
X167127693Y-62046895D01*
X167127693Y-62046895D02*
X167241978Y-62084990D01*
X167470550Y-62046895D02*
X167927693Y-62046895D01*
X167699121Y-62846895D02*
X167699121Y-62046895D01*
D12*
X136329673Y-72663409D02*
X136663006Y-72663409D01*
X136805863Y-73187219D02*
X136329673Y-73187219D01*
X136329673Y-73187219D02*
X136329673Y-72187219D01*
X136329673Y-72187219D02*
X136805863Y-72187219D01*
X137710625Y-73187219D02*
X137234435Y-73187219D01*
X137234435Y-73187219D02*
X137234435Y-72187219D01*
X138043959Y-72663409D02*
X138377292Y-72663409D01*
X138520149Y-73187219D02*
X138043959Y-73187219D01*
X138043959Y-73187219D02*
X138043959Y-72187219D01*
X138043959Y-72187219D02*
X138520149Y-72187219D01*
X139520149Y-73091980D02*
X139472530Y-73139600D01*
X139472530Y-73139600D02*
X139329673Y-73187219D01*
X139329673Y-73187219D02*
X139234435Y-73187219D01*
X139234435Y-73187219D02*
X139091578Y-73139600D01*
X139091578Y-73139600D02*
X138996340Y-73044361D01*
X138996340Y-73044361D02*
X138948721Y-72949123D01*
X138948721Y-72949123D02*
X138901102Y-72758647D01*
X138901102Y-72758647D02*
X138901102Y-72615790D01*
X138901102Y-72615790D02*
X138948721Y-72425314D01*
X138948721Y-72425314D02*
X138996340Y-72330076D01*
X138996340Y-72330076D02*
X139091578Y-72234838D01*
X139091578Y-72234838D02*
X139234435Y-72187219D01*
X139234435Y-72187219D02*
X139329673Y-72187219D01*
X139329673Y-72187219D02*
X139472530Y-72234838D01*
X139472530Y-72234838D02*
X139520149Y-72282457D01*
X139805864Y-72187219D02*
X140377292Y-72187219D01*
X140091578Y-73187219D02*
X140091578Y-72187219D01*
X141282054Y-73187219D02*
X140948721Y-72711028D01*
X140710626Y-73187219D02*
X140710626Y-72187219D01*
X140710626Y-72187219D02*
X141091578Y-72187219D01*
X141091578Y-72187219D02*
X141186816Y-72234838D01*
X141186816Y-72234838D02*
X141234435Y-72282457D01*
X141234435Y-72282457D02*
X141282054Y-72377695D01*
X141282054Y-72377695D02*
X141282054Y-72520552D01*
X141282054Y-72520552D02*
X141234435Y-72615790D01*
X141234435Y-72615790D02*
X141186816Y-72663409D01*
X141186816Y-72663409D02*
X141091578Y-72711028D01*
X141091578Y-72711028D02*
X140710626Y-72711028D01*
X141901102Y-72187219D02*
X142091578Y-72187219D01*
X142091578Y-72187219D02*
X142186816Y-72234838D01*
X142186816Y-72234838D02*
X142282054Y-72330076D01*
X142282054Y-72330076D02*
X142329673Y-72520552D01*
X142329673Y-72520552D02*
X142329673Y-72853885D01*
X142329673Y-72853885D02*
X142282054Y-73044361D01*
X142282054Y-73044361D02*
X142186816Y-73139600D01*
X142186816Y-73139600D02*
X142091578Y-73187219D01*
X142091578Y-73187219D02*
X141901102Y-73187219D01*
X141901102Y-73187219D02*
X141805864Y-73139600D01*
X141805864Y-73139600D02*
X141710626Y-73044361D01*
X141710626Y-73044361D02*
X141663007Y-72853885D01*
X141663007Y-72853885D02*
X141663007Y-72520552D01*
X141663007Y-72520552D02*
X141710626Y-72330076D01*
X141710626Y-72330076D02*
X141805864Y-72234838D01*
X141805864Y-72234838D02*
X141901102Y-72187219D01*
X142758245Y-73187219D02*
X142758245Y-72187219D01*
X142758245Y-72187219D02*
X142996340Y-72187219D01*
X142996340Y-72187219D02*
X143139197Y-72234838D01*
X143139197Y-72234838D02*
X143234435Y-72330076D01*
X143234435Y-72330076D02*
X143282054Y-72425314D01*
X143282054Y-72425314D02*
X143329673Y-72615790D01*
X143329673Y-72615790D02*
X143329673Y-72758647D01*
X143329673Y-72758647D02*
X143282054Y-72949123D01*
X143282054Y-72949123D02*
X143234435Y-73044361D01*
X143234435Y-73044361D02*
X143139197Y-73139600D01*
X143139197Y-73139600D02*
X142996340Y-73187219D01*
X142996340Y-73187219D02*
X142758245Y-73187219D01*
X143758245Y-72663409D02*
X144091578Y-72663409D01*
X144234435Y-73187219D02*
X143758245Y-73187219D01*
X143758245Y-73187219D02*
X143758245Y-72187219D01*
X143758245Y-72187219D02*
X144234435Y-72187219D01*
X145710626Y-72187219D02*
X145710626Y-72901504D01*
X145710626Y-72901504D02*
X145663007Y-73044361D01*
X145663007Y-73044361D02*
X145567769Y-73139600D01*
X145567769Y-73139600D02*
X145424912Y-73187219D01*
X145424912Y-73187219D02*
X145329674Y-73187219D01*
X146139198Y-72901504D02*
X146615388Y-72901504D01*
X146043960Y-73187219D02*
X146377293Y-72187219D01*
X146377293Y-72187219D02*
X146710626Y-73187219D01*
X147615388Y-73091980D02*
X147567769Y-73139600D01*
X147567769Y-73139600D02*
X147424912Y-73187219D01*
X147424912Y-73187219D02*
X147329674Y-73187219D01*
X147329674Y-73187219D02*
X147186817Y-73139600D01*
X147186817Y-73139600D02*
X147091579Y-73044361D01*
X147091579Y-73044361D02*
X147043960Y-72949123D01*
X147043960Y-72949123D02*
X146996341Y-72758647D01*
X146996341Y-72758647D02*
X146996341Y-72615790D01*
X146996341Y-72615790D02*
X147043960Y-72425314D01*
X147043960Y-72425314D02*
X147091579Y-72330076D01*
X147091579Y-72330076D02*
X147186817Y-72234838D01*
X147186817Y-72234838D02*
X147329674Y-72187219D01*
X147329674Y-72187219D02*
X147424912Y-72187219D01*
X147424912Y-72187219D02*
X147567769Y-72234838D01*
X147567769Y-72234838D02*
X147615388Y-72282457D01*
X148043960Y-73187219D02*
X148043960Y-72187219D01*
X148615388Y-73187219D02*
X148186817Y-72615790D01*
X148615388Y-72187219D02*
X148043960Y-72758647D01*
X149758246Y-72282457D02*
X149805865Y-72234838D01*
X149805865Y-72234838D02*
X149901103Y-72187219D01*
X149901103Y-72187219D02*
X150139198Y-72187219D01*
X150139198Y-72187219D02*
X150234436Y-72234838D01*
X150234436Y-72234838D02*
X150282055Y-72282457D01*
X150282055Y-72282457D02*
X150329674Y-72377695D01*
X150329674Y-72377695D02*
X150329674Y-72472933D01*
X150329674Y-72472933D02*
X150282055Y-72615790D01*
X150282055Y-72615790D02*
X149710627Y-73187219D01*
X149710627Y-73187219D02*
X150329674Y-73187219D01*
D11*
X192217217Y-46058609D02*
X192360074Y-46106228D01*
X192360074Y-46106228D02*
X192407693Y-46153847D01*
X192407693Y-46153847D02*
X192455312Y-46249085D01*
X192455312Y-46249085D02*
X192455312Y-46391942D01*
X192455312Y-46391942D02*
X192407693Y-46487180D01*
X192407693Y-46487180D02*
X192360074Y-46534800D01*
X192360074Y-46534800D02*
X192264836Y-46582419D01*
X192264836Y-46582419D02*
X191883884Y-46582419D01*
X191883884Y-46582419D02*
X191883884Y-45582419D01*
X191883884Y-45582419D02*
X192217217Y-45582419D01*
X192217217Y-45582419D02*
X192312455Y-45630038D01*
X192312455Y-45630038D02*
X192360074Y-45677657D01*
X192360074Y-45677657D02*
X192407693Y-45772895D01*
X192407693Y-45772895D02*
X192407693Y-45868133D01*
X192407693Y-45868133D02*
X192360074Y-45963371D01*
X192360074Y-45963371D02*
X192312455Y-46010990D01*
X192312455Y-46010990D02*
X192217217Y-46058609D01*
X192217217Y-46058609D02*
X191883884Y-46058609D01*
X193074360Y-45582419D02*
X193264836Y-45582419D01*
X193264836Y-45582419D02*
X193360074Y-45630038D01*
X193360074Y-45630038D02*
X193455312Y-45725276D01*
X193455312Y-45725276D02*
X193502931Y-45915752D01*
X193502931Y-45915752D02*
X193502931Y-46249085D01*
X193502931Y-46249085D02*
X193455312Y-46439561D01*
X193455312Y-46439561D02*
X193360074Y-46534800D01*
X193360074Y-46534800D02*
X193264836Y-46582419D01*
X193264836Y-46582419D02*
X193074360Y-46582419D01*
X193074360Y-46582419D02*
X192979122Y-46534800D01*
X192979122Y-46534800D02*
X192883884Y-46439561D01*
X192883884Y-46439561D02*
X192836265Y-46249085D01*
X192836265Y-46249085D02*
X192836265Y-45915752D01*
X192836265Y-45915752D02*
X192883884Y-45725276D01*
X192883884Y-45725276D02*
X192979122Y-45630038D01*
X192979122Y-45630038D02*
X193074360Y-45582419D01*
X194121979Y-45582419D02*
X194312455Y-45582419D01*
X194312455Y-45582419D02*
X194407693Y-45630038D01*
X194407693Y-45630038D02*
X194502931Y-45725276D01*
X194502931Y-45725276D02*
X194550550Y-45915752D01*
X194550550Y-45915752D02*
X194550550Y-46249085D01*
X194550550Y-46249085D02*
X194502931Y-46439561D01*
X194502931Y-46439561D02*
X194407693Y-46534800D01*
X194407693Y-46534800D02*
X194312455Y-46582419D01*
X194312455Y-46582419D02*
X194121979Y-46582419D01*
X194121979Y-46582419D02*
X194026741Y-46534800D01*
X194026741Y-46534800D02*
X193931503Y-46439561D01*
X193931503Y-46439561D02*
X193883884Y-46249085D01*
X193883884Y-46249085D02*
X193883884Y-45915752D01*
X193883884Y-45915752D02*
X193931503Y-45725276D01*
X193931503Y-45725276D02*
X194026741Y-45630038D01*
X194026741Y-45630038D02*
X194121979Y-45582419D01*
X194836265Y-45582419D02*
X195407693Y-45582419D01*
X195121979Y-46582419D02*
X195121979Y-45582419D01*
D12*
X136329673Y-54813409D02*
X136663006Y-54813409D01*
X136805863Y-55337219D02*
X136329673Y-55337219D01*
X136329673Y-55337219D02*
X136329673Y-54337219D01*
X136329673Y-54337219D02*
X136805863Y-54337219D01*
X137710625Y-55337219D02*
X137234435Y-55337219D01*
X137234435Y-55337219D02*
X137234435Y-54337219D01*
X138043959Y-54813409D02*
X138377292Y-54813409D01*
X138520149Y-55337219D02*
X138043959Y-55337219D01*
X138043959Y-55337219D02*
X138043959Y-54337219D01*
X138043959Y-54337219D02*
X138520149Y-54337219D01*
X139520149Y-55241980D02*
X139472530Y-55289600D01*
X139472530Y-55289600D02*
X139329673Y-55337219D01*
X139329673Y-55337219D02*
X139234435Y-55337219D01*
X139234435Y-55337219D02*
X139091578Y-55289600D01*
X139091578Y-55289600D02*
X138996340Y-55194361D01*
X138996340Y-55194361D02*
X138948721Y-55099123D01*
X138948721Y-55099123D02*
X138901102Y-54908647D01*
X138901102Y-54908647D02*
X138901102Y-54765790D01*
X138901102Y-54765790D02*
X138948721Y-54575314D01*
X138948721Y-54575314D02*
X138996340Y-54480076D01*
X138996340Y-54480076D02*
X139091578Y-54384838D01*
X139091578Y-54384838D02*
X139234435Y-54337219D01*
X139234435Y-54337219D02*
X139329673Y-54337219D01*
X139329673Y-54337219D02*
X139472530Y-54384838D01*
X139472530Y-54384838D02*
X139520149Y-54432457D01*
X139805864Y-54337219D02*
X140377292Y-54337219D01*
X140091578Y-55337219D02*
X140091578Y-54337219D01*
X141282054Y-55337219D02*
X140948721Y-54861028D01*
X140710626Y-55337219D02*
X140710626Y-54337219D01*
X140710626Y-54337219D02*
X141091578Y-54337219D01*
X141091578Y-54337219D02*
X141186816Y-54384838D01*
X141186816Y-54384838D02*
X141234435Y-54432457D01*
X141234435Y-54432457D02*
X141282054Y-54527695D01*
X141282054Y-54527695D02*
X141282054Y-54670552D01*
X141282054Y-54670552D02*
X141234435Y-54765790D01*
X141234435Y-54765790D02*
X141186816Y-54813409D01*
X141186816Y-54813409D02*
X141091578Y-54861028D01*
X141091578Y-54861028D02*
X140710626Y-54861028D01*
X141901102Y-54337219D02*
X142091578Y-54337219D01*
X142091578Y-54337219D02*
X142186816Y-54384838D01*
X142186816Y-54384838D02*
X142282054Y-54480076D01*
X142282054Y-54480076D02*
X142329673Y-54670552D01*
X142329673Y-54670552D02*
X142329673Y-55003885D01*
X142329673Y-55003885D02*
X142282054Y-55194361D01*
X142282054Y-55194361D02*
X142186816Y-55289600D01*
X142186816Y-55289600D02*
X142091578Y-55337219D01*
X142091578Y-55337219D02*
X141901102Y-55337219D01*
X141901102Y-55337219D02*
X141805864Y-55289600D01*
X141805864Y-55289600D02*
X141710626Y-55194361D01*
X141710626Y-55194361D02*
X141663007Y-55003885D01*
X141663007Y-55003885D02*
X141663007Y-54670552D01*
X141663007Y-54670552D02*
X141710626Y-54480076D01*
X141710626Y-54480076D02*
X141805864Y-54384838D01*
X141805864Y-54384838D02*
X141901102Y-54337219D01*
X142758245Y-55337219D02*
X142758245Y-54337219D01*
X142758245Y-54337219D02*
X142996340Y-54337219D01*
X142996340Y-54337219D02*
X143139197Y-54384838D01*
X143139197Y-54384838D02*
X143234435Y-54480076D01*
X143234435Y-54480076D02*
X143282054Y-54575314D01*
X143282054Y-54575314D02*
X143329673Y-54765790D01*
X143329673Y-54765790D02*
X143329673Y-54908647D01*
X143329673Y-54908647D02*
X143282054Y-55099123D01*
X143282054Y-55099123D02*
X143234435Y-55194361D01*
X143234435Y-55194361D02*
X143139197Y-55289600D01*
X143139197Y-55289600D02*
X142996340Y-55337219D01*
X142996340Y-55337219D02*
X142758245Y-55337219D01*
X143758245Y-54813409D02*
X144091578Y-54813409D01*
X144234435Y-55337219D02*
X143758245Y-55337219D01*
X143758245Y-55337219D02*
X143758245Y-54337219D01*
X143758245Y-54337219D02*
X144234435Y-54337219D01*
X145710626Y-54337219D02*
X145710626Y-55051504D01*
X145710626Y-55051504D02*
X145663007Y-55194361D01*
X145663007Y-55194361D02*
X145567769Y-55289600D01*
X145567769Y-55289600D02*
X145424912Y-55337219D01*
X145424912Y-55337219D02*
X145329674Y-55337219D01*
X146139198Y-55051504D02*
X146615388Y-55051504D01*
X146043960Y-55337219D02*
X146377293Y-54337219D01*
X146377293Y-54337219D02*
X146710626Y-55337219D01*
X147615388Y-55241980D02*
X147567769Y-55289600D01*
X147567769Y-55289600D02*
X147424912Y-55337219D01*
X147424912Y-55337219D02*
X147329674Y-55337219D01*
X147329674Y-55337219D02*
X147186817Y-55289600D01*
X147186817Y-55289600D02*
X147091579Y-55194361D01*
X147091579Y-55194361D02*
X147043960Y-55099123D01*
X147043960Y-55099123D02*
X146996341Y-54908647D01*
X146996341Y-54908647D02*
X146996341Y-54765790D01*
X146996341Y-54765790D02*
X147043960Y-54575314D01*
X147043960Y-54575314D02*
X147091579Y-54480076D01*
X147091579Y-54480076D02*
X147186817Y-54384838D01*
X147186817Y-54384838D02*
X147329674Y-54337219D01*
X147329674Y-54337219D02*
X147424912Y-54337219D01*
X147424912Y-54337219D02*
X147567769Y-54384838D01*
X147567769Y-54384838D02*
X147615388Y-54432457D01*
X148043960Y-55337219D02*
X148043960Y-54337219D01*
X148615388Y-55337219D02*
X148186817Y-54765790D01*
X148615388Y-54337219D02*
X148043960Y-54908647D01*
X150329674Y-55337219D02*
X149758246Y-55337219D01*
X150043960Y-55337219D02*
X150043960Y-54337219D01*
X150043960Y-54337219D02*
X149948722Y-54480076D01*
X149948722Y-54480076D02*
X149853484Y-54575314D01*
X149853484Y-54575314D02*
X149758246Y-54622933D01*
D11*
X166618169Y-61123085D02*
X166656265Y-61084990D01*
X166656265Y-61084990D02*
X166732455Y-61046895D01*
X166732455Y-61046895D02*
X166922931Y-61046895D01*
X166922931Y-61046895D02*
X166999122Y-61084990D01*
X166999122Y-61084990D02*
X167037217Y-61123085D01*
X167037217Y-61123085D02*
X167075312Y-61199276D01*
X167075312Y-61199276D02*
X167075312Y-61275466D01*
X167075312Y-61275466D02*
X167037217Y-61389752D01*
X167037217Y-61389752D02*
X166580074Y-61846895D01*
X166580074Y-61846895D02*
X167075312Y-61846895D01*
X167341979Y-61046895D02*
X167875313Y-61846895D01*
X167875313Y-61046895D02*
X167341979Y-61846895D01*
X165380074Y-55096895D02*
X165570550Y-55896895D01*
X165570550Y-55896895D02*
X165722931Y-55325466D01*
X165722931Y-55325466D02*
X165875312Y-55896895D01*
X165875312Y-55896895D02*
X166065789Y-55096895D01*
X166180075Y-55973085D02*
X166789598Y-55973085D01*
X166980075Y-55896895D02*
X166980075Y-55096895D01*
X167361027Y-55896895D02*
X167361027Y-55096895D01*
X167361027Y-55096895D02*
X167818170Y-55896895D01*
X167818170Y-55896895D02*
X167818170Y-55096895D01*
D13*
X164957565Y-57159783D02*
X165124231Y-57859783D01*
X165124231Y-57859783D02*
X165257565Y-57359783D01*
X165257565Y-57359783D02*
X165390898Y-57859783D01*
X165390898Y-57859783D02*
X165557565Y-57159783D01*
X165657565Y-57926450D02*
X166190898Y-57926450D01*
X166490898Y-57159783D02*
X166624231Y-57159783D01*
X166624231Y-57159783D02*
X166690898Y-57193116D01*
X166690898Y-57193116D02*
X166757564Y-57259783D01*
X166757564Y-57259783D02*
X166790898Y-57393116D01*
X166790898Y-57393116D02*
X166790898Y-57626450D01*
X166790898Y-57626450D02*
X166757564Y-57759783D01*
X166757564Y-57759783D02*
X166690898Y-57826450D01*
X166690898Y-57826450D02*
X166624231Y-57859783D01*
X166624231Y-57859783D02*
X166490898Y-57859783D01*
X166490898Y-57859783D02*
X166424231Y-57826450D01*
X166424231Y-57826450D02*
X166357564Y-57759783D01*
X166357564Y-57759783D02*
X166324231Y-57626450D01*
X166324231Y-57626450D02*
X166324231Y-57393116D01*
X166324231Y-57393116D02*
X166357564Y-57259783D01*
X166357564Y-57259783D02*
X166424231Y-57193116D01*
X166424231Y-57193116D02*
X166490898Y-57159783D01*
X167090897Y-57159783D02*
X167090897Y-57726450D01*
X167090897Y-57726450D02*
X167124231Y-57793116D01*
X167124231Y-57793116D02*
X167157564Y-57826450D01*
X167157564Y-57826450D02*
X167224231Y-57859783D01*
X167224231Y-57859783D02*
X167357564Y-57859783D01*
X167357564Y-57859783D02*
X167424231Y-57826450D01*
X167424231Y-57826450D02*
X167457564Y-57793116D01*
X167457564Y-57793116D02*
X167490897Y-57726450D01*
X167490897Y-57726450D02*
X167490897Y-57159783D01*
X167724230Y-57159783D02*
X168124230Y-57159783D01*
X167924230Y-57859783D02*
X167924230Y-57159783D01*
D14*
X183522712Y-76716357D02*
X183570331Y-76668738D01*
X183570331Y-76668738D02*
X183665569Y-76621119D01*
X183665569Y-76621119D02*
X183903664Y-76621119D01*
X183903664Y-76621119D02*
X183998902Y-76668738D01*
X183998902Y-76668738D02*
X184046521Y-76716357D01*
X184046521Y-76716357D02*
X184094140Y-76811595D01*
X184094140Y-76811595D02*
X184094140Y-76906833D01*
X184094140Y-76906833D02*
X184046521Y-77049690D01*
X184046521Y-77049690D02*
X183475093Y-77621119D01*
X183475093Y-77621119D02*
X184094140Y-77621119D01*
X184522712Y-77525880D02*
X184570331Y-77573500D01*
X184570331Y-77573500D02*
X184522712Y-77621119D01*
X184522712Y-77621119D02*
X184475093Y-77573500D01*
X184475093Y-77573500D02*
X184522712Y-77525880D01*
X184522712Y-77525880D02*
X184522712Y-77621119D01*
X185427473Y-76954452D02*
X185427473Y-77621119D01*
X185189378Y-76573500D02*
X184951283Y-77287785D01*
X184951283Y-77287785D02*
X185570330Y-77287785D01*
X186475092Y-76668738D02*
X186379854Y-76621119D01*
X186379854Y-76621119D02*
X186236997Y-76621119D01*
X186236997Y-76621119D02*
X186094140Y-76668738D01*
X186094140Y-76668738D02*
X185998902Y-76763976D01*
X185998902Y-76763976D02*
X185951283Y-76859214D01*
X185951283Y-76859214D02*
X185903664Y-77049690D01*
X185903664Y-77049690D02*
X185903664Y-77192547D01*
X185903664Y-77192547D02*
X185951283Y-77383023D01*
X185951283Y-77383023D02*
X185998902Y-77478261D01*
X185998902Y-77478261D02*
X186094140Y-77573500D01*
X186094140Y-77573500D02*
X186236997Y-77621119D01*
X186236997Y-77621119D02*
X186332235Y-77621119D01*
X186332235Y-77621119D02*
X186475092Y-77573500D01*
X186475092Y-77573500D02*
X186522711Y-77525880D01*
X186522711Y-77525880D02*
X186522711Y-77192547D01*
X186522711Y-77192547D02*
X186332235Y-77192547D01*
X186951283Y-77621119D02*
X186951283Y-76621119D01*
X186951283Y-77097309D02*
X187522711Y-77097309D01*
X187522711Y-77621119D02*
X187522711Y-76621119D01*
X187903664Y-76954452D02*
X188427473Y-76954452D01*
X188427473Y-76954452D02*
X187903664Y-77621119D01*
X187903664Y-77621119D02*
X188427473Y-77621119D01*
X189522712Y-77335404D02*
X189998902Y-77335404D01*
X189427474Y-77621119D02*
X189760807Y-76621119D01*
X189760807Y-76621119D02*
X190094140Y-77621119D01*
X190427474Y-76954452D02*
X190427474Y-77621119D01*
X190427474Y-77049690D02*
X190475093Y-77002071D01*
X190475093Y-77002071D02*
X190570331Y-76954452D01*
X190570331Y-76954452D02*
X190713188Y-76954452D01*
X190713188Y-76954452D02*
X190808426Y-77002071D01*
X190808426Y-77002071D02*
X190856045Y-77097309D01*
X190856045Y-77097309D02*
X190856045Y-77621119D01*
X191189379Y-76954452D02*
X191570331Y-76954452D01*
X191332236Y-76621119D02*
X191332236Y-77478261D01*
X191332236Y-77478261D02*
X191379855Y-77573500D01*
X191379855Y-77573500D02*
X191475093Y-77621119D01*
X191475093Y-77621119D02*
X191570331Y-77621119D01*
X192284617Y-77573500D02*
X192189379Y-77621119D01*
X192189379Y-77621119D02*
X191998903Y-77621119D01*
X191998903Y-77621119D02*
X191903665Y-77573500D01*
X191903665Y-77573500D02*
X191856046Y-77478261D01*
X191856046Y-77478261D02*
X191856046Y-77097309D01*
X191856046Y-77097309D02*
X191903665Y-77002071D01*
X191903665Y-77002071D02*
X191998903Y-76954452D01*
X191998903Y-76954452D02*
X192189379Y-76954452D01*
X192189379Y-76954452D02*
X192284617Y-77002071D01*
X192284617Y-77002071D02*
X192332236Y-77097309D01*
X192332236Y-77097309D02*
X192332236Y-77192547D01*
X192332236Y-77192547D02*
X191856046Y-77287785D01*
X192760808Y-76954452D02*
X192760808Y-77621119D01*
X192760808Y-77049690D02*
X192808427Y-77002071D01*
X192808427Y-77002071D02*
X192903665Y-76954452D01*
X192903665Y-76954452D02*
X193046522Y-76954452D01*
X193046522Y-76954452D02*
X193141760Y-77002071D01*
X193141760Y-77002071D02*
X193189379Y-77097309D01*
X193189379Y-77097309D02*
X193189379Y-77621119D01*
X193665570Y-76954452D02*
X193665570Y-77621119D01*
X193665570Y-77049690D02*
X193713189Y-77002071D01*
X193713189Y-77002071D02*
X193808427Y-76954452D01*
X193808427Y-76954452D02*
X193951284Y-76954452D01*
X193951284Y-76954452D02*
X194046522Y-77002071D01*
X194046522Y-77002071D02*
X194094141Y-77097309D01*
X194094141Y-77097309D02*
X194094141Y-77621119D01*
X194998903Y-77621119D02*
X194998903Y-77097309D01*
X194998903Y-77097309D02*
X194951284Y-77002071D01*
X194951284Y-77002071D02*
X194856046Y-76954452D01*
X194856046Y-76954452D02*
X194665570Y-76954452D01*
X194665570Y-76954452D02*
X194570332Y-77002071D01*
X194998903Y-77573500D02*
X194903665Y-77621119D01*
X194903665Y-77621119D02*
X194665570Y-77621119D01*
X194665570Y-77621119D02*
X194570332Y-77573500D01*
X194570332Y-77573500D02*
X194522713Y-77478261D01*
X194522713Y-77478261D02*
X194522713Y-77383023D01*
X194522713Y-77383023D02*
X194570332Y-77287785D01*
X194570332Y-77287785D02*
X194665570Y-77240166D01*
X194665570Y-77240166D02*
X194903665Y-77240166D01*
X194903665Y-77240166D02*
X194998903Y-77192547D01*
D11*
X166022931Y-59577847D02*
X165756265Y-59577847D01*
X165756265Y-59996895D02*
X165756265Y-59196895D01*
X165756265Y-59196895D02*
X166137217Y-59196895D01*
X166441979Y-59996895D02*
X166441979Y-59196895D01*
X166784835Y-59958800D02*
X166899121Y-59996895D01*
X166899121Y-59996895D02*
X167089597Y-59996895D01*
X167089597Y-59996895D02*
X167165788Y-59958800D01*
X167165788Y-59958800D02*
X167203883Y-59920704D01*
X167203883Y-59920704D02*
X167241978Y-59844514D01*
X167241978Y-59844514D02*
X167241978Y-59768323D01*
X167241978Y-59768323D02*
X167203883Y-59692133D01*
X167203883Y-59692133D02*
X167165788Y-59654038D01*
X167165788Y-59654038D02*
X167089597Y-59615942D01*
X167089597Y-59615942D02*
X166937216Y-59577847D01*
X166937216Y-59577847D02*
X166861026Y-59539752D01*
X166861026Y-59539752D02*
X166822931Y-59501657D01*
X166822931Y-59501657D02*
X166784835Y-59425466D01*
X166784835Y-59425466D02*
X166784835Y-59349276D01*
X166784835Y-59349276D02*
X166822931Y-59273085D01*
X166822931Y-59273085D02*
X166861026Y-59234990D01*
X166861026Y-59234990D02*
X166937216Y-59196895D01*
X166937216Y-59196895D02*
X167127693Y-59196895D01*
X167127693Y-59196895D02*
X167241978Y-59234990D01*
X167470550Y-59196895D02*
X167927693Y-59196895D01*
X167699121Y-59996895D02*
X167699121Y-59196895D01*
D15*
%TO.C,SW1*%
X167040000Y-38790000D02*
X167040000Y-39200000D01*
X167040000Y-40800000D02*
X167040000Y-43200000D01*
X167040000Y-44800000D02*
X167040000Y-45210000D01*
X167040000Y-45210000D02*
X173460000Y-45210000D01*
X173460000Y-38790000D02*
X167040000Y-38790000D01*
X173460000Y-39200000D02*
X173460000Y-38790000D01*
X173460000Y-43200000D02*
X173460000Y-40800000D01*
X173460000Y-45210000D02*
X173460000Y-44930000D01*
%TO.C,C14*%
X183803733Y-64690000D02*
X184096267Y-64690000D01*
X183803733Y-65710000D02*
X184096267Y-65710000D01*
%TO.C,C18*%
X189540000Y-57215835D02*
X189540000Y-56984165D01*
X190260000Y-57215835D02*
X190260000Y-56984165D01*
%TO.C,R17*%
X174070000Y-77082379D02*
X174070000Y-77417621D01*
X174830000Y-77082379D02*
X174830000Y-77417621D01*
%TO.C,C31*%
X169490000Y-68016665D02*
X169490000Y-68248335D01*
X170210000Y-68016665D02*
X170210000Y-68248335D01*
%TO.C,R8*%
X154400000Y-69302379D02*
X154400000Y-69637621D01*
X155160000Y-69302379D02*
X155160000Y-69637621D01*
%TO.C,C10*%
X163765835Y-59170000D02*
X163534165Y-59170000D01*
X163765835Y-59890000D02*
X163534165Y-59890000D01*
%TO.C,C30*%
X176190000Y-77365835D02*
X176190000Y-77134165D01*
X176910000Y-77365835D02*
X176910000Y-77134165D01*
%TO.C,J1*%
X135430000Y-58870000D02*
X137930000Y-58870000D01*
X135430000Y-64070000D02*
X135430000Y-58870000D01*
X137930000Y-58370000D02*
X141130000Y-58370000D01*
X137930000Y-58870000D02*
X137930000Y-58370000D01*
X137930000Y-64070000D02*
X135430000Y-64070000D01*
X137930000Y-64570000D02*
X137930000Y-64070000D01*
X139130000Y-64570000D02*
X137930000Y-64570000D01*
X139130000Y-64570000D02*
X139130000Y-66570000D01*
X141730000Y-64570000D02*
X141730000Y-66570000D01*
X143730000Y-58370000D02*
X152630000Y-58370000D01*
X148230000Y-64570000D02*
X141730000Y-64570000D01*
X152630000Y-58370000D02*
X152630000Y-64570000D01*
X152630000Y-64570000D02*
X151430000Y-64570000D01*
%TO.C,R7*%
X155595000Y-69349879D02*
X155595000Y-69685121D01*
X156355000Y-69349879D02*
X156355000Y-69685121D01*
%TO.C,R16*%
X172935121Y-77370000D02*
X172599879Y-77370000D01*
X172935121Y-78130000D02*
X172599879Y-78130000D01*
%TO.C,C21*%
X179010000Y-61051665D02*
X179010000Y-61283335D01*
X179730000Y-61051665D02*
X179730000Y-61283335D01*
%TO.C,R13*%
X155907379Y-76900000D02*
X156242621Y-76900000D01*
X155907379Y-77660000D02*
X156242621Y-77660000D01*
%TO.C,L3*%
X190700200Y-58640000D02*
X190499800Y-58640000D01*
X190700200Y-59360000D02*
X190499800Y-59360000D01*
%TO.C,Y2*%
X174490000Y-57010000D02*
X176910000Y-57010000D01*
X176910000Y-57010000D02*
X176910000Y-54190000D01*
%TO.C,C23*%
X191740000Y-56403733D02*
X191740000Y-56696267D01*
X192760000Y-56403733D02*
X192760000Y-56696267D01*
%TO.C,C35*%
X177290000Y-54434165D02*
X177290000Y-54665835D01*
X178010000Y-54434165D02*
X178010000Y-54665835D01*
%TO.C,Y1*%
X193810000Y-64190000D02*
X190990000Y-64190000D01*
X193810000Y-66610000D02*
X193810000Y-64190000D01*
%TO.C,U6*%
X155450000Y-53710000D02*
X157250000Y-53710000D01*
X156450000Y-50490000D02*
X155650000Y-50490000D01*
X156450000Y-50490000D02*
X157250000Y-50490000D01*
X155150000Y-50540000D02*
X154910000Y-50210000D01*
X155390000Y-50210000D01*
X155150000Y-50540000D01*
G36*
X155150000Y-50540000D02*
G01*
X154910000Y-50210000D01*
X155390000Y-50210000D01*
X155150000Y-50540000D01*
G37*
%TO.C,R14*%
X153450000Y-65602379D02*
X153450000Y-65937621D01*
X154210000Y-65602379D02*
X154210000Y-65937621D01*
%TO.C,C13*%
X158990000Y-51783335D02*
X158990000Y-51551665D01*
X159710000Y-51783335D02*
X159710000Y-51551665D01*
%TO.C,C22*%
X185983335Y-52840000D02*
X185751665Y-52840000D01*
X185983335Y-53560000D02*
X185751665Y-53560000D01*
%TO.C,R19*%
X179632379Y-63320000D02*
X179967621Y-63320000D01*
X179632379Y-64080000D02*
X179967621Y-64080000D01*
%TO.C,U2*%
X154920000Y-59860000D02*
X158140000Y-59860000D01*
X154920000Y-59985000D02*
X154920000Y-59860000D01*
X154920000Y-63080000D02*
X154920000Y-62955000D01*
X158140000Y-59860000D02*
X158140000Y-59985000D01*
X158140000Y-62955000D02*
X158140000Y-63080000D01*
X158140000Y-63080000D02*
X154920000Y-63080000D01*
X154370000Y-59980000D02*
X154130000Y-59650000D01*
X154610000Y-59650000D01*
X154370000Y-59980000D01*
G36*
X154370000Y-59980000D02*
G01*
X154130000Y-59650000D01*
X154610000Y-59650000D01*
X154370000Y-59980000D01*
G37*
%TO.C,J3*%
X167650000Y-51200000D02*
X167650000Y-50020000D01*
X167715000Y-47570000D02*
X174285000Y-47570000D01*
X167715000Y-48432077D02*
X167715000Y-47570000D01*
X168460000Y-51200000D02*
X167650000Y-51200000D01*
X169270000Y-51200000D02*
X169270000Y-50686708D01*
X169270000Y-51200000D02*
X174285000Y-51200000D01*
X174285000Y-48432077D02*
X174285000Y-47570000D01*
X174285000Y-49702077D02*
X174285000Y-49067923D01*
X174285000Y-51200000D02*
X174285000Y-50337923D01*
%TO.C,C20*%
X177890000Y-61273335D02*
X177890000Y-61041665D01*
X178610000Y-61273335D02*
X178610000Y-61041665D01*
%TO.C,C3*%
X151296267Y-41565000D02*
X151003733Y-41565000D01*
X151296267Y-42585000D02*
X151003733Y-42585000D01*
%TO.C,C12*%
X158445835Y-72960000D02*
X158214165Y-72960000D01*
X158445835Y-73680000D02*
X158214165Y-73680000D01*
%TO.C,C29*%
X175140000Y-77134165D02*
X175140000Y-77365835D01*
X175860000Y-77134165D02*
X175860000Y-77365835D01*
%TO.C,L1*%
X150966233Y-48415000D02*
X151308767Y-48415000D01*
X150966233Y-49435000D02*
X151308767Y-49435000D01*
%TO.C,C26*%
X159870000Y-78154165D02*
X159870000Y-78385835D01*
X160590000Y-78154165D02*
X160590000Y-78385835D01*
%TO.C,R5*%
X165104879Y-69135000D02*
X165440121Y-69135000D01*
X165104879Y-69895000D02*
X165440121Y-69895000D01*
D16*
%TO.C,ANT1*%
X195990000Y-81720000D02*
X195990000Y-83680000D01*
X197590000Y-81720000D02*
X197590000Y-83680000D01*
D12*
X197640000Y-80200000D02*
G75*
G02*
X197440000Y-80200000I-100000J0D01*
G01*
X197440000Y-80200000D02*
G75*
G02*
X197640000Y-80200000I100000J0D01*
G01*
D15*
%TO.C,R12*%
X157450000Y-76552379D02*
X157450000Y-76887621D01*
X158210000Y-76552379D02*
X158210000Y-76887621D01*
%TO.C,C11*%
X159870000Y-60304165D02*
X159870000Y-60535835D01*
X160590000Y-60304165D02*
X160590000Y-60535835D01*
%TO.C,R11*%
X155962379Y-75850000D02*
X156297621Y-75850000D01*
X155962379Y-76610000D02*
X156297621Y-76610000D01*
%TO.C,R2*%
X155212379Y-57590000D02*
X155547621Y-57590000D01*
X155212379Y-58350000D02*
X155547621Y-58350000D01*
%TO.C,C36*%
X177290000Y-56965835D02*
X177290000Y-56734165D01*
X178010000Y-56965835D02*
X178010000Y-56734165D01*
%TO.C,R1*%
X155164879Y-58690000D02*
X155500121Y-58690000D01*
X155164879Y-59450000D02*
X155500121Y-59450000D01*
%TO.C,R18*%
X175320000Y-44082379D02*
X175320000Y-44417621D01*
X176080000Y-44082379D02*
X176080000Y-44417621D01*
%TO.C,C9*%
X163566665Y-58120000D02*
X163798335Y-58120000D01*
X163566665Y-58840000D02*
X163798335Y-58840000D01*
%TO.C,C32*%
X169905835Y-70500000D02*
X169674165Y-70500000D01*
X169905835Y-71220000D02*
X169674165Y-71220000D01*
%TO.C,C33*%
X169674165Y-71550000D02*
X169905835Y-71550000D01*
X169674165Y-72270000D02*
X169905835Y-72270000D01*
%TO.C,C8*%
X163434165Y-53620000D02*
X163665835Y-53620000D01*
X163434165Y-54340000D02*
X163665835Y-54340000D01*
%TO.C,C25*%
X190190000Y-61508767D02*
X190190000Y-61216233D01*
X191210000Y-61508767D02*
X191210000Y-61216233D01*
%TO.C,R25*%
X187720000Y-44532379D02*
X187720000Y-44867621D01*
X188480000Y-44532379D02*
X188480000Y-44867621D01*
%TO.C,R6*%
X150662621Y-69745000D02*
X150327379Y-69745000D01*
X150662621Y-70505000D02*
X150327379Y-70505000D01*
%TO.C,D4*%
X168690000Y-60790000D02*
X168690000Y-62710000D01*
X168690000Y-62710000D02*
X171550000Y-62710000D01*
X171550000Y-60790000D02*
X168690000Y-60790000D01*
%TO.C,R23*%
X179642379Y-65470000D02*
X179977621Y-65470000D01*
X179642379Y-66230000D02*
X179977621Y-66230000D01*
%TO.C,U8*%
X171140000Y-70290000D02*
X171235000Y-70290000D01*
X171140000Y-74410000D02*
X171140000Y-70290000D01*
X171235000Y-74410000D02*
X171140000Y-74410000D01*
X176165000Y-70290000D02*
X176260000Y-70290000D01*
X176260000Y-70290000D02*
X176260000Y-74410000D01*
X176260000Y-74410000D02*
X176165000Y-74410000D01*
X171230000Y-74950000D02*
X170900000Y-75190000D01*
X170900000Y-74710000D01*
X171230000Y-74950000D01*
G36*
X171230000Y-74950000D02*
G01*
X170900000Y-75190000D01*
X170900000Y-74710000D01*
X171230000Y-74950000D01*
G37*
%TO.C,D5*%
X149465000Y-39665000D02*
X149465000Y-41135000D01*
X149465000Y-41135000D02*
X151925000Y-41135000D01*
X151925000Y-39665000D02*
X149465000Y-39665000D01*
%TO.C,C17*%
X188115835Y-63490000D02*
X187884165Y-63490000D01*
X188115835Y-64210000D02*
X187884165Y-64210000D01*
%TO.C,R22*%
X179642379Y-64415000D02*
X179977621Y-64415000D01*
X179642379Y-65175000D02*
X179977621Y-65175000D01*
%TO.C,R3*%
X156750000Y-58302379D02*
X156750000Y-58637621D01*
X157510000Y-58302379D02*
X157510000Y-58637621D01*
%TO.C,D3*%
X168712500Y-58545000D02*
X168712500Y-60465000D01*
X168712500Y-60465000D02*
X171572500Y-60465000D01*
X171572500Y-58545000D02*
X168712500Y-58545000D01*
%TO.C,U4*%
X158270000Y-67560000D02*
X162390000Y-67560000D01*
X158270000Y-67655000D02*
X158270000Y-67560000D01*
X158270000Y-72680000D02*
X158270000Y-72585000D01*
X162390000Y-67560000D02*
X162390000Y-67655000D01*
X162390000Y-72585000D02*
X162390000Y-72680000D01*
X162390000Y-72680000D02*
X158270000Y-72680000D01*
X163170000Y-72920000D02*
X162690000Y-72920000D01*
X162930000Y-72590000D01*
X163170000Y-72920000D01*
G36*
X163170000Y-72920000D02*
G01*
X162690000Y-72920000D01*
X162930000Y-72590000D01*
X163170000Y-72920000D01*
G37*
%TO.C,C27*%
X172865835Y-76340000D02*
X172634165Y-76340000D01*
X172865835Y-77060000D02*
X172634165Y-77060000D01*
%TO.C,U7*%
X154770000Y-78060000D02*
X157990000Y-78060000D01*
X154770000Y-78185000D02*
X154770000Y-78060000D01*
X154770000Y-81280000D02*
X154770000Y-81155000D01*
X157990000Y-78060000D02*
X157990000Y-78185000D01*
X157990000Y-81155000D02*
X157990000Y-81280000D01*
X157990000Y-81280000D02*
X154770000Y-81280000D01*
X154220000Y-78180000D02*
X153980000Y-77850000D01*
X154460000Y-77850000D01*
X154220000Y-78180000D01*
G36*
X154220000Y-78180000D02*
G01*
X153980000Y-77850000D01*
X154460000Y-77850000D01*
X154220000Y-78180000D01*
G37*
%TO.C,SW2*%
X190190000Y-38790000D02*
X190190000Y-39200000D01*
X190190000Y-40800000D02*
X190190000Y-43200000D01*
X190190000Y-44800000D02*
X190190000Y-45210000D01*
X190190000Y-45210000D02*
X196610000Y-45210000D01*
X196610000Y-38790000D02*
X190190000Y-38790000D01*
X196610000Y-39200000D02*
X196610000Y-38790000D01*
X196610000Y-43200000D02*
X196610000Y-40800000D01*
X196610000Y-45210000D02*
X196610000Y-44930000D01*
%TO.C,R9*%
X162832379Y-42370000D02*
X163167621Y-42370000D01*
X162832379Y-43130000D02*
X163167621Y-43130000D01*
%TO.C,C7*%
X153027500Y-51533335D02*
X153027500Y-51301665D01*
X153747500Y-51533335D02*
X153747500Y-51301665D01*
%TO.C,R20*%
X168420000Y-68267621D02*
X168420000Y-67932379D01*
X169180000Y-68267621D02*
X169180000Y-67932379D01*
%TO.C,D2*%
X168690000Y-56490000D02*
X168690000Y-58410000D01*
X168690000Y-58410000D02*
X171550000Y-58410000D01*
X171550000Y-56490000D02*
X168690000Y-56490000D01*
%TO.C,R21*%
X169957621Y-69430000D02*
X169622379Y-69430000D01*
X169957621Y-70190000D02*
X169622379Y-70190000D01*
%TO.C,C24*%
X181248335Y-53140000D02*
X181016665Y-53140000D01*
X181248335Y-53860000D02*
X181016665Y-53860000D01*
%TO.C,R24*%
X179642379Y-66570000D02*
X179977621Y-66570000D01*
X179642379Y-67330000D02*
X179977621Y-67330000D01*
%TO.C,C19*%
X190590000Y-57215835D02*
X190590000Y-56984165D01*
X191310000Y-57215835D02*
X191310000Y-56984165D01*
%TO.C,R10*%
X163117621Y-43470000D02*
X162782379Y-43470000D01*
X163117621Y-44230000D02*
X162782379Y-44230000D01*
%TO.C,C15*%
X179140000Y-54665835D02*
X179140000Y-54434165D01*
X179860000Y-54665835D02*
X179860000Y-54434165D01*
%TO.C,C16*%
X185365835Y-63440000D02*
X185134165Y-63440000D01*
X185365835Y-64160000D02*
X185134165Y-64160000D01*
%TO.C,R15*%
X153450000Y-74802379D02*
X153450000Y-75137621D01*
X154210000Y-74802379D02*
X154210000Y-75137621D01*
%TO.C,C6*%
X151803335Y-47265000D02*
X151571665Y-47265000D01*
X151803335Y-47985000D02*
X151571665Y-47985000D01*
%TO.C,L4*%
X192040000Y-60321267D02*
X192040000Y-59978733D01*
X193060000Y-60321267D02*
X193060000Y-59978733D01*
%TO.C,U1*%
X180540000Y-54540000D02*
X181065000Y-54540000D01*
X180540000Y-55065000D02*
X180540000Y-54540000D01*
X180540000Y-62760000D02*
X180540000Y-62235000D01*
X181065000Y-62760000D02*
X180540000Y-62760000D01*
X188235000Y-54540000D02*
X188760000Y-54540000D01*
X188760000Y-54540000D02*
X188760000Y-55065000D01*
X188760000Y-62235000D02*
X188760000Y-62760000D01*
X188760000Y-62760000D02*
X188235000Y-62760000D01*
%TO.C,C1*%
X155490835Y-70815000D02*
X155259165Y-70815000D01*
X155490835Y-71535000D02*
X155259165Y-71535000D01*
%TO.C,U5*%
X149577500Y-44040000D02*
X149627500Y-44040000D01*
X149577500Y-45860000D02*
X149577500Y-44040000D01*
X149627500Y-45860000D02*
X149577500Y-45860000D01*
X152647500Y-44040000D02*
X152697500Y-44040000D01*
X152697500Y-44040000D02*
X152697500Y-45860000D01*
X152697500Y-45860000D02*
X152647500Y-45860000D01*
X152977500Y-43740000D02*
X152647500Y-43500000D01*
X152977500Y-43260000D01*
X152977500Y-43740000D01*
G36*
X152977500Y-43740000D02*
G01*
X152647500Y-43500000D01*
X152977500Y-43260000D01*
X152977500Y-43740000D01*
G37*
%TO.C,C28*%
X172248335Y-67640000D02*
X172016665Y-67640000D01*
X172248335Y-68360000D02*
X172016665Y-68360000D01*
%TO.C,L2*%
X163540000Y-56033733D02*
X163540000Y-56376267D01*
X164560000Y-56033733D02*
X164560000Y-56376267D01*
%TO.C,R4*%
X165442621Y-68035000D02*
X165107379Y-68035000D01*
X165442621Y-68795000D02*
X165107379Y-68795000D01*
%TO.C,C5*%
X150978733Y-51640000D02*
X151271267Y-51640000D01*
X150978733Y-52660000D02*
X151271267Y-52660000D01*
%TO.C,J2*%
X135430000Y-76670000D02*
X137930000Y-76670000D01*
X135430000Y-81870000D02*
X135430000Y-76670000D01*
X137930000Y-76170000D02*
X141130000Y-76170000D01*
X137930000Y-76670000D02*
X137930000Y-76170000D01*
X137930000Y-81870000D02*
X135430000Y-81870000D01*
X137930000Y-82370000D02*
X137930000Y-81870000D01*
X139130000Y-82370000D02*
X137930000Y-82370000D01*
X139130000Y-82370000D02*
X139130000Y-84370000D01*
X141730000Y-82370000D02*
X141730000Y-84370000D01*
X143730000Y-76170000D02*
X152630000Y-76170000D01*
X148230000Y-82370000D02*
X141730000Y-82370000D01*
X152630000Y-76170000D02*
X152630000Y-82370000D01*
X152630000Y-82370000D02*
X151430000Y-82370000D01*
%TO.C,C4*%
X150978733Y-50090000D02*
X151271267Y-50090000D01*
X150978733Y-51110000D02*
X151271267Y-51110000D01*
%TO.C,C39*%
X196430000Y-77382164D02*
X196430000Y-77597836D01*
X197150000Y-77382164D02*
X197150000Y-77597836D01*
D11*
%TO.C,FL1*%
X193580000Y-73447000D02*
X193580000Y-73447000D01*
X193680000Y-73447000D02*
X193680000Y-73447000D01*
X193580000Y-73447000D02*
G75*
G02*
X193680000Y-73447000I50000J0D01*
G01*
X193680000Y-73447000D02*
G75*
G02*
X193580000Y-73447000I-50000J0D01*
G01*
D15*
%TO.C,D1*%
X168690000Y-54290000D02*
X168690000Y-56210000D01*
X168690000Y-56210000D02*
X171550000Y-56210000D01*
X171550000Y-54290000D02*
X168690000Y-54290000D01*
%TD*%
M02*
