%TF.GenerationSoftware,KiCad,Pcbnew,9.0.6*%
%TF.CreationDate,2026-05-28T00:57:37+03:00*%
%TF.ProjectId,STM32WB55_Gesture,53544d33-3257-4423-9535-5f4765737475,rev?*%
%TF.SameCoordinates,Original*%
%TF.FileFunction,Copper,L4,Bot*%
%TF.FilePolarity,Positive*%
%FSLAX46Y46*%
G04 Gerber Fmt 4.6, Leading zero omitted, Abs format (unit mm)*
G04 Created by KiCad (PCBNEW 9.0.6) date 2026-05-28 00:57:37*
%MOMM*%
%LPD*%
G01*
G04 APERTURE LIST*
G04 Aperture macros list*
%AMRoundRect*
0 Rectangle with rounded corners*
0 $1 Rounding radius*
0 $2 $3 $4 $5 $6 $7 $8 $9 X,Y pos of 4 corners*
0 Add a 4 corners polygon primitive as box body*
4,1,4,$2,$3,$4,$5,$6,$7,$8,$9,$2,$3,0*
0 Add four circle primitives for the rounded corners*
1,1,$1+$1,$2,$3*
1,1,$1+$1,$4,$5*
1,1,$1+$1,$6,$7*
1,1,$1+$1,$8,$9*
0 Add four rect primitives between the rounded corners*
20,1,$1+$1,$2,$3,$4,$5,0*
20,1,$1+$1,$4,$5,$6,$7,0*
20,1,$1+$1,$6,$7,$8,$9,0*
20,1,$1+$1,$8,$9,$2,$3,0*%
G04 Aperture macros list end*
%TA.AperFunction,HeatsinkPad*%
%ADD10O,1.000000X2.100000*%
%TD*%
%TA.AperFunction,HeatsinkPad*%
%ADD11O,1.000000X1.800000*%
%TD*%
%TA.AperFunction,ComponentPad*%
%ADD12R,1.000000X1.000000*%
%TD*%
%TA.AperFunction,ComponentPad*%
%ADD13C,1.000000*%
%TD*%
%TA.AperFunction,SMDPad,CuDef*%
%ADD14RoundRect,0.250000X0.450000X-0.262500X0.450000X0.262500X-0.450000X0.262500X-0.450000X-0.262500X0*%
%TD*%
%TA.AperFunction,SMDPad,CuDef*%
%ADD15RoundRect,0.160000X-0.160000X0.197500X-0.160000X-0.197500X0.160000X-0.197500X0.160000X0.197500X0*%
%TD*%
%TA.AperFunction,SMDPad,CuDef*%
%ADD16RoundRect,0.155000X-0.155000X0.212500X-0.155000X-0.212500X0.155000X-0.212500X0.155000X0.212500X0*%
%TD*%
%TA.AperFunction,SMDPad,CuDef*%
%ADD17RoundRect,0.155000X-0.212500X-0.155000X0.212500X-0.155000X0.212500X0.155000X-0.212500X0.155000X0*%
%TD*%
%TA.AperFunction,SMDPad,CuDef*%
%ADD18RoundRect,0.155000X0.155000X-0.212500X0.155000X0.212500X-0.155000X0.212500X-0.155000X-0.212500X0*%
%TD*%
%TA.AperFunction,ViaPad*%
%ADD19C,0.600000*%
%TD*%
%TA.AperFunction,ViaPad*%
%ADD20C,0.700000*%
%TD*%
%TA.AperFunction,Conductor*%
%ADD21C,0.508000*%
%TD*%
%TA.AperFunction,Conductor*%
%ADD22C,0.203200*%
%TD*%
%TA.AperFunction,Conductor*%
%ADD23C,0.304800*%
%TD*%
%TA.AperFunction,Conductor*%
%ADD24C,0.381000*%
%TD*%
%TA.AperFunction,Conductor*%
%ADD25C,0.254000*%
%TD*%
%TA.AperFunction,Conductor*%
%ADD26C,0.349250*%
%TD*%
G04 APERTURE END LIST*
D10*
%TO.P,J5,S1,SHIELD*%
%TO.N,Earth*%
X186170000Y-44530000D03*
D11*
X186170000Y-40330000D03*
D10*
X177530000Y-44530000D03*
D11*
X177530000Y-40330000D03*
%TD*%
D12*
%TO.P,J3,1,VTref*%
%TO.N,+3.3V*%
X168460000Y-50020000D03*
D13*
%TO.P,J3,2,SWDIO/TMS*%
%TO.N,SWDIO*%
X168460000Y-48750000D03*
%TO.P,J3,3,GND*%
%TO.N,GND*%
X169730000Y-50020000D03*
%TO.P,J3,4,SWCLK/TCK*%
%TO.N,SWCLK*%
X169730000Y-48750000D03*
%TO.P,J3,5,GND*%
%TO.N,GND*%
X171000000Y-50020000D03*
%TO.P,J3,6,SWO/TDO*%
%TO.N,SWO*%
X171000000Y-48750000D03*
%TO.P,J3,7,KEY*%
%TO.N,unconnected-(J3-KEY-Pad7)*%
X172270000Y-50020000D03*
%TO.P,J3,8,NC/TDI*%
%TO.N,unconnected-(J3-NC{slash}TDI-Pad8)*%
X172270000Y-48750000D03*
%TO.P,J3,9,GNDDetect*%
%TO.N,GND*%
X173540000Y-50020000D03*
%TO.P,J3,10,~{RESET}*%
%TO.N,RESET*%
X173540000Y-48750000D03*
%TD*%
D14*
%TO.P,R28,1*%
%TO.N,Earth*%
X179950000Y-41062500D03*
%TO.P,R28,2*%
%TO.N,GND*%
X179950000Y-39237500D03*
%TD*%
D15*
%TO.P,R26,1*%
%TO.N,GND*%
X183100000Y-39100000D03*
%TO.P,R26,2*%
%TO.N,Net-(J5-CC2)*%
X183100000Y-40295000D03*
%TD*%
D16*
%TO.P,C40,1*%
%TO.N,GND*%
X179550000Y-55232500D03*
%TO.P,C40,2*%
%TO.N,BOOT*%
X179550000Y-56367500D03*
%TD*%
D15*
%TO.P,R27,1*%
%TO.N,GND*%
X184250000Y-39100000D03*
%TO.P,R27,2*%
%TO.N,Net-(J5-CC1)*%
X184250000Y-40295000D03*
%TD*%
D17*
%TO.P,C2,1*%
%TO.N,GND*%
X177232500Y-59600000D03*
%TO.P,C2,2*%
%TO.N,BATTERY_SENSE*%
X178367500Y-59600000D03*
%TD*%
D18*
%TO.P,C41,1*%
%TO.N,Earth*%
X181600000Y-41317500D03*
%TO.P,C41,2*%
%TO.N,GND*%
X181600000Y-40182500D03*
%TD*%
D17*
%TO.P,C34,1*%
%TO.N,GND*%
X177682500Y-58150000D03*
%TO.P,C34,2*%
%TO.N,RESET*%
X178817500Y-58150000D03*
%TD*%
D19*
%TO.N,Net-(C1-Pad2)*%
X154125000Y-70075000D03*
X152100000Y-70100000D03*
%TO.N,BATTERY_SENSE*%
X163600000Y-44800000D03*
X179400000Y-59604000D03*
%TO.N,GND*%
X197000000Y-61000000D03*
X177300000Y-53150000D03*
X161250000Y-73250000D03*
X187050000Y-61500000D03*
X142000000Y-52000000D03*
X149500000Y-39000000D03*
X149000000Y-68500000D03*
D20*
X147250000Y-42450000D03*
D19*
X165750000Y-52750000D03*
X194500000Y-48500000D03*
X176550000Y-75400000D03*
X157500000Y-56500000D03*
X179000000Y-82250000D03*
X175750000Y-50500000D03*
X185300000Y-52450000D03*
X177500000Y-84000000D03*
X162500000Y-39000000D03*
X171000000Y-51000000D03*
X187000000Y-82250000D03*
X166500000Y-49250000D03*
X191000000Y-75500000D03*
X142000000Y-49500000D03*
X158750000Y-64500000D03*
X169750000Y-51000000D03*
X181250000Y-71250000D03*
X186750000Y-80250000D03*
X162300000Y-59525000D03*
X190950000Y-55700000D03*
X156000000Y-66750000D03*
X155000000Y-56000000D03*
X154750000Y-44000000D03*
X153400000Y-52850000D03*
X159250000Y-58750000D03*
X162400000Y-44800000D03*
X197000000Y-68500000D03*
X136500000Y-63500000D03*
X177500000Y-49000000D03*
X136500000Y-68500000D03*
X194890000Y-74330000D03*
X145750000Y-56500000D03*
X179000000Y-80000000D03*
X191000000Y-78500000D03*
X149030000Y-50600000D03*
X147250000Y-52000000D03*
X197000000Y-46000000D03*
X145250000Y-59750000D03*
X176750000Y-58150000D03*
X166000000Y-70750000D03*
X166000000Y-72750000D03*
X192500000Y-53500000D03*
X136500000Y-44500000D03*
X167500000Y-84000000D03*
X139500000Y-39500000D03*
X189500000Y-51250000D03*
X196300000Y-38900000D03*
X194880000Y-72740000D03*
X182300000Y-39100000D03*
X155500000Y-72750000D03*
X136500000Y-76500000D03*
X189900000Y-55700000D03*
X162750000Y-73250000D03*
X172700000Y-67150000D03*
X175000000Y-84000000D03*
X176500000Y-82250000D03*
X155675000Y-62450000D03*
X161000000Y-66750000D03*
X194000000Y-75750000D03*
X191000000Y-67500000D03*
X191850000Y-62250000D03*
X177750000Y-71250000D03*
X136500000Y-39500000D03*
X151750000Y-72000000D03*
X178280000Y-62580000D03*
X139500000Y-61500000D03*
X190750000Y-70750000D03*
X167250000Y-41250000D03*
X179500000Y-53100000D03*
X160000000Y-84000000D03*
X139750000Y-77000000D03*
X151250000Y-54750000D03*
X153280000Y-42080000D03*
X174500000Y-57500000D03*
X163000000Y-46000000D03*
X181600000Y-39300000D03*
X162500000Y-84000000D03*
X181250000Y-74250000D03*
X136500000Y-49500000D03*
X183750000Y-50000000D03*
X170250000Y-75000000D03*
X190500000Y-38900000D03*
X148750000Y-44500000D03*
X147000000Y-81250000D03*
X149240000Y-46090000D03*
X161000000Y-59850000D03*
X156250000Y-78750000D03*
X136500000Y-84000000D03*
X166500000Y-82250000D03*
X145500000Y-68750000D03*
X197000000Y-66000000D03*
D20*
X147250000Y-39450000D03*
D19*
X177750000Y-74250000D03*
X145000000Y-84000000D03*
X193500000Y-39000000D03*
X175800000Y-58800000D03*
X168300000Y-57450000D03*
X162270000Y-58480000D03*
X192500000Y-51250000D03*
X185050000Y-46280000D03*
X188450000Y-64800000D03*
X173150000Y-38850000D03*
X147000000Y-65750000D03*
X186634267Y-50384267D03*
X179400000Y-62600000D03*
X136500000Y-61000000D03*
X194000000Y-65950000D03*
X156000000Y-64500000D03*
X139750000Y-74000000D03*
X143500000Y-65750000D03*
X188000000Y-40000000D03*
X156500000Y-54750000D03*
X144500000Y-49500000D03*
X170350000Y-72700000D03*
X136500000Y-58500000D03*
X159000000Y-82250000D03*
X174500000Y-80000000D03*
X144500000Y-52000000D03*
X136500000Y-56000000D03*
X169000000Y-73750000D03*
X184750000Y-74250000D03*
X152000000Y-39000000D03*
X182500000Y-84000000D03*
X181250000Y-77250000D03*
X141750000Y-68750000D03*
X136500000Y-52000000D03*
X188000000Y-84000000D03*
X159750000Y-71750000D03*
X156000000Y-60500000D03*
X148750000Y-42250000D03*
X147000000Y-84000000D03*
X162825000Y-67300000D03*
X139500000Y-44250000D03*
X161500000Y-82250000D03*
X143000000Y-84000000D03*
X195500000Y-62000000D03*
X163000000Y-63250000D03*
X181250000Y-68250000D03*
X194250000Y-71250000D03*
X195080000Y-78610000D03*
X197000000Y-51000000D03*
X191700000Y-64050000D03*
X156500000Y-82250000D03*
X162500000Y-55250000D03*
X195500000Y-57250000D03*
X168000000Y-78750000D03*
X193500000Y-41750000D03*
X164500000Y-64750000D03*
X193250000Y-78500000D03*
X136500000Y-81500000D03*
X166650000Y-69500000D03*
X160225000Y-76850000D03*
X168300000Y-59500000D03*
X184500000Y-68250000D03*
X174000000Y-82250000D03*
X153750000Y-54750000D03*
X161000000Y-64500000D03*
X139500000Y-47000000D03*
X148750000Y-40500000D03*
X147250000Y-49500000D03*
X196000000Y-41000000D03*
X197000000Y-71000000D03*
X149750000Y-56750000D03*
X157000000Y-80250000D03*
X154500000Y-39000000D03*
X183250000Y-80000000D03*
X154750000Y-49250000D03*
X169000000Y-82250000D03*
X184750000Y-71250000D03*
X163731000Y-75750000D03*
X162025000Y-53975000D03*
X161500000Y-75500000D03*
X173250000Y-41250000D03*
X154000000Y-82250000D03*
X183750000Y-63800000D03*
X191000000Y-80000000D03*
X169750000Y-77000000D03*
X191000000Y-82000000D03*
X175750000Y-52500000D03*
X136500000Y-42000000D03*
X170000000Y-84000000D03*
X176750000Y-57450000D03*
X166500000Y-56500000D03*
X164500000Y-39000000D03*
X154750000Y-46750000D03*
X152500000Y-84000000D03*
X148750000Y-47750000D03*
X177750000Y-68250000D03*
X181500000Y-82250000D03*
X145000000Y-79000000D03*
X160500000Y-49250000D03*
X179750000Y-50250000D03*
X136500000Y-79000000D03*
X146750000Y-77000000D03*
X139500000Y-49500000D03*
X172500000Y-84000000D03*
X197000000Y-56000000D03*
X159250000Y-54750000D03*
D20*
X147250000Y-41000000D03*
D19*
X185000000Y-78250000D03*
X195250000Y-65000000D03*
X197000000Y-63500000D03*
X157000000Y-74750000D03*
X189000000Y-79000000D03*
X143250000Y-81250000D03*
X152250000Y-56750000D03*
X185150000Y-39100000D03*
X136500000Y-71000000D03*
X197000000Y-42500000D03*
X189250000Y-83000000D03*
X159725000Y-73325000D03*
X165000000Y-84000000D03*
X189750000Y-53500000D03*
X171500000Y-82250000D03*
X150500000Y-45000000D03*
X180000000Y-84000000D03*
X149050000Y-52150000D03*
X139500000Y-42000000D03*
X139500000Y-57500000D03*
X190500000Y-46750000D03*
X195500000Y-52250000D03*
X188000000Y-75000000D03*
X163000000Y-49250000D03*
X151500000Y-59000000D03*
X176000000Y-67000000D03*
D20*
X147250000Y-45500000D03*
D19*
X193250000Y-67500000D03*
X160750000Y-57000000D03*
X197000000Y-53500000D03*
X160200000Y-52250000D03*
X139500000Y-52000000D03*
X162000000Y-77500000D03*
X185250000Y-48750000D03*
X173550000Y-51000000D03*
X157500000Y-84000000D03*
X145250000Y-63000000D03*
X175750000Y-40000000D03*
X159250000Y-75500000D03*
X197000000Y-58500000D03*
X180550000Y-52800000D03*
X164500000Y-79000000D03*
X157000000Y-61750000D03*
X180460000Y-54440000D03*
X164000000Y-82250000D03*
X184000000Y-82250000D03*
X166500000Y-60500000D03*
X183087500Y-64262500D03*
X170000000Y-53500000D03*
X195250000Y-67250000D03*
X155000000Y-84000000D03*
X172500000Y-64500000D03*
D20*
X147250000Y-47050000D03*
D19*
X167250000Y-45750000D03*
X167350000Y-38900000D03*
X136500000Y-47000000D03*
X151000000Y-75500000D03*
X143750000Y-71250000D03*
X155250000Y-74250000D03*
X157500000Y-49250000D03*
D20*
X147250000Y-44000000D03*
D19*
X173500000Y-52750000D03*
X191000000Y-84000000D03*
X158750000Y-66750000D03*
X155550000Y-80650000D03*
X145750000Y-74250000D03*
X165750000Y-66500000D03*
X166250000Y-77500000D03*
X159750000Y-69750000D03*
X167750000Y-75750000D03*
X136500000Y-74000000D03*
X177750000Y-77250000D03*
X168300000Y-61800000D03*
X190500000Y-41000000D03*
X163000000Y-40750000D03*
X168300000Y-55250000D03*
X169500000Y-63500000D03*
X178680000Y-46270000D03*
X188550000Y-67400000D03*
X192250000Y-54500000D03*
X136500000Y-66000000D03*
X185000000Y-84000000D03*
X197000000Y-48500000D03*
%TO.N,+3.3V*%
X189500000Y-64750000D03*
X176300000Y-42250000D03*
X186400000Y-52400000D03*
X190400000Y-49650000D03*
X194000000Y-63500000D03*
X188050000Y-42250000D03*
X185090000Y-66330000D03*
X181650000Y-52300000D03*
X178599000Y-54810000D03*
%TO.N,ANALOGREF*%
X175825000Y-65575000D03*
X171550000Y-66400000D03*
X166925000Y-68450000D03*
X164225000Y-61125000D03*
%TO.N,ELECTRODE_ADC1*%
X170700000Y-68595200D03*
X174300000Y-68200000D03*
%TO.N,Net-(U8B-+)*%
X175600000Y-71375000D03*
X171775000Y-71375000D03*
%TO.N,RESET*%
X179600000Y-58096000D03*
X174250000Y-45500000D03*
%TO.N,BOOT*%
X179600000Y-57343597D03*
X188150000Y-46200000D03*
%TO.N,Net-(D1-A)*%
X172950000Y-55450000D03*
X177000000Y-62400000D03*
%TO.N,Net-(D2-A)*%
X172900000Y-57650000D03*
X176865407Y-63140266D03*
%TO.N,Net-(D3-A)*%
X172900000Y-59750000D03*
X176840985Y-63899320D03*
%TO.N,Net-(D4-A)*%
X176756400Y-64646953D03*
X172900000Y-61850000D03*
%TO.N,Net-(J5-CC2)*%
X183100000Y-41100000D03*
%TO.N,Net-(J5-CC1)*%
X184250000Y-41100000D03*
%TO.N,RLDIN1*%
X153000000Y-62800000D03*
X153000000Y-60400000D03*
%TO.N,VREF*%
X160150000Y-62475000D03*
X159900000Y-80625000D03*
X164425000Y-72850000D03*
%TD*%
D21*
%TO.N,Net-(C1-Pad2)*%
X154125000Y-70075000D02*
X152125000Y-70075000D01*
X152125000Y-70075000D02*
X152100000Y-70100000D01*
D22*
%TO.N,BATTERY_SENSE*%
X164400000Y-50200000D02*
X164400000Y-45600000D01*
X176835000Y-59035000D02*
X174600000Y-56800000D01*
X174600000Y-54800000D02*
X172200000Y-52400000D01*
X166600000Y-52400000D02*
X164400000Y-50200000D01*
X177802500Y-59035000D02*
X176835000Y-59035000D01*
X174600000Y-56800000D02*
X174600000Y-54800000D01*
X167400000Y-52400000D02*
X166600000Y-52400000D01*
D23*
X178367500Y-59600000D02*
X179396000Y-59600000D01*
D22*
X164400000Y-45600000D02*
X163600000Y-44800000D01*
X178367500Y-59600000D02*
X177802500Y-59035000D01*
X172200000Y-52400000D02*
X167400000Y-52400000D01*
D23*
X179396000Y-59600000D02*
X179400000Y-59604000D01*
D22*
%TO.N,GND*%
X180440000Y-54440000D02*
X179647500Y-55232500D01*
D24*
X181600000Y-40182500D02*
X181600000Y-39300000D01*
D25*
X184250000Y-39100000D02*
X185150000Y-39100000D01*
D24*
X179950000Y-39237500D02*
X181537500Y-39237500D01*
D25*
X183100000Y-39100000D02*
X182300000Y-39100000D01*
D24*
X181537500Y-39237500D02*
X181600000Y-39300000D01*
D22*
X177232500Y-59600000D02*
X176600000Y-59600000D01*
X176600000Y-59600000D02*
X175800000Y-58800000D01*
X179647500Y-55232500D02*
X179550000Y-55232500D01*
X180460000Y-54440000D02*
X180440000Y-54440000D01*
D23*
X177682500Y-58150000D02*
X176750000Y-58150000D01*
D21*
%TO.N,+3.3V*%
X189500000Y-65560000D02*
X189390000Y-65670000D01*
X178599000Y-53000585D02*
X179869585Y-51730000D01*
X178599000Y-54810000D02*
X178599000Y-53000585D01*
X189507400Y-64757400D02*
X189500000Y-64750000D01*
X181080000Y-42800000D02*
X181080000Y-51730000D01*
X190400000Y-49650000D02*
X192950000Y-47100000D01*
X189390000Y-65670000D02*
X188730000Y-66330000D01*
X191950000Y-42250000D02*
X188050000Y-42250000D01*
X192950000Y-43250000D02*
X191950000Y-42250000D01*
X192742600Y-64757400D02*
X189507400Y-64757400D01*
X181080000Y-42800000D02*
X187500000Y-42800000D01*
X194000000Y-63500000D02*
X192742600Y-64757400D01*
X192950000Y-47100000D02*
X192950000Y-43250000D01*
X189500000Y-64750000D02*
X189500000Y-65560000D01*
X188350000Y-49650000D02*
X186400000Y-51600000D01*
X176850000Y-42800000D02*
X181080000Y-42800000D01*
X188730000Y-66330000D02*
X185090000Y-66330000D01*
X190400000Y-49650000D02*
X188350000Y-49650000D01*
X176300000Y-42250000D02*
X176850000Y-42800000D01*
X186400000Y-51600000D02*
X186400000Y-52400000D01*
X187500000Y-42800000D02*
X188050000Y-42250000D01*
X181080000Y-51730000D02*
X181650000Y-52300000D01*
X179869585Y-51730000D02*
X181080000Y-51730000D01*
%TO.N,ANALOGREF*%
X164225000Y-61125000D02*
X166925000Y-63825000D01*
X175825000Y-65575000D02*
X175550000Y-65850000D01*
X172100000Y-65850000D02*
X171550000Y-66400000D01*
X166925000Y-63825000D02*
X167800000Y-64700000D01*
X167800000Y-67575000D02*
X166925000Y-68450000D01*
X171550000Y-66400000D02*
X169850000Y-64700000D01*
X175550000Y-65850000D02*
X172100000Y-65850000D01*
X169850000Y-64700000D02*
X167800000Y-64700000D01*
X167800000Y-64700000D02*
X167800000Y-67575000D01*
D24*
%TO.N,ELECTRODE_ADC1*%
X174100000Y-68000000D02*
X174300000Y-68200000D01*
X170700000Y-68595200D02*
X171295200Y-68000000D01*
X171295200Y-68000000D02*
X174100000Y-68000000D01*
D26*
%TO.N,Net-(U8B-+)*%
X171775000Y-71375000D02*
X175600000Y-71375000D01*
D22*
%TO.N,RESET*%
X173540000Y-46210000D02*
X174250000Y-45500000D01*
D23*
X179546000Y-58150000D02*
X179600000Y-58096000D01*
D22*
X174250000Y-45500000D02*
X174300000Y-45450000D01*
X178817500Y-58150000D02*
X178045000Y-57377500D01*
X173540000Y-48750000D02*
X173540000Y-46210000D01*
X178045000Y-57377500D02*
X178045000Y-50845000D01*
D23*
X178817500Y-58150000D02*
X179546000Y-58150000D01*
D22*
X175950000Y-48750000D02*
X173540000Y-48750000D01*
X178045000Y-50845000D02*
X175950000Y-48750000D01*
%TO.N,BOOT*%
X179600000Y-57343597D02*
X179550000Y-57293597D01*
D24*
X179550000Y-56367500D02*
X188150000Y-47767500D01*
D22*
X179550000Y-57293597D02*
X179550000Y-56617500D01*
D24*
X188150000Y-47767500D02*
X188150000Y-46200000D01*
%TO.N,Earth*%
X181717500Y-41317500D02*
X182300000Y-41900000D01*
X181600000Y-41317500D02*
X181717500Y-41317500D01*
X179950000Y-41062500D02*
X180787500Y-41062500D01*
X177530000Y-40330000D02*
X178300000Y-41100000D01*
X178300000Y-41100000D02*
X179912500Y-41100000D01*
X182300000Y-41900000D02*
X184600000Y-41900000D01*
X180800000Y-41050000D02*
X181067500Y-41317500D01*
X179912500Y-41100000D02*
X179950000Y-41062500D01*
X180787500Y-41062500D02*
X180800000Y-41050000D01*
X181067500Y-41317500D02*
X181600000Y-41317500D01*
X184600000Y-41900000D02*
X186170000Y-40330000D01*
D22*
%TO.N,Net-(D1-A)*%
X172950000Y-55450000D02*
X173750000Y-56250000D01*
X173750000Y-57650000D02*
X177000000Y-60900000D01*
X177000000Y-60900000D02*
X177000000Y-62400000D01*
X173750000Y-56250000D02*
X173750000Y-57650000D01*
%TO.N,Net-(D2-A)*%
X176445000Y-61245000D02*
X176445000Y-62629889D01*
X173050000Y-57850000D02*
X176445000Y-61245000D01*
X176865407Y-62955000D02*
X176865407Y-63140266D01*
X176445000Y-62629889D02*
X176770111Y-62955000D01*
X176770111Y-62955000D02*
X176865407Y-62955000D01*
X172900000Y-57650000D02*
X173050000Y-57800000D01*
X173050000Y-57800000D02*
X173050000Y-57850000D01*
%TO.N,Net-(D3-A)*%
X172900000Y-59750000D02*
X174150000Y-59750000D01*
X176000000Y-61600000D02*
X176000000Y-63058335D01*
X174150000Y-59750000D02*
X176000000Y-61600000D01*
X176000000Y-63058335D02*
X176840985Y-63899320D01*
%TO.N,Net-(D4-A)*%
X175550000Y-63440553D02*
X175550000Y-62100000D01*
X176756400Y-64646953D02*
X175550000Y-63440553D01*
X175300000Y-61850000D02*
X172900000Y-61850000D01*
X175550000Y-62100000D02*
X175300000Y-61850000D01*
D25*
%TO.N,Net-(J5-CC2)*%
X183100000Y-40295000D02*
X183100000Y-41100000D01*
%TO.N,Net-(J5-CC1)*%
X184250000Y-40295000D02*
X184250000Y-41100000D01*
D23*
%TO.N,RLDIN1*%
X153000000Y-60400000D02*
X153000000Y-62800000D01*
D21*
%TO.N,VREF*%
X164425000Y-76800000D02*
X160600000Y-80625000D01*
X164425000Y-72850000D02*
X164425000Y-76800000D01*
X164425000Y-72850000D02*
X164425000Y-66750000D01*
X160600000Y-80625000D02*
X159900000Y-80625000D01*
X164425000Y-66750000D02*
X160150000Y-62475000D01*
%TD*%
M02*
