%TF.GenerationSoftware,KiCad,Pcbnew,9.0.6*%
%TF.CreationDate,2026-05-28T00:57:37+03:00*%
%TF.ProjectId,STM32WB55_Gesture,53544d33-3257-4423-9535-5f4765737475,rev?*%
%TF.SameCoordinates,Original*%
%TF.FileFunction,Paste,Top*%
%TF.FilePolarity,Positive*%
%FSLAX46Y46*%
G04 Gerber Fmt 4.6, Leading zero omitted, Abs format (unit mm)*
G04 Created by KiCad (PCBNEW 9.0.6) date 2026-05-28 00:57:37*
%MOMM*%
%LPD*%
G01*
G04 APERTURE LIST*
G04 Aperture macros list*
%AMRoundRect*
0 Rectangle with rounded corners*
0 $1 Rounding radius*
0 $2 $3 $4 $5 $6 $7 $8 $9 X,Y pos of 4 corners*
0 Add a 4 corners polygon primitive as box body*
4,1,4,$2,$3,$4,$5,$6,$7,$8,$9,$2,$3,0*
0 Add four circle primitives for the rounded corners*
1,1,$1+$1,$2,$3*
1,1,$1+$1,$4,$5*
1,1,$1+$1,$6,$7*
1,1,$1+$1,$8,$9*
0 Add four rect primitives between the rounded corners*
20,1,$1+$1,$2,$3,$4,$5,0*
20,1,$1+$1,$4,$5,$6,$7,0*
20,1,$1+$1,$6,$7,$8,$9,0*
20,1,$1+$1,$8,$9,$2,$3,0*%
G04 Aperture macros list end*
%ADD10RoundRect,0.250000X-1.150000X-0.250000X1.150000X-0.250000X1.150000X0.250000X-1.150000X0.250000X0*%
%ADD11RoundRect,0.237500X-0.300000X-0.237500X0.300000X-0.237500X0.300000X0.237500X-0.300000X0.237500X0*%
%ADD12RoundRect,0.155000X0.155000X-0.212500X0.155000X0.212500X-0.155000X0.212500X-0.155000X-0.212500X0*%
%ADD13RoundRect,0.160000X-0.160000X0.197500X-0.160000X-0.197500X0.160000X-0.197500X0.160000X0.197500X0*%
%ADD14RoundRect,0.155000X-0.155000X0.212500X-0.155000X-0.212500X0.155000X-0.212500X0.155000X0.212500X0*%
%ADD15RoundRect,0.155000X0.212500X0.155000X-0.212500X0.155000X-0.212500X-0.155000X0.212500X-0.155000X0*%
%ADD16R,2.200000X2.800000*%
%ADD17R,2.800000X2.800000*%
%ADD18RoundRect,0.090000X0.090000X-0.139000X0.090000X0.139000X-0.090000X0.139000X-0.090000X-0.139000X0*%
%ADD19RoundRect,0.160000X0.197500X0.160000X-0.197500X0.160000X-0.197500X-0.160000X0.197500X-0.160000X0*%
%ADD20RoundRect,0.160000X-0.197500X-0.160000X0.197500X-0.160000X0.197500X0.160000X-0.197500X0.160000X0*%
%ADD21RoundRect,0.160000X0.222500X0.160000X-0.222500X0.160000X-0.222500X-0.160000X0.222500X-0.160000X0*%
%ADD22RoundRect,0.200000X0.200000X-0.250000X0.200000X0.250000X-0.200000X0.250000X-0.200000X-0.250000X0*%
%ADD23RoundRect,0.237500X-0.237500X0.300000X-0.237500X-0.300000X0.237500X-0.300000X0.237500X0.300000X0*%
%ADD24RoundRect,0.200000X0.250000X0.200000X-0.250000X0.200000X-0.250000X-0.200000X0.250000X-0.200000X0*%
%ADD25RoundRect,0.090000X0.139000X0.090000X-0.139000X0.090000X-0.139000X-0.090000X0.139000X-0.090000X0*%
%ADD26RoundRect,0.162500X-0.617500X-0.162500X0.617500X-0.162500X0.617500X0.162500X-0.617500X0.162500X0*%
%ADD27RoundRect,0.125000X-0.687500X-0.125000X0.687500X-0.125000X0.687500X0.125000X-0.687500X0.125000X0*%
%ADD28R,0.600000X1.050000*%
%ADD29R,0.300000X1.240000*%
%ADD30R,0.500000X1.045000*%
%ADD31RoundRect,0.237500X0.300000X0.237500X-0.300000X0.237500X-0.300000X-0.237500X0.300000X-0.237500X0*%
%ADD32RoundRect,0.147500X0.172500X-0.147500X0.172500X0.147500X-0.172500X0.147500X-0.172500X-0.147500X0*%
%ADD33RoundRect,0.237500X-0.287500X-0.237500X0.287500X-0.237500X0.287500X0.237500X-0.287500X0.237500X0*%
%ADD34RoundRect,0.147500X-0.147500X-0.172500X0.147500X-0.172500X0.147500X0.172500X-0.147500X0.172500X0*%
%ADD35R,1.600000X0.800000*%
%ADD36RoundRect,0.155000X-0.212500X-0.155000X0.212500X-0.155000X0.212500X0.155000X-0.212500X0.155000X0*%
%ADD37RoundRect,0.237500X0.237500X-0.300000X0.237500X0.300000X-0.237500X0.300000X-0.237500X-0.300000X0*%
%ADD38RoundRect,0.250000X-0.325000X-0.450000X0.325000X-0.450000X0.325000X0.450000X-0.325000X0.450000X0*%
%ADD39RoundRect,0.150000X0.150000X-0.825000X0.150000X0.825000X-0.150000X0.825000X-0.150000X-0.825000X0*%
%ADD40RoundRect,0.150000X0.825000X0.150000X-0.825000X0.150000X-0.825000X-0.150000X0.825000X-0.150000X0*%
%ADD41RoundRect,0.160000X0.160000X-0.197500X0.160000X0.197500X-0.160000X0.197500X-0.160000X-0.197500X0*%
%ADD42RoundRect,0.237500X0.237500X-0.287500X0.237500X0.287500X-0.237500X0.287500X-0.237500X-0.287500X0*%
%ADD43RoundRect,0.249999X-0.395001X-0.395001X0.395001X-0.395001X0.395001X0.395001X-0.395001X0.395001X0*%
%ADD44RoundRect,0.062500X-0.400000X-0.062500X0.400000X-0.062500X0.400000X0.062500X-0.400000X0.062500X0*%
%ADD45RoundRect,0.062500X-0.062500X-0.400000X0.062500X-0.400000X0.062500X0.400000X-0.062500X0.400000X0*%
%ADD46RoundRect,0.150000X-0.150000X0.512500X-0.150000X-0.512500X0.150000X-0.512500X0.150000X0.512500X0*%
%ADD47RoundRect,0.237500X-0.237500X0.287500X-0.237500X-0.287500X0.237500X-0.287500X0.237500X0.287500X0*%
%ADD48RoundRect,0.140000X-0.170000X0.140000X-0.170000X-0.140000X0.170000X-0.140000X0.170000X0.140000X0*%
%ADD49R,0.275000X0.700000*%
%ADD50R,0.450000X0.245000*%
G04 APERTURE END LIST*
D10*
%TO.C,SW1*%
X167350000Y-40000000D03*
X173150000Y-40000000D03*
X167350000Y-44000000D03*
X173150000Y-44000000D03*
%TD*%
D11*
%TO.C,C14*%
X183087500Y-65200000D03*
X184812500Y-65200000D03*
%TD*%
D12*
%TO.C,C18*%
X189900000Y-57667500D03*
X189900000Y-56532500D03*
%TD*%
D13*
%TO.C,R17*%
X174450000Y-76652500D03*
X174450000Y-77847500D03*
%TD*%
D14*
%TO.C,C31*%
X169850000Y-67565000D03*
X169850000Y-68700000D03*
%TD*%
D13*
%TO.C,R8*%
X154780000Y-68872500D03*
X154780000Y-70067500D03*
%TD*%
D15*
%TO.C,C10*%
X164217500Y-59530000D03*
X163082500Y-59530000D03*
%TD*%
D12*
%TO.C,C30*%
X176550000Y-77817500D03*
X176550000Y-76682500D03*
%TD*%
D16*
%TO.C,J1*%
X142430000Y-57770000D03*
X140430000Y-65170000D03*
D17*
X149830000Y-65170000D03*
%TD*%
D13*
%TO.C,R7*%
X155975000Y-68920000D03*
X155975000Y-70115000D03*
%TD*%
D18*
%TO.C,L5*%
X186750000Y-66582500D03*
X186750000Y-65717500D03*
%TD*%
D19*
%TO.C,R16*%
X173365000Y-77750000D03*
X172170000Y-77750000D03*
%TD*%
D14*
%TO.C,C21*%
X179370000Y-60600000D03*
X179370000Y-61735000D03*
%TD*%
D20*
%TO.C,R13*%
X155477500Y-77280000D03*
X156672500Y-77280000D03*
%TD*%
D21*
%TO.C,L3*%
X191172500Y-59000000D03*
X190027500Y-59000000D03*
%TD*%
D22*
%TO.C,Y2*%
X176250000Y-56300000D03*
X176250000Y-54900000D03*
X175150000Y-54900000D03*
X175150000Y-56300000D03*
%TD*%
D23*
%TO.C,C23*%
X192250000Y-55687500D03*
X192250000Y-57412500D03*
%TD*%
D14*
%TO.C,C35*%
X177650000Y-53982500D03*
X177650000Y-55117500D03*
%TD*%
D24*
%TO.C,Y1*%
X193100000Y-64850000D03*
X191700000Y-64850000D03*
X191700000Y-65950000D03*
X193100000Y-65950000D03*
%TD*%
D25*
%TO.C,C38*%
X187615000Y-67400000D03*
X186750000Y-67400000D03*
%TD*%
D26*
%TO.C,U6*%
X155000000Y-51150000D03*
X155000000Y-52100000D03*
X155000000Y-53050000D03*
X157700000Y-53050000D03*
X157700000Y-51150000D03*
%TD*%
D13*
%TO.C,R14*%
X153830000Y-65172500D03*
X153830000Y-66367500D03*
%TD*%
D12*
%TO.C,C13*%
X159350000Y-52235000D03*
X159350000Y-51100000D03*
%TD*%
D15*
%TO.C,C22*%
X186435000Y-53200000D03*
X185300000Y-53200000D03*
%TD*%
D20*
%TO.C,R19*%
X179202500Y-63700000D03*
X180397500Y-63700000D03*
%TD*%
D27*
%TO.C,U2*%
X154417500Y-60495000D03*
X154417500Y-61145000D03*
X154417500Y-61795000D03*
X154417500Y-62445000D03*
X158642500Y-62445000D03*
X158642500Y-61795000D03*
X158642500Y-61145000D03*
X158642500Y-60495000D03*
%TD*%
D28*
%TO.C,J5*%
X185050000Y-45230000D03*
D29*
X183100000Y-45130000D03*
X182100000Y-45130000D03*
X181600000Y-45130000D03*
X180600000Y-45130000D03*
D28*
X178650000Y-45230000D03*
X178650000Y-45230000D03*
D30*
X179500000Y-45227500D03*
D29*
X180100000Y-45130000D03*
X181100000Y-45130000D03*
X182600000Y-45130000D03*
X183600000Y-45130000D03*
D30*
X184200000Y-45227500D03*
D28*
X185050000Y-45230000D03*
%TD*%
D12*
%TO.C,C20*%
X178250000Y-61725000D03*
X178250000Y-60590000D03*
%TD*%
D31*
%TO.C,C3*%
X152012500Y-42075000D03*
X150287500Y-42075000D03*
%TD*%
D15*
%TO.C,C12*%
X158897500Y-73320000D03*
X157762500Y-73320000D03*
%TD*%
D32*
%TO.C,L7*%
X196790000Y-80265000D03*
X196790000Y-79295000D03*
%TD*%
D14*
%TO.C,C29*%
X175500000Y-76682500D03*
X175500000Y-77817500D03*
%TD*%
D33*
%TO.C,L1*%
X150262500Y-48925000D03*
X152012500Y-48925000D03*
%TD*%
D34*
%TO.C,L6*%
X195815000Y-78610000D03*
X196785000Y-78610000D03*
%TD*%
D14*
%TO.C,C26*%
X160230000Y-77702500D03*
X160230000Y-78837500D03*
%TD*%
D25*
%TO.C,C37*%
X187565000Y-64800000D03*
X186700000Y-64800000D03*
%TD*%
D20*
%TO.C,R5*%
X164675000Y-69515000D03*
X165870000Y-69515000D03*
%TD*%
D35*
%TO.C,ANT1*%
X196790000Y-81000000D03*
X196790000Y-84400000D03*
%TD*%
D13*
%TO.C,R12*%
X157830000Y-76122500D03*
X157830000Y-77317500D03*
%TD*%
D14*
%TO.C,C11*%
X160230000Y-59852500D03*
X160230000Y-60987500D03*
%TD*%
D20*
%TO.C,R11*%
X155532500Y-76230000D03*
X156727500Y-76230000D03*
%TD*%
%TO.C,R2*%
X154782500Y-57970000D03*
X155977500Y-57970000D03*
%TD*%
D12*
%TO.C,C36*%
X177650000Y-57417500D03*
X177650000Y-56282500D03*
%TD*%
D20*
%TO.C,R1*%
X154735000Y-59070000D03*
X155930000Y-59070000D03*
%TD*%
D13*
%TO.C,R18*%
X175700000Y-43652500D03*
X175700000Y-44847500D03*
%TD*%
D36*
%TO.C,C9*%
X163115000Y-58480000D03*
X164250000Y-58480000D03*
%TD*%
D15*
%TO.C,C32*%
X170357500Y-70860000D03*
X169222500Y-70860000D03*
%TD*%
D36*
%TO.C,C33*%
X169222500Y-71910000D03*
X170357500Y-71910000D03*
%TD*%
%TO.C,C8*%
X162982500Y-53980000D03*
X164117500Y-53980000D03*
%TD*%
D37*
%TO.C,C25*%
X190700000Y-62225000D03*
X190700000Y-60500000D03*
%TD*%
D13*
%TO.C,R25*%
X188100000Y-44102500D03*
X188100000Y-45297500D03*
%TD*%
D19*
%TO.C,R6*%
X151092500Y-70125000D03*
X149897500Y-70125000D03*
%TD*%
D38*
%TO.C,D4*%
X169525000Y-61750000D03*
X171575000Y-61750000D03*
%TD*%
D20*
%TO.C,R23*%
X179212500Y-65850000D03*
X180407500Y-65850000D03*
%TD*%
D39*
%TO.C,U8*%
X171795000Y-74825000D03*
X173065000Y-74825000D03*
X174335000Y-74825000D03*
X175605000Y-74825000D03*
X175605000Y-69875000D03*
X174335000Y-69875000D03*
X173065000Y-69875000D03*
X171795000Y-69875000D03*
%TD*%
D33*
%TO.C,D5*%
X150250000Y-40400000D03*
X152000000Y-40400000D03*
%TD*%
D15*
%TO.C,C17*%
X188567500Y-63850000D03*
X187432500Y-63850000D03*
%TD*%
D20*
%TO.C,R22*%
X179212500Y-64795000D03*
X180407500Y-64795000D03*
%TD*%
D13*
%TO.C,R3*%
X157130000Y-57872500D03*
X157130000Y-59067500D03*
%TD*%
D38*
%TO.C,D3*%
X169547500Y-59505000D03*
X171597500Y-59505000D03*
%TD*%
D40*
%TO.C,U4*%
X162805000Y-72025000D03*
X162805000Y-70755000D03*
X162805000Y-69485000D03*
X162805000Y-68215000D03*
X157855000Y-68215000D03*
X157855000Y-69485000D03*
X157855000Y-70755000D03*
X157855000Y-72025000D03*
%TD*%
D15*
%TO.C,C27*%
X173317500Y-76700000D03*
X172182500Y-76700000D03*
%TD*%
D27*
%TO.C,U7*%
X154267500Y-78695000D03*
X154267500Y-79345000D03*
X154267500Y-79995000D03*
X154267500Y-80645000D03*
X158492500Y-80645000D03*
X158492500Y-79995000D03*
X158492500Y-79345000D03*
X158492500Y-78695000D03*
%TD*%
D10*
%TO.C,SW2*%
X190500000Y-40000000D03*
X196300000Y-40000000D03*
X190500000Y-44000000D03*
X196300000Y-44000000D03*
%TD*%
D20*
%TO.C,R9*%
X162402500Y-42750000D03*
X163597500Y-42750000D03*
%TD*%
D12*
%TO.C,C7*%
X153387500Y-51985000D03*
X153387500Y-50850000D03*
%TD*%
D41*
%TO.C,R20*%
X168800000Y-68697500D03*
X168800000Y-67502500D03*
%TD*%
D38*
%TO.C,D2*%
X169525000Y-57450000D03*
X171575000Y-57450000D03*
%TD*%
D19*
%TO.C,R21*%
X170387500Y-69810000D03*
X169192500Y-69810000D03*
%TD*%
D15*
%TO.C,C24*%
X181700000Y-53500000D03*
X180565000Y-53500000D03*
%TD*%
D20*
%TO.C,R24*%
X179212500Y-66950000D03*
X180407500Y-66950000D03*
%TD*%
D12*
%TO.C,C19*%
X190950000Y-57667500D03*
X190950000Y-56532500D03*
%TD*%
D19*
%TO.C,R10*%
X163547500Y-43850000D03*
X162352500Y-43850000D03*
%TD*%
D12*
%TO.C,C15*%
X179500000Y-55117500D03*
X179500000Y-53982500D03*
%TD*%
D15*
%TO.C,C16*%
X185817500Y-63800000D03*
X184682500Y-63800000D03*
%TD*%
D13*
%TO.C,R15*%
X153830000Y-74372500D03*
X153830000Y-75567500D03*
%TD*%
D15*
%TO.C,C6*%
X152255000Y-47625000D03*
X151120000Y-47625000D03*
%TD*%
D42*
%TO.C,L4*%
X192550000Y-61025000D03*
X192550000Y-59275000D03*
%TD*%
D43*
%TO.C,U1*%
X182250000Y-56250000D03*
X182250000Y-57850000D03*
X182250000Y-59450000D03*
X182250000Y-61050000D03*
X183850000Y-56250000D03*
X183850000Y-57850000D03*
X183850000Y-59450000D03*
X183850000Y-61050000D03*
X185450000Y-56250000D03*
X185450000Y-57850000D03*
X185450000Y-59450000D03*
X185450000Y-61050000D03*
X187050000Y-56250000D03*
X187050000Y-57850000D03*
X187050000Y-59450000D03*
X187050000Y-61050000D03*
D44*
X180762500Y-55450000D03*
X180762500Y-55850000D03*
X180762500Y-56250000D03*
X180762500Y-56650000D03*
X180762500Y-57050000D03*
X180762500Y-57450000D03*
X180762500Y-57850000D03*
X180762500Y-58250000D03*
X180762500Y-58650000D03*
X180762500Y-59050000D03*
X180762500Y-59450000D03*
X180762500Y-59850000D03*
X180762500Y-60250000D03*
X180762500Y-60650000D03*
X180762500Y-61050000D03*
X180762500Y-61450000D03*
X180762500Y-61850000D03*
D45*
X181450000Y-62537500D03*
X181850000Y-62537500D03*
X182250000Y-62537500D03*
X182650000Y-62537500D03*
X183050000Y-62537500D03*
X183450000Y-62537500D03*
X183850000Y-62537500D03*
X184250000Y-62537500D03*
X184650000Y-62537500D03*
X185050000Y-62537500D03*
X185450000Y-62537500D03*
X185850000Y-62537500D03*
X186250000Y-62537500D03*
X186650000Y-62537500D03*
X187050000Y-62537500D03*
X187450000Y-62537500D03*
X187850000Y-62537500D03*
D44*
X188537500Y-61850000D03*
X188537500Y-61450000D03*
X188537500Y-61050000D03*
X188537500Y-60650000D03*
X188537500Y-60250000D03*
X188537500Y-59850000D03*
X188537500Y-59450000D03*
X188537500Y-59050000D03*
X188537500Y-58650000D03*
X188537500Y-58250000D03*
X188537500Y-57850000D03*
X188537500Y-57450000D03*
X188537500Y-57050000D03*
X188537500Y-56650000D03*
X188537500Y-56250000D03*
X188537500Y-55850000D03*
X188537500Y-55450000D03*
D45*
X187850000Y-54762500D03*
X187450000Y-54762500D03*
X187050000Y-54762500D03*
X186650000Y-54762500D03*
X186250000Y-54762500D03*
X185850000Y-54762500D03*
X185450000Y-54762500D03*
X185050000Y-54762500D03*
X184650000Y-54762500D03*
X184250000Y-54762500D03*
X183850000Y-54762500D03*
X183450000Y-54762500D03*
X183050000Y-54762500D03*
X182650000Y-54762500D03*
X182250000Y-54762500D03*
X181850000Y-54762500D03*
X181450000Y-54762500D03*
%TD*%
D15*
%TO.C,C1*%
X155942500Y-71175000D03*
X154807500Y-71175000D03*
%TD*%
D46*
%TO.C,U5*%
X152087500Y-43812500D03*
X151137500Y-43812500D03*
X150187500Y-43812500D03*
X150187500Y-46087500D03*
X151137500Y-46087500D03*
X152087500Y-46087500D03*
%TD*%
D15*
%TO.C,C28*%
X172700000Y-68000000D03*
X171565000Y-68000000D03*
%TD*%
D47*
%TO.C,L2*%
X164050000Y-55330000D03*
X164050000Y-57080000D03*
%TD*%
D19*
%TO.C,R4*%
X165872500Y-68415000D03*
X164677500Y-68415000D03*
%TD*%
D11*
%TO.C,C5*%
X150262500Y-52150000D03*
X151987500Y-52150000D03*
%TD*%
D16*
%TO.C,J2*%
X142430000Y-75570000D03*
X140430000Y-82970000D03*
D17*
X149830000Y-82970000D03*
%TD*%
D11*
%TO.C,C4*%
X150262500Y-50600000D03*
X151987500Y-50600000D03*
%TD*%
D48*
%TO.C,C39*%
X196790000Y-77010000D03*
X196790000Y-77970000D03*
%TD*%
D49*
%TO.C,FL1*%
X194268000Y-73547000D03*
D50*
X194880000Y-73774000D03*
D49*
X195493000Y-73547000D03*
D50*
X194880000Y-73320000D03*
%TD*%
D38*
%TO.C,D1*%
X169525000Y-55250000D03*
X171575000Y-55250000D03*
%TD*%
M02*
