%TF.GenerationSoftware,KiCad,Pcbnew,9.0.6*%
%TF.CreationDate,2026-05-28T00:57:37+03:00*%
%TF.ProjectId,STM32WB55_Gesture,53544d33-3257-4423-9535-5f4765737475,rev?*%
%TF.SameCoordinates,Original*%
%TF.FileFunction,Copper,L1,Top*%
%TF.FilePolarity,Positive*%
%FSLAX46Y46*%
G04 Gerber Fmt 4.6, Leading zero omitted, Abs format (unit mm)*
G04 Created by KiCad (PCBNEW 9.0.6) date 2026-05-28 00:57:37*
%MOMM*%
%LPD*%
G01*
G04 APERTURE LIST*
G04 Aperture macros list*
%AMRoundRect*
0 Rectangle with rounded corners*
0 $1 Rounding radius*
0 $2 $3 $4 $5 $6 $7 $8 $9 X,Y pos of 4 corners*
0 Add a 4 corners polygon primitive as box body*
4,1,4,$2,$3,$4,$5,$6,$7,$8,$9,$2,$3,0*
0 Add four circle primitives for the rounded corners*
1,1,$1+$1,$2,$3*
1,1,$1+$1,$4,$5*
1,1,$1+$1,$6,$7*
1,1,$1+$1,$8,$9*
0 Add four rect primitives between the rounded corners*
20,1,$1+$1,$2,$3,$4,$5,0*
20,1,$1+$1,$4,$5,$6,$7,0*
20,1,$1+$1,$6,$7,$8,$9,0*
20,1,$1+$1,$8,$9,$2,$3,0*%
G04 Aperture macros list end*
%TA.AperFunction,SMDPad,CuDef*%
%ADD10RoundRect,0.250000X-1.150000X-0.250000X1.150000X-0.250000X1.150000X0.250000X-1.150000X0.250000X0*%
%TD*%
%TA.AperFunction,SMDPad,CuDef*%
%ADD11RoundRect,0.237500X-0.300000X-0.237500X0.300000X-0.237500X0.300000X0.237500X-0.300000X0.237500X0*%
%TD*%
%TA.AperFunction,SMDPad,CuDef*%
%ADD12RoundRect,0.155000X0.155000X-0.212500X0.155000X0.212500X-0.155000X0.212500X-0.155000X-0.212500X0*%
%TD*%
%TA.AperFunction,SMDPad,CuDef*%
%ADD13RoundRect,0.160000X-0.160000X0.197500X-0.160000X-0.197500X0.160000X-0.197500X0.160000X0.197500X0*%
%TD*%
%TA.AperFunction,SMDPad,CuDef*%
%ADD14RoundRect,0.155000X-0.155000X0.212500X-0.155000X-0.212500X0.155000X-0.212500X0.155000X0.212500X0*%
%TD*%
%TA.AperFunction,SMDPad,CuDef*%
%ADD15RoundRect,0.155000X0.212500X0.155000X-0.212500X0.155000X-0.212500X-0.155000X0.212500X-0.155000X0*%
%TD*%
%TA.AperFunction,SMDPad,CuDef*%
%ADD16R,2.200000X2.800000*%
%TD*%
%TA.AperFunction,SMDPad,CuDef*%
%ADD17R,2.800000X2.800000*%
%TD*%
%TA.AperFunction,SMDPad,CuDef*%
%ADD18RoundRect,0.100000X0.100000X-0.217500X0.100000X0.217500X-0.100000X0.217500X-0.100000X-0.217500X0*%
%TD*%
%TA.AperFunction,SMDPad,CuDef*%
%ADD19RoundRect,0.160000X0.197500X0.160000X-0.197500X0.160000X-0.197500X-0.160000X0.197500X-0.160000X0*%
%TD*%
%TA.AperFunction,SMDPad,CuDef*%
%ADD20RoundRect,0.160000X-0.197500X-0.160000X0.197500X-0.160000X0.197500X0.160000X-0.197500X0.160000X0*%
%TD*%
%TA.AperFunction,SMDPad,CuDef*%
%ADD21RoundRect,0.160000X0.222500X0.160000X-0.222500X0.160000X-0.222500X-0.160000X0.222500X-0.160000X0*%
%TD*%
%TA.AperFunction,SMDPad,CuDef*%
%ADD22RoundRect,0.200000X0.200000X-0.250000X0.200000X0.250000X-0.200000X0.250000X-0.200000X-0.250000X0*%
%TD*%
%TA.AperFunction,SMDPad,CuDef*%
%ADD23RoundRect,0.237500X-0.237500X0.300000X-0.237500X-0.300000X0.237500X-0.300000X0.237500X0.300000X0*%
%TD*%
%TA.AperFunction,SMDPad,CuDef*%
%ADD24RoundRect,0.200000X0.250000X0.200000X-0.250000X0.200000X-0.250000X-0.200000X0.250000X-0.200000X0*%
%TD*%
%TA.AperFunction,SMDPad,CuDef*%
%ADD25RoundRect,0.100000X0.217500X0.100000X-0.217500X0.100000X-0.217500X-0.100000X0.217500X-0.100000X0*%
%TD*%
%TA.AperFunction,SMDPad,CuDef*%
%ADD26RoundRect,0.162500X-0.617500X-0.162500X0.617500X-0.162500X0.617500X0.162500X-0.617500X0.162500X0*%
%TD*%
%TA.AperFunction,SMDPad,CuDef*%
%ADD27RoundRect,0.125000X-0.687500X-0.125000X0.687500X-0.125000X0.687500X0.125000X-0.687500X0.125000X0*%
%TD*%
%TA.AperFunction,SMDPad,CuDef*%
%ADD28R,0.600000X1.050000*%
%TD*%
%TA.AperFunction,SMDPad,CuDef*%
%ADD29R,0.300000X1.240000*%
%TD*%
%TA.AperFunction,SMDPad,CuDef*%
%ADD30R,0.500000X1.045000*%
%TD*%
%TA.AperFunction,HeatsinkPad*%
%ADD31O,1.000000X2.100000*%
%TD*%
%TA.AperFunction,HeatsinkPad*%
%ADD32O,1.000000X1.800000*%
%TD*%
%TA.AperFunction,ComponentPad*%
%ADD33R,1.000000X1.000000*%
%TD*%
%TA.AperFunction,ComponentPad*%
%ADD34C,1.000000*%
%TD*%
%TA.AperFunction,SMDPad,CuDef*%
%ADD35RoundRect,0.237500X0.300000X0.237500X-0.300000X0.237500X-0.300000X-0.237500X0.300000X-0.237500X0*%
%TD*%
%TA.AperFunction,SMDPad,CuDef*%
%ADD36RoundRect,0.147500X0.172500X-0.147500X0.172500X0.147500X-0.172500X0.147500X-0.172500X-0.147500X0*%
%TD*%
%TA.AperFunction,SMDPad,CuDef*%
%ADD37RoundRect,0.237500X-0.287500X-0.237500X0.287500X-0.237500X0.287500X0.237500X-0.287500X0.237500X0*%
%TD*%
%TA.AperFunction,SMDPad,CuDef*%
%ADD38RoundRect,0.147500X-0.147500X-0.172500X0.147500X-0.172500X0.147500X0.172500X-0.147500X0.172500X0*%
%TD*%
%TA.AperFunction,SMDPad,CuDef*%
%ADD39R,1.600000X0.800000*%
%TD*%
%TA.AperFunction,SMDPad,CuDef*%
%ADD40RoundRect,0.155000X-0.212500X-0.155000X0.212500X-0.155000X0.212500X0.155000X-0.212500X0.155000X0*%
%TD*%
%TA.AperFunction,SMDPad,CuDef*%
%ADD41RoundRect,0.237500X0.237500X-0.300000X0.237500X0.300000X-0.237500X0.300000X-0.237500X-0.300000X0*%
%TD*%
%TA.AperFunction,SMDPad,CuDef*%
%ADD42RoundRect,0.250000X-0.325000X-0.450000X0.325000X-0.450000X0.325000X0.450000X-0.325000X0.450000X0*%
%TD*%
%TA.AperFunction,SMDPad,CuDef*%
%ADD43RoundRect,0.150000X0.150000X-0.825000X0.150000X0.825000X-0.150000X0.825000X-0.150000X-0.825000X0*%
%TD*%
%TA.AperFunction,SMDPad,CuDef*%
%ADD44RoundRect,0.150000X0.825000X0.150000X-0.825000X0.150000X-0.825000X-0.150000X0.825000X-0.150000X0*%
%TD*%
%TA.AperFunction,SMDPad,CuDef*%
%ADD45RoundRect,0.160000X0.160000X-0.197500X0.160000X0.197500X-0.160000X0.197500X-0.160000X-0.197500X0*%
%TD*%
%TA.AperFunction,SMDPad,CuDef*%
%ADD46RoundRect,0.237500X0.237500X-0.287500X0.237500X0.287500X-0.237500X0.287500X-0.237500X-0.287500X0*%
%TD*%
%TA.AperFunction,SMDPad,CuDef*%
%ADD47RoundRect,0.062500X-0.400000X-0.062500X0.400000X-0.062500X0.400000X0.062500X-0.400000X0.062500X0*%
%TD*%
%TA.AperFunction,SMDPad,CuDef*%
%ADD48RoundRect,0.062500X-0.062500X-0.400000X0.062500X-0.400000X0.062500X0.400000X-0.062500X0.400000X0*%
%TD*%
%TA.AperFunction,SMDPad,CuDef*%
%ADD49R,6.400000X6.400000*%
%TD*%
%TA.AperFunction,SMDPad,CuDef*%
%ADD50RoundRect,0.150000X-0.150000X0.512500X-0.150000X-0.512500X0.150000X-0.512500X0.150000X0.512500X0*%
%TD*%
%TA.AperFunction,SMDPad,CuDef*%
%ADD51RoundRect,0.237500X-0.237500X0.287500X-0.237500X-0.287500X0.237500X-0.287500X0.237500X0.287500X0*%
%TD*%
%TA.AperFunction,SMDPad,CuDef*%
%ADD52RoundRect,0.140000X-0.170000X0.140000X-0.170000X-0.140000X0.170000X-0.140000X0.170000X0.140000X0*%
%TD*%
%TA.AperFunction,SMDPad,CuDef*%
%ADD53R,0.275000X0.700000*%
%TD*%
%TA.AperFunction,SMDPad,CuDef*%
%ADD54R,0.450000X0.245000*%
%TD*%
%TA.AperFunction,SMDPad,CuDef*%
%ADD55RoundRect,1.250000X1.250000X3.750000X-1.250000X3.750000X-1.250000X-3.750000X1.250000X-3.750000X0*%
%TD*%
%TA.AperFunction,ViaPad*%
%ADD56C,0.600000*%
%TD*%
%TA.AperFunction,ViaPad*%
%ADD57C,0.700000*%
%TD*%
%TA.AperFunction,Conductor*%
%ADD58C,0.508000*%
%TD*%
%TA.AperFunction,Conductor*%
%ADD59C,0.254000*%
%TD*%
%TA.AperFunction,Conductor*%
%ADD60C,0.203200*%
%TD*%
%TA.AperFunction,Conductor*%
%ADD61C,0.381000*%
%TD*%
%TA.AperFunction,Conductor*%
%ADD62C,0.304800*%
%TD*%
%TA.AperFunction,Conductor*%
%ADD63C,0.762000*%
%TD*%
%TA.AperFunction,Conductor*%
%ADD64C,0.349250*%
%TD*%
%TA.AperFunction,Conductor*%
%ADD65C,0.200000*%
%TD*%
G04 APERTURE END LIST*
D10*
%TO.P,SW1,1,1*%
%TO.N,GND*%
X167350000Y-40000000D03*
X173150000Y-40000000D03*
%TO.P,SW1,2,2*%
%TO.N,RESET*%
X167350000Y-44000000D03*
X173150000Y-44000000D03*
%TD*%
D11*
%TO.P,C14,1*%
%TO.N,GND*%
X183087500Y-65200000D03*
%TO.P,C14,2*%
%TO.N,+3.3V*%
X184812500Y-65200000D03*
%TD*%
D12*
%TO.P,C18,1*%
%TO.N,+3.3V*%
X189900000Y-57667500D03*
%TO.P,C18,2*%
%TO.N,GND*%
X189900000Y-56532500D03*
%TD*%
D13*
%TO.P,R17,1*%
%TO.N,Net-(U8A-+)*%
X174450000Y-76652500D03*
%TO.P,R17,2*%
%TO.N,Net-(C27-Pad1)*%
X174450000Y-77847500D03*
%TD*%
D14*
%TO.P,C31,1*%
%TO.N,Net-(C31-Pad1)*%
X169850000Y-67565000D03*
%TO.P,C31,2*%
%TO.N,ELECTRODE_ADC1*%
X169850000Y-68700000D03*
%TD*%
D13*
%TO.P,R8,1*%
%TO.N,RLDIN*%
X154780000Y-68872500D03*
%TO.P,R8,2*%
%TO.N,Net-(C1-Pad2)*%
X154780000Y-70067500D03*
%TD*%
D15*
%TO.P,C10,1*%
%TO.N,ANALOGREF*%
X164217500Y-59530000D03*
%TO.P,C10,2*%
%TO.N,GND*%
X163082500Y-59530000D03*
%TD*%
D12*
%TO.P,C30,1*%
%TO.N,Net-(C29-Pad2)*%
X176550000Y-77817500D03*
%TO.P,C30,2*%
%TO.N,GND*%
X176550000Y-76682500D03*
%TD*%
D16*
%TO.P,J1,R*%
%TO.N,Net-(U2--)*%
X142430000Y-57770000D03*
%TO.P,J1,S*%
%TO.N,RLDOUT*%
X140430000Y-65170000D03*
D17*
%TO.P,J1,T*%
%TO.N,Net-(U2-+)*%
X149830000Y-65170000D03*
%TD*%
D13*
%TO.P,R7,1*%
%TO.N,RLDIN*%
X155975000Y-68920000D03*
%TO.P,R7,2*%
%TO.N,Net-(C1-Pad1)*%
X155975000Y-70115000D03*
%TD*%
D18*
%TO.P,L5,1,1*%
%TO.N,Net-(FL1-IN)*%
X186750000Y-66557500D03*
%TO.P,L5,2,2*%
%TO.N,Net-(U1-RF1)*%
X186750000Y-65742500D03*
%TD*%
D19*
%TO.P,R16,1*%
%TO.N,Net-(C27-Pad1)*%
X173365000Y-77750000D03*
%TO.P,R16,2*%
%TO.N,Net-(R16-Pad2)*%
X172170000Y-77750000D03*
%TD*%
D14*
%TO.P,C21,1*%
%TO.N,ANALOGREF*%
X179370000Y-60600000D03*
%TO.P,C21,2*%
%TO.N,GND*%
X179370000Y-61735000D03*
%TD*%
D20*
%TO.P,R13,1*%
%TO.N,Net-(R11-Pad1)*%
X155477500Y-77280000D03*
%TO.P,R13,2*%
%TO.N,Net-(R12-Pad2)*%
X156672500Y-77280000D03*
%TD*%
D21*
%TO.P,L3,1,1*%
%TO.N,Net-(L3-Pad1)*%
X191172500Y-59000000D03*
%TO.P,L3,2,2*%
%TO.N,Net-(U1-VLXSMPS)*%
X190027500Y-59000000D03*
%TD*%
D22*
%TO.P,Y2,1,1*%
%TO.N,Net-(U1-PC15)*%
X176250000Y-56300000D03*
%TO.P,Y2,2,2*%
%TO.N,N/C*%
X176250000Y-54900000D03*
%TO.P,Y2,3*%
%TO.N,Net-(U1-PC14)*%
X175150000Y-54900000D03*
%TO.P,Y2,4*%
%TO.N,N/C*%
X175150000Y-56300000D03*
%TD*%
D23*
%TO.P,C23,1*%
%TO.N,GND*%
X192250000Y-55687500D03*
%TO.P,C23,2*%
%TO.N,+3.3V*%
X192250000Y-57412500D03*
%TD*%
D14*
%TO.P,C35,1*%
%TO.N,GND*%
X177650000Y-53982500D03*
%TO.P,C35,2*%
%TO.N,Net-(U1-PC14)*%
X177650000Y-55117500D03*
%TD*%
D24*
%TO.P,Y1,1,1*%
%TO.N,Net-(U1-OSC_IN)*%
X193100000Y-64850000D03*
%TO.P,Y1,2,2*%
%TO.N,GND*%
X191700000Y-64850000D03*
%TO.P,Y1,3,3*%
%TO.N,Net-(U1-OSC_OUT)*%
X191700000Y-65950000D03*
%TO.P,Y1,4,4*%
%TO.N,GND*%
X193100000Y-65950000D03*
%TD*%
D25*
%TO.P,C38,1*%
%TO.N,GND*%
X187590000Y-67400000D03*
%TO.P,C38,2*%
%TO.N,Net-(FL1-IN)*%
X186775000Y-67400000D03*
%TD*%
D26*
%TO.P,U6,1,IN*%
%TO.N,+5V*%
X155000000Y-51150000D03*
%TO.P,U6,2,GND*%
%TO.N,GND*%
X155000000Y-52100000D03*
%TO.P,U6,3,EN*%
%TO.N,+5V*%
X155000000Y-53050000D03*
%TO.P,U6,4,NC*%
%TO.N,unconnected-(U6-NC-Pad4)*%
X157700000Y-53050000D03*
%TO.P,U6,5,OUT*%
%TO.N,+3.3V*%
X157700000Y-51150000D03*
%TD*%
D13*
%TO.P,R14,1*%
%TO.N,RLDIN1*%
X153830000Y-65172500D03*
%TO.P,R14,2*%
%TO.N,RLDIN*%
X153830000Y-66367500D03*
%TD*%
D12*
%TO.P,C13,1*%
%TO.N,GND*%
X159350000Y-52235000D03*
%TO.P,C13,2*%
%TO.N,+3.3V*%
X159350000Y-51100000D03*
%TD*%
D15*
%TO.P,C22,1*%
%TO.N,+3.3V*%
X186435000Y-53200000D03*
%TO.P,C22,2*%
%TO.N,GND*%
X185300000Y-53200000D03*
%TD*%
D20*
%TO.P,R19,1*%
%TO.N,Net-(D1-A)*%
X179202500Y-63700000D03*
%TO.P,R19,2*%
%TO.N,Net-(U1-PA3)*%
X180397500Y-63700000D03*
%TD*%
D27*
%TO.P,U2,1,Rg*%
%TO.N,Net-(R1-Pad1)*%
X154417500Y-60495000D03*
%TO.P,U2,2,-*%
%TO.N,Net-(U2--)*%
X154417500Y-61145000D03*
%TO.P,U2,3,+*%
%TO.N,Net-(U2-+)*%
X154417500Y-61795000D03*
%TO.P,U2,4,V-*%
%TO.N,GND*%
X154417500Y-62445000D03*
%TO.P,U2,5,Ref*%
%TO.N,VREF*%
X158642500Y-62445000D03*
%TO.P,U2,6*%
%TO.N,Net-(R20-Pad2)*%
X158642500Y-61795000D03*
%TO.P,U2,7,V+*%
%TO.N,ANALOGREF*%
X158642500Y-61145000D03*
%TO.P,U2,8,Rg*%
%TO.N,Net-(R1-Pad2)*%
X158642500Y-60495000D03*
%TD*%
D28*
%TO.P,J5,A1,GND*%
%TO.N,GND*%
X185050000Y-45230000D03*
D29*
%TO.P,J5,A5,CC1*%
%TO.N,Net-(J5-CC1)*%
X183100000Y-45130000D03*
%TO.P,J5,A6,D+*%
%TO.N,/USB+*%
X182100000Y-45130000D03*
%TO.P,J5,A7,D-*%
%TO.N,/USB-*%
X181600000Y-45130000D03*
%TO.P,J5,A8,SBU1*%
%TO.N,unconnected-(J5-SBU1-PadA8)*%
X180600000Y-45130000D03*
D28*
%TO.P,J5,A12,GND*%
%TO.N,GND*%
X178650000Y-45230000D03*
%TO.P,J5,B1,GND*%
X178650000Y-45230000D03*
D30*
%TO.P,J5,B4,VBUS*%
%TO.N,unconnected-(J5-VBUS-PadA4)_1*%
X179500000Y-45227500D03*
D29*
%TO.P,J5,B5,CC2*%
%TO.N,Net-(J5-CC2)*%
X180100000Y-45130000D03*
%TO.P,J5,B6,D+*%
%TO.N,/USB+*%
X181100000Y-45130000D03*
%TO.P,J5,B7,D-*%
%TO.N,/USB-*%
X182600000Y-45130000D03*
%TO.P,J5,B8,SBU2*%
%TO.N,unconnected-(J5-SBU2-PadB8)*%
X183600000Y-45130000D03*
D30*
%TO.P,J5,B9,VBUS*%
%TO.N,unconnected-(J5-VBUS-PadA4)_3*%
X184200000Y-45227500D03*
D28*
%TO.P,J5,B12,GND*%
%TO.N,GND*%
X185050000Y-45230000D03*
D31*
%TO.P,J5,S1,SHIELD*%
%TO.N,Earth*%
X186170000Y-44530000D03*
D32*
X186170000Y-40330000D03*
D31*
X177530000Y-44530000D03*
D32*
X177530000Y-40330000D03*
%TD*%
D33*
%TO.P,J3,1,VTref*%
%TO.N,+3.3V*%
X168460000Y-50020000D03*
D34*
%TO.P,J3,2,SWDIO/TMS*%
%TO.N,SWDIO*%
X168460000Y-48750000D03*
%TO.P,J3,3,GND*%
%TO.N,GND*%
X169730000Y-50020000D03*
%TO.P,J3,4,SWCLK/TCK*%
%TO.N,SWCLK*%
X169730000Y-48750000D03*
%TO.P,J3,5,GND*%
%TO.N,GND*%
X171000000Y-50020000D03*
%TO.P,J3,6,SWO/TDO*%
%TO.N,SWO*%
X171000000Y-48750000D03*
%TO.P,J3,7,KEY*%
%TO.N,unconnected-(J3-KEY-Pad7)*%
X172270000Y-50020000D03*
%TO.P,J3,8,NC/TDI*%
%TO.N,unconnected-(J3-NC{slash}TDI-Pad8)*%
X172270000Y-48750000D03*
%TO.P,J3,9,GNDDetect*%
%TO.N,GND*%
X173540000Y-50020000D03*
%TO.P,J3,10,~{RESET}*%
%TO.N,RESET*%
X173540000Y-48750000D03*
%TD*%
D12*
%TO.P,C20,1*%
%TO.N,GND*%
X178250000Y-61725000D03*
%TO.P,C20,2*%
%TO.N,ANALOGREF*%
X178250000Y-60590000D03*
%TD*%
D35*
%TO.P,C3,1*%
%TO.N,GND*%
X152012500Y-42075000D03*
%TO.P,C3,2*%
%TO.N,Net-(D5-K)*%
X150287500Y-42075000D03*
%TD*%
D15*
%TO.P,C12,1*%
%TO.N,GND*%
X158897500Y-73320000D03*
%TO.P,C12,2*%
%TO.N,ANALOGREF*%
X157762500Y-73320000D03*
%TD*%
D36*
%TO.P,L7,1,1*%
%TO.N,Net-(ANT1-FEED)*%
X196790000Y-80265000D03*
%TO.P,L7,2,2*%
%TO.N,Net-(C39-Pad2)*%
X196790000Y-79295000D03*
%TD*%
D14*
%TO.P,C29,1*%
%TO.N,Net-(U8A-+)*%
X175500000Y-76682500D03*
%TO.P,C29,2*%
%TO.N,Net-(C29-Pad2)*%
X175500000Y-77817500D03*
%TD*%
D37*
%TO.P,L1,1,1*%
%TO.N,Net-(U5-SW)*%
X150262500Y-48925000D03*
%TO.P,L1,2,2*%
%TO.N,+5V*%
X152012500Y-48925000D03*
%TD*%
D38*
%TO.P,L6,1,1*%
%TO.N,GND*%
X195815000Y-78610000D03*
%TO.P,L6,2,2*%
%TO.N,Net-(C39-Pad2)*%
X196785000Y-78610000D03*
%TD*%
D14*
%TO.P,C26,1*%
%TO.N,GND*%
X160230000Y-77702500D03*
%TO.P,C26,2*%
%TO.N,ANALOGREF*%
X160230000Y-78837500D03*
%TD*%
D25*
%TO.P,C37,1*%
%TO.N,GND*%
X187540000Y-64800000D03*
%TO.P,C37,2*%
%TO.N,Net-(U1-RF1)*%
X186725000Y-64800000D03*
%TD*%
D20*
%TO.P,R5,1*%
%TO.N,Net-(U4A-+)*%
X164675000Y-69515000D03*
%TO.P,R5,2*%
%TO.N,GND*%
X165870000Y-69515000D03*
%TD*%
D39*
%TO.P,ANT1,1,FEED*%
%TO.N,Net-(ANT1-FEED)*%
X196790000Y-81000000D03*
%TO.P,ANT1,2,NC*%
%TO.N,unconnected-(ANT1-NC-Pad2)*%
X196790000Y-84400000D03*
%TD*%
D13*
%TO.P,R12,1*%
%TO.N,RLDIN2*%
X157830000Y-76122500D03*
%TO.P,R12,2*%
%TO.N,Net-(R12-Pad2)*%
X157830000Y-77317500D03*
%TD*%
D14*
%TO.P,C11,1*%
%TO.N,GND*%
X160230000Y-59852500D03*
%TO.P,C11,2*%
%TO.N,ANALOGREF*%
X160230000Y-60987500D03*
%TD*%
D20*
%TO.P,R11,1*%
%TO.N,Net-(R11-Pad1)*%
X155532500Y-76230000D03*
%TO.P,R11,2*%
%TO.N,RLDIN2*%
X156727500Y-76230000D03*
%TD*%
%TO.P,R2,1*%
%TO.N,Net-(R1-Pad1)*%
X154782500Y-57970000D03*
%TO.P,R2,2*%
%TO.N,RLDIN1*%
X155977500Y-57970000D03*
%TD*%
D12*
%TO.P,C36,1*%
%TO.N,GND*%
X177650000Y-57417500D03*
%TO.P,C36,2*%
%TO.N,Net-(U1-PC15)*%
X177650000Y-56282500D03*
%TD*%
D20*
%TO.P,R1,1*%
%TO.N,Net-(R1-Pad1)*%
X154735000Y-59070000D03*
%TO.P,R1,2*%
%TO.N,Net-(R1-Pad2)*%
X155930000Y-59070000D03*
%TD*%
D13*
%TO.P,R18,1*%
%TO.N,+3.3V*%
X175700000Y-43652500D03*
%TO.P,R18,2*%
%TO.N,RESET*%
X175700000Y-44847500D03*
%TD*%
D40*
%TO.P,C9,1*%
%TO.N,GND*%
X163115000Y-58480000D03*
%TO.P,C9,2*%
%TO.N,ANALOGREF*%
X164250000Y-58480000D03*
%TD*%
D15*
%TO.P,C32,1*%
%TO.N,Net-(U8B-+)*%
X170357500Y-70860000D03*
%TO.P,C32,2*%
%TO.N,Net-(C32-Pad2)*%
X169222500Y-70860000D03*
%TD*%
D40*
%TO.P,C33,1*%
%TO.N,Net-(C32-Pad2)*%
X169222500Y-71910000D03*
%TO.P,C33,2*%
%TO.N,GND*%
X170357500Y-71910000D03*
%TD*%
%TO.P,C8,1*%
%TO.N,GND*%
X162982500Y-53980000D03*
%TO.P,C8,2*%
%TO.N,+3.3V*%
X164117500Y-53980000D03*
%TD*%
D41*
%TO.P,C25,1*%
%TO.N,GND*%
X190700000Y-62225000D03*
%TO.P,C25,2*%
%TO.N,Net-(U1-VFBSMPS)*%
X190700000Y-60500000D03*
%TD*%
D13*
%TO.P,R25,1*%
%TO.N,+3.3V*%
X188100000Y-44102500D03*
%TO.P,R25,2*%
%TO.N,BOOT*%
X188100000Y-45297500D03*
%TD*%
D19*
%TO.P,R6,1*%
%TO.N,Net-(C1-Pad2)*%
X151092500Y-70125000D03*
%TO.P,R6,2*%
%TO.N,RLDOUT*%
X149897500Y-70125000D03*
%TD*%
D42*
%TO.P,D4,1,K*%
%TO.N,GND*%
X169525000Y-61750000D03*
%TO.P,D4,2,A*%
%TO.N,Net-(D4-A)*%
X171575000Y-61750000D03*
%TD*%
D20*
%TO.P,R23,1*%
%TO.N,Net-(D3-A)*%
X179212500Y-65850000D03*
%TO.P,R23,2*%
%TO.N,Net-(U1-PA5)*%
X180407500Y-65850000D03*
%TD*%
D43*
%TO.P,U8,1*%
%TO.N,ELECTRODE_ADC2*%
X171795000Y-74825000D03*
%TO.P,U8,2,-*%
X173065000Y-74825000D03*
%TO.P,U8,3,+*%
%TO.N,Net-(U8A-+)*%
X174335000Y-74825000D03*
%TO.P,U8,4,V-*%
%TO.N,GND*%
X175605000Y-74825000D03*
%TO.P,U8,5,+*%
%TO.N,Net-(U8B-+)*%
X175605000Y-69875000D03*
%TO.P,U8,6,-*%
%TO.N,ELECTRODE_ADC1*%
X174335000Y-69875000D03*
%TO.P,U8,7*%
X173065000Y-69875000D03*
%TO.P,U8,8,V+*%
%TO.N,ANALOGREF*%
X171795000Y-69875000D03*
%TD*%
D37*
%TO.P,D5,1,K*%
%TO.N,Net-(D5-K)*%
X150250000Y-40400000D03*
%TO.P,D5,2,A*%
%TO.N,BATT*%
X152000000Y-40400000D03*
%TD*%
D15*
%TO.P,C17,1*%
%TO.N,+3.3V*%
X188567500Y-63850000D03*
%TO.P,C17,2*%
%TO.N,GND*%
X187432500Y-63850000D03*
%TD*%
D20*
%TO.P,R22,1*%
%TO.N,Net-(D2-A)*%
X179212500Y-64795000D03*
%TO.P,R22,2*%
%TO.N,Net-(U1-PA4)*%
X180407500Y-64795000D03*
%TD*%
D13*
%TO.P,R3,1*%
%TO.N,RLDIN1*%
X157130000Y-57872500D03*
%TO.P,R3,2*%
%TO.N,Net-(R1-Pad2)*%
X157130000Y-59067500D03*
%TD*%
D42*
%TO.P,D3,1,K*%
%TO.N,GND*%
X169547500Y-59505000D03*
%TO.P,D3,2,A*%
%TO.N,Net-(D3-A)*%
X171597500Y-59505000D03*
%TD*%
D44*
%TO.P,U4,1*%
%TO.N,VREF*%
X162805000Y-72025000D03*
%TO.P,U4,2,-*%
X162805000Y-70755000D03*
%TO.P,U4,3,+*%
%TO.N,Net-(U4A-+)*%
X162805000Y-69485000D03*
%TO.P,U4,4,V-*%
%TO.N,GND*%
X162805000Y-68215000D03*
%TO.P,U4,5,+*%
%TO.N,VREF*%
X157855000Y-68215000D03*
%TO.P,U4,6,-*%
%TO.N,RLDIN*%
X157855000Y-69485000D03*
%TO.P,U4,7*%
%TO.N,Net-(C1-Pad2)*%
X157855000Y-70755000D03*
%TO.P,U4,8,V+*%
%TO.N,ANALOGREF*%
X157855000Y-72025000D03*
%TD*%
D15*
%TO.P,C27,1*%
%TO.N,Net-(C27-Pad1)*%
X173317500Y-76700000D03*
%TO.P,C27,2*%
%TO.N,ELECTRODE_ADC2*%
X172182500Y-76700000D03*
%TD*%
D27*
%TO.P,U7,1,Rg*%
%TO.N,Net-(R11-Pad1)*%
X154267500Y-78695000D03*
%TO.P,U7,2,-*%
%TO.N,Net-(U7--)*%
X154267500Y-79345000D03*
%TO.P,U7,3,+*%
%TO.N,Net-(U7-+)*%
X154267500Y-79995000D03*
%TO.P,U7,4,V-*%
%TO.N,GND*%
X154267500Y-80645000D03*
%TO.P,U7,5,Ref*%
%TO.N,VREF*%
X158492500Y-80645000D03*
%TO.P,U7,6*%
%TO.N,Net-(R16-Pad2)*%
X158492500Y-79995000D03*
%TO.P,U7,7,V+*%
%TO.N,ANALOGREF*%
X158492500Y-79345000D03*
%TO.P,U7,8,Rg*%
%TO.N,Net-(R12-Pad2)*%
X158492500Y-78695000D03*
%TD*%
D10*
%TO.P,SW2,1,1*%
%TO.N,GND*%
X190500000Y-40000000D03*
X196300000Y-40000000D03*
%TO.P,SW2,2,2*%
%TO.N,BOOT*%
X190500000Y-44000000D03*
X196300000Y-44000000D03*
%TD*%
D20*
%TO.P,R9,1*%
%TO.N,BATT*%
X162402500Y-42750000D03*
%TO.P,R9,2*%
%TO.N,BATTERY_SENSE*%
X163597500Y-42750000D03*
%TD*%
D12*
%TO.P,C7,1*%
%TO.N,GND*%
X153387500Y-51985000D03*
%TO.P,C7,2*%
%TO.N,+5V*%
X153387500Y-50850000D03*
%TD*%
D45*
%TO.P,R20,1*%
%TO.N,Net-(C31-Pad1)*%
X168800000Y-68697500D03*
%TO.P,R20,2*%
%TO.N,Net-(R20-Pad2)*%
X168800000Y-67502500D03*
%TD*%
D42*
%TO.P,D2,1,K*%
%TO.N,GND*%
X169525000Y-57450000D03*
%TO.P,D2,2,A*%
%TO.N,Net-(D2-A)*%
X171575000Y-57450000D03*
%TD*%
D19*
%TO.P,R21,1*%
%TO.N,Net-(U8B-+)*%
X170387500Y-69810000D03*
%TO.P,R21,2*%
%TO.N,Net-(C31-Pad1)*%
X169192500Y-69810000D03*
%TD*%
D15*
%TO.P,C24,1*%
%TO.N,+3.3V*%
X181700000Y-53500000D03*
%TO.P,C24,2*%
%TO.N,GND*%
X180565000Y-53500000D03*
%TD*%
D20*
%TO.P,R24,1*%
%TO.N,Net-(D4-A)*%
X179212500Y-66950000D03*
%TO.P,R24,2*%
%TO.N,Net-(U1-PA6)*%
X180407500Y-66950000D03*
%TD*%
D12*
%TO.P,C19,1*%
%TO.N,+3.3V*%
X190950000Y-57667500D03*
%TO.P,C19,2*%
%TO.N,GND*%
X190950000Y-56532500D03*
%TD*%
D19*
%TO.P,R10,1*%
%TO.N,BATTERY_SENSE*%
X163547500Y-43850000D03*
%TO.P,R10,2*%
%TO.N,GND*%
X162352500Y-43850000D03*
%TD*%
D12*
%TO.P,C15,1*%
%TO.N,+3.3V*%
X179500000Y-55117500D03*
%TO.P,C15,2*%
%TO.N,GND*%
X179500000Y-53982500D03*
%TD*%
D15*
%TO.P,C16,1*%
%TO.N,+3.3V*%
X185817500Y-63800000D03*
%TO.P,C16,2*%
%TO.N,GND*%
X184682500Y-63800000D03*
%TD*%
D13*
%TO.P,R15,1*%
%TO.N,RLDIN*%
X153830000Y-74372500D03*
%TO.P,R15,2*%
%TO.N,RLDIN2*%
X153830000Y-75567500D03*
%TD*%
D15*
%TO.P,C6,1*%
%TO.N,Net-(U5-BST)*%
X152255000Y-47625000D03*
%TO.P,C6,2*%
%TO.N,Net-(U5-SW)*%
X151120000Y-47625000D03*
%TD*%
D46*
%TO.P,L4,1,1*%
%TO.N,Net-(U1-VFBSMPS)*%
X192550000Y-61025000D03*
%TO.P,L4,2,2*%
%TO.N,Net-(L3-Pad1)*%
X192550000Y-59275000D03*
%TD*%
D47*
%TO.P,U1,1,VBAT*%
%TO.N,+3.3V*%
X180762500Y-55450000D03*
%TO.P,U1,2,PC13*%
%TO.N,unconnected-(U1-PC13-Pad2)*%
X180762500Y-55850000D03*
%TO.P,U1,3,PC14*%
%TO.N,Net-(U1-PC14)*%
X180762500Y-56250000D03*
%TO.P,U1,4,PC15*%
%TO.N,Net-(U1-PC15)*%
X180762500Y-56650000D03*
%TO.P,U1,5,PH3*%
%TO.N,BOOT*%
X180762500Y-57050000D03*
%TO.P,U1,6,PB8*%
%TO.N,unconnected-(U1-PB8-Pad6)*%
X180762500Y-57450000D03*
%TO.P,U1,7,PB9*%
%TO.N,unconnected-(U1-PB9-Pad7)*%
X180762500Y-57850000D03*
%TO.P,U1,8,NRST*%
%TO.N,RESET*%
X180762500Y-58250000D03*
%TO.P,U1,9,PC0*%
%TO.N,ELECTRODE_ADC1*%
X180762500Y-58650000D03*
%TO.P,U1,10,PC1*%
%TO.N,ELECTRODE_ADC2*%
X180762500Y-59050000D03*
%TO.P,U1,11,PC2*%
%TO.N,BATTERY_SENSE*%
X180762500Y-59450000D03*
%TO.P,U1,12,PC3*%
%TO.N,unconnected-(U1-PC3-Pad12)*%
X180762500Y-59850000D03*
%TO.P,U1,13,VREF+*%
%TO.N,ANALOGREF*%
X180762500Y-60250000D03*
%TO.P,U1,14,VDDA*%
X180762500Y-60650000D03*
%TO.P,U1,15,PA0*%
%TO.N,unconnected-(U1-PA0-Pad15)*%
X180762500Y-61050000D03*
%TO.P,U1,16,PA1*%
%TO.N,unconnected-(U1-PA1-Pad16)*%
X180762500Y-61450000D03*
%TO.P,U1,17,PA2*%
%TO.N,unconnected-(U1-PA2-Pad17)*%
X180762500Y-61850000D03*
D48*
%TO.P,U1,18,PA3*%
%TO.N,Net-(U1-PA3)*%
X181450000Y-62537500D03*
%TO.P,U1,19,PA4*%
%TO.N,Net-(U1-PA4)*%
X181850000Y-62537500D03*
%TO.P,U1,20,PA5*%
%TO.N,Net-(U1-PA5)*%
X182250000Y-62537500D03*
%TO.P,U1,21,PA6*%
%TO.N,Net-(U1-PA6)*%
X182650000Y-62537500D03*
%TO.P,U1,22,PA7*%
%TO.N,unconnected-(U1-PA7-Pad22)*%
X183050000Y-62537500D03*
%TO.P,U1,23,PA8*%
%TO.N,unconnected-(U1-PA8-Pad23)*%
X183450000Y-62537500D03*
%TO.P,U1,24,PA9*%
%TO.N,unconnected-(U1-PA9-Pad24)*%
X183850000Y-62537500D03*
%TO.P,U1,25,PC4*%
%TO.N,unconnected-(U1-PC4-Pad25)*%
X184250000Y-62537500D03*
%TO.P,U1,26,PC5*%
%TO.N,unconnected-(U1-PC5-Pad26)*%
X184650000Y-62537500D03*
%TO.P,U1,27,PB2*%
%TO.N,unconnected-(U1-PB2-Pad27)*%
X185050000Y-62537500D03*
%TO.P,U1,28,PB10*%
%TO.N,unconnected-(U1-PB10-Pad28)*%
X185450000Y-62537500D03*
%TO.P,U1,29,PB11*%
%TO.N,unconnected-(U1-PB11-Pad29)*%
X185850000Y-62537500D03*
%TO.P,U1,30,VDD*%
%TO.N,+3.3V*%
X186250000Y-62537500D03*
%TO.P,U1,31,RF1*%
%TO.N,Net-(U1-RF1)*%
X186650000Y-62537500D03*
%TO.P,U1,32,VSSRF*%
%TO.N,GND*%
X187050000Y-62537500D03*
%TO.P,U1,33,VDDRF*%
%TO.N,+3.3V*%
X187450000Y-62537500D03*
%TO.P,U1,34,OSC_OUT*%
%TO.N,Net-(U1-OSC_OUT)*%
X187850000Y-62537500D03*
D47*
%TO.P,U1,35,OSC_IN*%
%TO.N,Net-(U1-OSC_IN)*%
X188537500Y-61850000D03*
%TO.P,U1,36,AT0*%
%TO.N,unconnected-(U1-AT0-Pad36)*%
X188537500Y-61450000D03*
%TO.P,U1,37,AT1*%
%TO.N,unconnected-(U1-AT1-Pad37)*%
X188537500Y-61050000D03*
%TO.P,U1,38,PB0*%
%TO.N,unconnected-(U1-PB0-Pad38)*%
X188537500Y-60650000D03*
%TO.P,U1,39,PB1*%
%TO.N,unconnected-(U1-PB1-Pad39)*%
X188537500Y-60250000D03*
%TO.P,U1,40,PE4*%
%TO.N,unconnected-(U1-PE4-Pad40)*%
X188537500Y-59850000D03*
%TO.P,U1,41,VFBSMPS*%
%TO.N,Net-(U1-VFBSMPS)*%
X188537500Y-59450000D03*
%TO.P,U1,42,VSSSMPS*%
%TO.N,GND*%
X188537500Y-59050000D03*
%TO.P,U1,43,VLXSMPS*%
%TO.N,Net-(U1-VLXSMPS)*%
X188537500Y-58650000D03*
%TO.P,U1,44,VDDSMPS*%
%TO.N,+3.3V*%
X188537500Y-58250000D03*
%TO.P,U1,45,VDD*%
X188537500Y-57850000D03*
%TO.P,U1,46,PB12*%
%TO.N,unconnected-(U1-PB12-Pad46)*%
X188537500Y-57450000D03*
%TO.P,U1,47,PB13*%
%TO.N,unconnected-(U1-PB13-Pad47)*%
X188537500Y-57050000D03*
%TO.P,U1,48,PB14*%
%TO.N,unconnected-(U1-PB14-Pad48)*%
X188537500Y-56650000D03*
%TO.P,U1,49,PB15*%
%TO.N,unconnected-(U1-PB15-Pad49)*%
X188537500Y-56250000D03*
%TO.P,U1,50,PC6*%
%TO.N,unconnected-(U1-PC6-Pad50)*%
X188537500Y-55850000D03*
%TO.P,U1,51,PA10*%
%TO.N,unconnected-(U1-PA10-Pad51)*%
X188537500Y-55450000D03*
D48*
%TO.P,U1,52,PA11*%
%TO.N,/USB-*%
X187850000Y-54762500D03*
%TO.P,U1,53,PA12*%
%TO.N,/USB+*%
X187450000Y-54762500D03*
%TO.P,U1,54,PA13*%
%TO.N,SWDIO*%
X187050000Y-54762500D03*
%TO.P,U1,55,VDDUSB*%
%TO.N,+3.3V*%
X186650000Y-54762500D03*
%TO.P,U1,56,PA14*%
%TO.N,SWCLK*%
X186250000Y-54762500D03*
%TO.P,U1,57,PA15*%
%TO.N,unconnected-(U1-PA15-Pad57)*%
X185850000Y-54762500D03*
%TO.P,U1,58,PC10*%
%TO.N,unconnected-(U1-PC10-Pad58)*%
X185450000Y-54762500D03*
%TO.P,U1,59,PC11*%
%TO.N,unconnected-(U1-PC11-Pad59)*%
X185050000Y-54762500D03*
%TO.P,U1,60,PC12*%
%TO.N,unconnected-(U1-PC12-Pad60)*%
X184650000Y-54762500D03*
%TO.P,U1,61,PD0*%
%TO.N,unconnected-(U1-PD0-Pad61)*%
X184250000Y-54762500D03*
%TO.P,U1,62,PD1*%
%TO.N,unconnected-(U1-PD1-Pad62)*%
X183850000Y-54762500D03*
%TO.P,U1,63,PB3*%
%TO.N,SWO*%
X183450000Y-54762500D03*
%TO.P,U1,64,PB4*%
%TO.N,unconnected-(U1-PB4-Pad64)*%
X183050000Y-54762500D03*
%TO.P,U1,65,PB5*%
%TO.N,unconnected-(U1-PB5-Pad65)*%
X182650000Y-54762500D03*
%TO.P,U1,66,PB6*%
%TO.N,unconnected-(U1-PB6-Pad66)*%
X182250000Y-54762500D03*
%TO.P,U1,67,PB7*%
%TO.N,unconnected-(U1-PB7-Pad67)*%
X181850000Y-54762500D03*
%TO.P,U1,68,VDD*%
%TO.N,+3.3V*%
X181450000Y-54762500D03*
D49*
%TO.P,U1,69,VSS*%
%TO.N,GND*%
X184650000Y-58650000D03*
%TD*%
D15*
%TO.P,C1,1*%
%TO.N,Net-(C1-Pad1)*%
X155942500Y-71175000D03*
%TO.P,C1,2*%
%TO.N,Net-(C1-Pad2)*%
X154807500Y-71175000D03*
%TD*%
D50*
%TO.P,U5,1,FB*%
%TO.N,+5V*%
X152087500Y-43812500D03*
%TO.P,U5,2,EN*%
%TO.N,Net-(D5-K)*%
X151137500Y-43812500D03*
%TO.P,U5,3,IN*%
X150187500Y-43812500D03*
%TO.P,U5,4,GND*%
%TO.N,GND*%
X150187500Y-46087500D03*
%TO.P,U5,5,SW*%
%TO.N,Net-(U5-SW)*%
X151137500Y-46087500D03*
%TO.P,U5,6,BST*%
%TO.N,Net-(U5-BST)*%
X152087500Y-46087500D03*
%TD*%
D15*
%TO.P,C28,1*%
%TO.N,GND*%
X172700000Y-68000000D03*
%TO.P,C28,2*%
%TO.N,ANALOGREF*%
X171565000Y-68000000D03*
%TD*%
D51*
%TO.P,L2,1,1*%
%TO.N,+3.3V*%
X164050000Y-55330000D03*
%TO.P,L2,2,2*%
%TO.N,ANALOGREF*%
X164050000Y-57080000D03*
%TD*%
D19*
%TO.P,R4,1*%
%TO.N,ANALOGREF*%
X165872500Y-68415000D03*
%TO.P,R4,2*%
%TO.N,Net-(U4A-+)*%
X164677500Y-68415000D03*
%TD*%
D11*
%TO.P,C5,1*%
%TO.N,GND*%
X150262500Y-52150000D03*
%TO.P,C5,2*%
%TO.N,+5V*%
X151987500Y-52150000D03*
%TD*%
D16*
%TO.P,J2,R*%
%TO.N,Net-(U7--)*%
X142430000Y-75570000D03*
%TO.P,J2,S*%
%TO.N,RLDOUT*%
X140430000Y-82970000D03*
D17*
%TO.P,J2,T*%
%TO.N,Net-(U7-+)*%
X149830000Y-82970000D03*
%TD*%
D11*
%TO.P,C4,1*%
%TO.N,GND*%
X150262500Y-50600000D03*
%TO.P,C4,2*%
%TO.N,+5V*%
X151987500Y-50600000D03*
%TD*%
D52*
%TO.P,C39,1*%
%TO.N,Net-(FL1-OUT)*%
X196790000Y-77010000D03*
%TO.P,C39,2*%
%TO.N,Net-(C39-Pad2)*%
X196790000Y-77970000D03*
%TD*%
D53*
%TO.P,FL1,1,IN*%
%TO.N,Net-(FL1-IN)*%
X194268000Y-73547000D03*
D54*
%TO.P,FL1,2,GND*%
%TO.N,GND*%
X194880000Y-73774000D03*
D53*
%TO.P,FL1,3,OUT*%
%TO.N,Net-(FL1-OUT)*%
X195493000Y-73547000D03*
D54*
%TO.P,FL1,4,GND*%
%TO.N,GND*%
X194880000Y-73320000D03*
%TD*%
D42*
%TO.P,D1,1,K*%
%TO.N,GND*%
X169525000Y-55250000D03*
%TO.P,D1,2,A*%
%TO.N,Net-(D1-A)*%
X171575000Y-55250000D03*
%TD*%
D55*
%TO.P,U3,1,+_1*%
%TO.N,BATT*%
X158750000Y-43500000D03*
%TO.P,U3,2,+_2*%
%TO.N,GND*%
X143750000Y-43500000D03*
%TD*%
D56*
%TO.N,Net-(C1-Pad2)*%
X154125000Y-70075000D03*
X152100000Y-70100000D03*
%TO.N,BATTERY_SENSE*%
X163600000Y-44800000D03*
X179400000Y-59604000D03*
%TO.N,GND*%
X197000000Y-61000000D03*
X177300000Y-53150000D03*
X161250000Y-73250000D03*
X187050000Y-61500000D03*
X142000000Y-52000000D03*
X149500000Y-39000000D03*
X149000000Y-68500000D03*
D57*
X147250000Y-42450000D03*
D56*
X165750000Y-52750000D03*
X194500000Y-48500000D03*
X176550000Y-75400000D03*
X157500000Y-56500000D03*
X179000000Y-82250000D03*
X175750000Y-50500000D03*
X185300000Y-52450000D03*
X177500000Y-84000000D03*
X162500000Y-39000000D03*
X171000000Y-51000000D03*
X187000000Y-82250000D03*
X166500000Y-49250000D03*
X191000000Y-75500000D03*
X142000000Y-49500000D03*
X158750000Y-64500000D03*
X169750000Y-51000000D03*
X181250000Y-71250000D03*
X186750000Y-80250000D03*
X162300000Y-59525000D03*
X190950000Y-55700000D03*
X156000000Y-66750000D03*
X155000000Y-56000000D03*
X154750000Y-44000000D03*
X153400000Y-52850000D03*
X159250000Y-58750000D03*
X162400000Y-44800000D03*
X197000000Y-68500000D03*
X136500000Y-63500000D03*
X177500000Y-49000000D03*
X136500000Y-68500000D03*
X194890000Y-74330000D03*
X145750000Y-56500000D03*
X179000000Y-80000000D03*
X191000000Y-78500000D03*
X149030000Y-50600000D03*
X147250000Y-52000000D03*
X197000000Y-46000000D03*
X145250000Y-59750000D03*
X176750000Y-58150000D03*
X166000000Y-70750000D03*
X166000000Y-72750000D03*
X192500000Y-53500000D03*
X136500000Y-44500000D03*
X167500000Y-84000000D03*
X139500000Y-39500000D03*
X189500000Y-51250000D03*
X196300000Y-38900000D03*
X194880000Y-72740000D03*
X182300000Y-39100000D03*
X155500000Y-72750000D03*
X136500000Y-76500000D03*
X189900000Y-55700000D03*
X162750000Y-73250000D03*
X172700000Y-67150000D03*
X175000000Y-84000000D03*
X176500000Y-82250000D03*
X155675000Y-62450000D03*
X161000000Y-66750000D03*
X194000000Y-75750000D03*
X191000000Y-67500000D03*
X191850000Y-62250000D03*
X177750000Y-71250000D03*
X136500000Y-39500000D03*
X151750000Y-72000000D03*
X178280000Y-62580000D03*
X139500000Y-61500000D03*
X190750000Y-70750000D03*
X167250000Y-41250000D03*
X179500000Y-53100000D03*
X160000000Y-84000000D03*
X139750000Y-77000000D03*
X151250000Y-54750000D03*
X153280000Y-42080000D03*
X174500000Y-57500000D03*
X163000000Y-46000000D03*
X181600000Y-39300000D03*
X162500000Y-84000000D03*
X181250000Y-74250000D03*
X136500000Y-49500000D03*
X183750000Y-50000000D03*
X170250000Y-75000000D03*
X190500000Y-38900000D03*
X148750000Y-44500000D03*
X147000000Y-81250000D03*
X149240000Y-46090000D03*
X161000000Y-59850000D03*
X156250000Y-78750000D03*
X136500000Y-84000000D03*
X166500000Y-82250000D03*
X145500000Y-68750000D03*
X197000000Y-66000000D03*
D57*
X147250000Y-39450000D03*
D56*
X177750000Y-74250000D03*
X145000000Y-84000000D03*
X193500000Y-39000000D03*
X175800000Y-58800000D03*
X168300000Y-57450000D03*
X162270000Y-58480000D03*
X192500000Y-51250000D03*
X185050000Y-46280000D03*
X188450000Y-64800000D03*
X173150000Y-38850000D03*
X147000000Y-65750000D03*
X186634267Y-50384267D03*
X179400000Y-62600000D03*
X136500000Y-61000000D03*
X194000000Y-65950000D03*
X156000000Y-64500000D03*
X139750000Y-74000000D03*
X143500000Y-65750000D03*
X188000000Y-40000000D03*
X156500000Y-54750000D03*
X144500000Y-49500000D03*
X170350000Y-72700000D03*
X136500000Y-58500000D03*
X159000000Y-82250000D03*
X174500000Y-80000000D03*
X144500000Y-52000000D03*
X136500000Y-56000000D03*
X169000000Y-73750000D03*
X184750000Y-74250000D03*
X152000000Y-39000000D03*
X182500000Y-84000000D03*
X181250000Y-77250000D03*
X141750000Y-68750000D03*
X136500000Y-52000000D03*
X188000000Y-84000000D03*
X159750000Y-71750000D03*
X156000000Y-60500000D03*
X148750000Y-42250000D03*
X147000000Y-84000000D03*
X162825000Y-67300000D03*
X139500000Y-44250000D03*
X161500000Y-82250000D03*
X143000000Y-84000000D03*
X195500000Y-62000000D03*
X163000000Y-63250000D03*
X181250000Y-68250000D03*
X194250000Y-71250000D03*
X195080000Y-78610000D03*
X197000000Y-51000000D03*
X191700000Y-64050000D03*
X156500000Y-82250000D03*
X162500000Y-55250000D03*
X195500000Y-57250000D03*
X168000000Y-78750000D03*
X193500000Y-41750000D03*
X164500000Y-64750000D03*
X193250000Y-78500000D03*
X136500000Y-81500000D03*
X166650000Y-69500000D03*
X160225000Y-76850000D03*
X168300000Y-59500000D03*
X184500000Y-68250000D03*
X174000000Y-82250000D03*
X153750000Y-54750000D03*
X161000000Y-64500000D03*
X139500000Y-47000000D03*
X148750000Y-40500000D03*
X147250000Y-49500000D03*
X196000000Y-41000000D03*
X197000000Y-71000000D03*
X149750000Y-56750000D03*
X157000000Y-80250000D03*
X154500000Y-39000000D03*
X183250000Y-80000000D03*
X154750000Y-49250000D03*
X169000000Y-82250000D03*
X184750000Y-71250000D03*
X163731000Y-75750000D03*
X162025000Y-53975000D03*
X161500000Y-75500000D03*
X173250000Y-41250000D03*
X154000000Y-82250000D03*
X183750000Y-63800000D03*
X191000000Y-80000000D03*
X169750000Y-77000000D03*
X191000000Y-82000000D03*
X175750000Y-52500000D03*
X136500000Y-42000000D03*
X170000000Y-84000000D03*
X176750000Y-57450000D03*
X166500000Y-56500000D03*
X164500000Y-39000000D03*
X154750000Y-46750000D03*
X152500000Y-84000000D03*
X148750000Y-47750000D03*
X177750000Y-68250000D03*
X181500000Y-82250000D03*
X145000000Y-79000000D03*
X160500000Y-49250000D03*
X179750000Y-50250000D03*
X136500000Y-79000000D03*
X146750000Y-77000000D03*
X139500000Y-49500000D03*
X172500000Y-84000000D03*
X197000000Y-56000000D03*
X159250000Y-54750000D03*
D57*
X147250000Y-41000000D03*
D56*
X185000000Y-78250000D03*
X195250000Y-65000000D03*
X197000000Y-63500000D03*
X157000000Y-74750000D03*
X189000000Y-79000000D03*
X143250000Y-81250000D03*
X152250000Y-56750000D03*
X185150000Y-39100000D03*
X136500000Y-71000000D03*
X197000000Y-42500000D03*
X189250000Y-83000000D03*
X159725000Y-73325000D03*
X165000000Y-84000000D03*
X189750000Y-53500000D03*
X171500000Y-82250000D03*
X150500000Y-45000000D03*
X180000000Y-84000000D03*
X149050000Y-52150000D03*
X139500000Y-42000000D03*
X139500000Y-57500000D03*
X190500000Y-46750000D03*
X195500000Y-52250000D03*
X188000000Y-75000000D03*
X163000000Y-49250000D03*
X151500000Y-59000000D03*
X176000000Y-67000000D03*
D57*
X147250000Y-45500000D03*
D56*
X193250000Y-67500000D03*
X160750000Y-57000000D03*
X197000000Y-53500000D03*
X160200000Y-52250000D03*
X139500000Y-52000000D03*
X162000000Y-77500000D03*
X185250000Y-48750000D03*
X173550000Y-51000000D03*
X157500000Y-84000000D03*
X145250000Y-63000000D03*
X175750000Y-40000000D03*
X159250000Y-75500000D03*
X197000000Y-58500000D03*
X180550000Y-52800000D03*
X164500000Y-79000000D03*
X157000000Y-61750000D03*
X180460000Y-54440000D03*
X164000000Y-82250000D03*
X184000000Y-82250000D03*
X166500000Y-60500000D03*
X183087500Y-64262500D03*
X170000000Y-53500000D03*
X195250000Y-67250000D03*
X155000000Y-84000000D03*
X172500000Y-64500000D03*
D57*
X147250000Y-47050000D03*
D56*
X167250000Y-45750000D03*
X167350000Y-38900000D03*
X136500000Y-47000000D03*
X151000000Y-75500000D03*
X143750000Y-71250000D03*
X155250000Y-74250000D03*
X157500000Y-49250000D03*
D57*
X147250000Y-44000000D03*
D56*
X173500000Y-52750000D03*
X191000000Y-84000000D03*
X158750000Y-66750000D03*
X155550000Y-80650000D03*
X145750000Y-74250000D03*
X165750000Y-66500000D03*
X166250000Y-77500000D03*
X159750000Y-69750000D03*
X167750000Y-75750000D03*
X136500000Y-74000000D03*
X177750000Y-77250000D03*
X168300000Y-61800000D03*
X190500000Y-41000000D03*
X163000000Y-40750000D03*
X168300000Y-55250000D03*
X169500000Y-63500000D03*
X178680000Y-46270000D03*
X188550000Y-67400000D03*
X192250000Y-54500000D03*
X136500000Y-66000000D03*
X185000000Y-84000000D03*
X197000000Y-48500000D03*
%TO.N,+3.3V*%
X189500000Y-64750000D03*
X176300000Y-42250000D03*
X186400000Y-52400000D03*
X190400000Y-49650000D03*
X194000000Y-63500000D03*
X188050000Y-42250000D03*
X185090000Y-66330000D03*
X181650000Y-52300000D03*
X178599000Y-54810000D03*
%TO.N,ANALOGREF*%
X175825000Y-65575000D03*
X171550000Y-66400000D03*
X166925000Y-68450000D03*
X164225000Y-61125000D03*
%TO.N,ELECTRODE_ADC1*%
X170700000Y-68595200D03*
X174300000Y-68200000D03*
%TO.N,Net-(U8B-+)*%
X175600000Y-71375000D03*
X171775000Y-71375000D03*
%TO.N,RESET*%
X179600000Y-58096000D03*
X174250000Y-45500000D03*
%TO.N,BOOT*%
X179600000Y-57343597D03*
X188150000Y-46200000D03*
%TO.N,Net-(D1-A)*%
X172950000Y-55450000D03*
X177000000Y-62400000D03*
%TO.N,Net-(D2-A)*%
X172900000Y-57650000D03*
X176865407Y-63140266D03*
%TO.N,Net-(D3-A)*%
X172900000Y-59750000D03*
X176840985Y-63899320D03*
%TO.N,Net-(D4-A)*%
X176756400Y-64646953D03*
X172900000Y-61850000D03*
%TO.N,Net-(J5-CC2)*%
X183100000Y-41100000D03*
%TO.N,Net-(J5-CC1)*%
X184250000Y-41100000D03*
%TO.N,RLDIN1*%
X153000000Y-62800000D03*
X153000000Y-60400000D03*
%TO.N,VREF*%
X160150000Y-62475000D03*
X159900000Y-80625000D03*
X164425000Y-72850000D03*
%TD*%
D58*
%TO.N,Net-(ANT1-FEED)*%
X196790000Y-81000000D02*
X196790000Y-80265000D01*
%TO.N,Net-(C1-Pad1)*%
X155975000Y-70115000D02*
X155975000Y-71142500D01*
X155975000Y-71142500D02*
X155942500Y-71175000D01*
D59*
%TO.N,Net-(C1-Pad2)*%
X156255044Y-71850000D02*
X155125000Y-71850000D01*
D58*
X152100000Y-70100000D02*
X151117500Y-70100000D01*
X151117500Y-70100000D02*
X151092500Y-70125000D01*
X154780000Y-70067500D02*
X154132500Y-70067500D01*
X154780000Y-71147500D02*
X154807500Y-71175000D01*
X154132500Y-70067500D02*
X154125000Y-70075000D01*
D59*
X154807500Y-71532500D02*
X154807500Y-71175000D01*
X157350044Y-70755000D02*
X156255044Y-71850000D01*
X155125000Y-71850000D02*
X154807500Y-71532500D01*
X157855000Y-70755000D02*
X157350044Y-70755000D01*
D58*
X154780000Y-70067500D02*
X154780000Y-71147500D01*
D60*
%TO.N,BATTERY_SENSE*%
X163600000Y-43902500D02*
X163547500Y-43850000D01*
X163547500Y-42800000D02*
X163597500Y-42750000D01*
X163547500Y-43850000D02*
X163547500Y-42800000D01*
X179554000Y-59450000D02*
X180762500Y-59450000D01*
X179400000Y-59604000D02*
X179554000Y-59450000D01*
X163600000Y-44800000D02*
X163600000Y-43902500D01*
%TO.N,GND*%
X178650000Y-45130000D02*
X178650000Y-46240000D01*
D58*
X180565000Y-52815000D02*
X180550000Y-52800000D01*
D61*
X176450000Y-75300000D02*
X175900000Y-75300000D01*
D58*
X183087500Y-64262500D02*
X183087500Y-65200000D01*
D61*
X176550000Y-75400000D02*
X176450000Y-75300000D01*
D58*
X158897500Y-73320000D02*
X159720000Y-73320000D01*
X173540000Y-50990000D02*
X173550000Y-51000000D01*
X160230000Y-77702500D02*
X160230000Y-76855000D01*
D61*
X155670000Y-62445000D02*
X155675000Y-62450000D01*
D58*
X172700000Y-68000000D02*
X172700000Y-67150000D01*
D62*
X187657500Y-64800000D02*
X188450000Y-64800000D01*
D58*
X191825000Y-62225000D02*
X191850000Y-62250000D01*
D61*
X167350000Y-40000000D02*
X167350000Y-38900000D01*
D58*
X162805000Y-67320000D02*
X162825000Y-67300000D01*
D61*
X190500000Y-40000000D02*
X190500000Y-38900000D01*
D58*
X190700000Y-62225000D02*
X191825000Y-62225000D01*
X165870000Y-69515000D02*
X166635000Y-69515000D01*
X153502500Y-52100000D02*
X153387500Y-51985000D01*
X179400000Y-62600000D02*
X179400000Y-61765000D01*
D63*
X150262500Y-50600000D02*
X149030000Y-50600000D01*
D58*
X178280000Y-62580000D02*
X178280000Y-61755000D01*
D61*
X155550000Y-80650000D02*
X154272500Y-80650000D01*
D58*
X177650000Y-57417500D02*
X176782500Y-57417500D01*
X191700000Y-64850000D02*
X191700000Y-64050000D01*
D60*
X188537500Y-59050000D02*
X185050000Y-59050000D01*
D61*
X196300000Y-40000000D02*
X196300000Y-38900000D01*
D59*
X168350000Y-61750000D02*
X168300000Y-61800000D01*
D58*
X167350000Y-40000000D02*
X173150000Y-40000000D01*
X159720000Y-73320000D02*
X159725000Y-73325000D01*
D60*
X187070000Y-62557500D02*
X187070000Y-63175053D01*
D63*
X152012500Y-42075000D02*
X153275000Y-42075000D01*
D60*
X185050000Y-59050000D02*
X184650000Y-58650000D01*
D61*
X175900000Y-75300000D02*
X175605000Y-75005000D01*
D59*
X169525000Y-61750000D02*
X168350000Y-61750000D01*
D60*
X187432500Y-63537553D02*
X187432500Y-63850000D01*
D58*
X190500000Y-40000000D02*
X196300000Y-40000000D01*
X170357500Y-71910000D02*
X170357500Y-72692500D01*
D60*
X185050000Y-45130000D02*
X185050000Y-46280000D01*
D58*
X176782500Y-57417500D02*
X176750000Y-57450000D01*
D61*
X162352500Y-43850000D02*
X162352500Y-44752500D01*
D60*
X187050000Y-62537500D02*
X187050000Y-61500000D01*
D61*
X173150000Y-40000000D02*
X173150000Y-38850000D01*
D58*
X192250000Y-55687500D02*
X192250000Y-54500000D01*
D64*
X194880000Y-73774000D02*
X194880000Y-74320000D01*
D62*
X187590000Y-67400000D02*
X188350000Y-67400000D01*
D64*
X194880000Y-73320000D02*
X194880000Y-72740000D01*
D60*
X187050000Y-61500000D02*
X187050000Y-61050000D01*
D64*
X195815000Y-78610000D02*
X195080000Y-78610000D01*
D59*
X169547500Y-59505000D02*
X168305000Y-59505000D01*
D58*
X179400000Y-61765000D02*
X179370000Y-61735000D01*
X162030000Y-53980000D02*
X162025000Y-53975000D01*
X162805000Y-68215000D02*
X162805000Y-67320000D01*
D59*
X169525000Y-55250000D02*
X168300000Y-55250000D01*
D58*
X162270000Y-58480000D02*
X162255000Y-58480000D01*
D61*
X175605000Y-75005000D02*
X175605000Y-74825000D01*
D58*
X160230000Y-76855000D02*
X160225000Y-76850000D01*
D61*
X154417500Y-62445000D02*
X155670000Y-62445000D01*
D58*
X153387500Y-52837500D02*
X153400000Y-52850000D01*
X162305000Y-59530000D02*
X162300000Y-59525000D01*
X163082500Y-59530000D02*
X162305000Y-59530000D01*
X169730000Y-50980000D02*
X169750000Y-51000000D01*
D63*
X153275000Y-42075000D02*
X153280000Y-42080000D01*
D60*
X178650000Y-46240000D02*
X178680000Y-46270000D01*
D58*
X160230000Y-59852500D02*
X160997500Y-59852500D01*
D60*
X187050000Y-62537500D02*
X187070000Y-62557500D01*
D58*
X163115000Y-58480000D02*
X162270000Y-58480000D01*
D63*
X149242500Y-46087500D02*
X149240000Y-46090000D01*
X150262500Y-52150000D02*
X149050000Y-52150000D01*
X150187500Y-46087500D02*
X149242500Y-46087500D01*
D58*
X159350000Y-52235000D02*
X160185000Y-52235000D01*
X170357500Y-72692500D02*
X170350000Y-72700000D01*
X177650000Y-53500000D02*
X177650000Y-53982500D01*
X184682500Y-63800000D02*
X183750000Y-63800000D01*
X193100000Y-65950000D02*
X194000000Y-65950000D01*
X166635000Y-69515000D02*
X166650000Y-69500000D01*
X153387500Y-51985000D02*
X153387500Y-52837500D01*
X185300000Y-53200000D02*
X185300000Y-52450000D01*
X180565000Y-53500000D02*
X180565000Y-52815000D01*
D61*
X176550000Y-75400000D02*
X176550000Y-76682500D01*
D58*
X162255000Y-58480000D02*
X162250000Y-58475000D01*
X178280000Y-61755000D02*
X178250000Y-61725000D01*
X173540000Y-50020000D02*
X173540000Y-50990000D01*
X179500000Y-53982500D02*
X179500000Y-53100000D01*
X162982500Y-53980000D02*
X162030000Y-53980000D01*
D59*
X169525000Y-57450000D02*
X168300000Y-57450000D01*
D64*
X188350000Y-67400000D02*
X188550000Y-67400000D01*
D58*
X171000000Y-50020000D02*
X171000000Y-51000000D01*
X189900000Y-56532500D02*
X189900000Y-55700000D01*
D64*
X194880000Y-74320000D02*
X194890000Y-74330000D01*
D61*
X154272500Y-80650000D02*
X154267500Y-80645000D01*
D59*
X168305000Y-59505000D02*
X168300000Y-59500000D01*
D58*
X155000000Y-52100000D02*
X153502500Y-52100000D01*
X160185000Y-52235000D02*
X160200000Y-52250000D01*
D61*
X162352500Y-44752500D02*
X162400000Y-44800000D01*
D60*
X187070000Y-63175053D02*
X187432500Y-63537553D01*
D58*
X177300000Y-53150000D02*
X177650000Y-53500000D01*
X190950000Y-56532500D02*
X190950000Y-55700000D01*
X160997500Y-59852500D02*
X161000000Y-59850000D01*
X169730000Y-50020000D02*
X169730000Y-50980000D01*
%TO.N,Net-(D5-K)*%
X150187500Y-43812500D02*
X151137500Y-43812500D01*
X150187500Y-43812500D02*
X150187500Y-42175000D01*
X150187500Y-42175000D02*
X150287500Y-42075000D01*
D63*
X150250000Y-40400000D02*
X150250000Y-42037500D01*
X150250000Y-42037500D02*
X150287500Y-42075000D01*
D58*
%TO.N,+5V*%
X152087500Y-44237500D02*
X153387500Y-45537500D01*
X155700000Y-53050000D02*
X155000000Y-53050000D01*
X156370000Y-51630000D02*
X156370000Y-52380000D01*
X153820000Y-50850000D02*
X154130000Y-51160000D01*
X155890000Y-51150000D02*
X156370000Y-51630000D01*
X154130000Y-51160000D02*
X154140000Y-51150000D01*
X152087500Y-43812500D02*
X152087500Y-44237500D01*
X153387500Y-45537500D02*
X153387500Y-50850000D01*
X154140000Y-51150000D02*
X155000000Y-51150000D01*
X153387500Y-50850000D02*
X153820000Y-50850000D01*
X155000000Y-51150000D02*
X155890000Y-51150000D01*
X156370000Y-52380000D02*
X155700000Y-53050000D01*
%TO.N,Net-(U5-SW)*%
X151120000Y-47625000D02*
X150645000Y-47625000D01*
X151120000Y-47625000D02*
X151120000Y-46105000D01*
X151120000Y-46105000D02*
X151137500Y-46087500D01*
D63*
X150350000Y-47920000D02*
X150350000Y-47930000D01*
X150350000Y-47930000D02*
X150262500Y-48017500D01*
D58*
X150645000Y-47625000D02*
X150350000Y-47920000D01*
D63*
X150262500Y-48017500D02*
X150262500Y-48925000D01*
D58*
%TO.N,Net-(U5-BST)*%
X152087500Y-46907500D02*
X152087500Y-46087500D01*
X152255000Y-47075000D02*
X152087500Y-46907500D01*
X152255000Y-47625000D02*
X152255000Y-47075000D01*
%TO.N,+3.3V*%
X179500000Y-55117500D02*
X178906500Y-55117500D01*
X190400000Y-49650000D02*
X192700000Y-49650000D01*
D59*
X186450000Y-53200000D02*
X186450000Y-53750000D01*
X179500000Y-55117500D02*
X179907500Y-55117500D01*
D58*
X164117500Y-53357500D02*
X164117500Y-53980000D01*
X188257400Y-58050000D02*
X188325000Y-57982400D01*
D60*
X181450000Y-54200000D02*
X181550000Y-54100000D01*
X186250000Y-63050000D02*
X186250000Y-62537500D01*
D58*
X194350000Y-51300000D02*
X194350000Y-56100000D01*
D60*
X186000000Y-63300000D02*
X186250000Y-63050000D01*
D58*
X189500000Y-64450000D02*
X188900000Y-63850000D01*
X159300000Y-51150000D02*
X159350000Y-51100000D01*
X168460000Y-50690000D02*
X168460000Y-50020000D01*
X165750000Y-42250000D02*
X176300000Y-42250000D01*
X166450000Y-51100000D02*
X168050000Y-51100000D01*
X192250000Y-57412500D02*
X191205000Y-57412500D01*
X188900000Y-63850000D02*
X188567500Y-63850000D01*
D62*
X185817500Y-63482500D02*
X185817500Y-63800000D01*
D60*
X187450000Y-62537500D02*
X187450000Y-63050744D01*
X185817500Y-63532500D02*
X185817500Y-63800000D01*
D58*
X189900000Y-57667500D02*
X189517500Y-58050000D01*
X188567500Y-63667500D02*
X188567500Y-63850000D01*
X186435000Y-53200000D02*
X186435000Y-52435000D01*
D59*
X186450000Y-53750000D02*
X186600000Y-53900000D01*
D58*
X165150000Y-42850000D02*
X165750000Y-42250000D01*
X178906500Y-55117500D02*
X178599000Y-54810000D01*
D60*
X187654256Y-63255000D02*
X188145000Y-63255000D01*
D58*
X192700000Y-49650000D02*
X194350000Y-51300000D01*
X161860000Y-51100000D02*
X164117500Y-53357500D01*
X194350000Y-56100000D02*
X194400000Y-56150000D01*
D59*
X186650000Y-53950000D02*
X186650000Y-54100000D01*
D58*
X188325000Y-57982400D02*
X188537500Y-57982400D01*
X181650000Y-53450000D02*
X181700000Y-53500000D01*
X193037500Y-57412500D02*
X192250000Y-57412500D01*
X166450000Y-51100000D02*
X165150000Y-51100000D01*
D61*
X181700000Y-53900000D02*
X181700000Y-53500000D01*
D58*
X161860000Y-51100000D02*
X165600000Y-51100000D01*
D59*
X186600000Y-53900000D02*
X186650000Y-53950000D01*
D58*
X175700000Y-43652500D02*
X175700000Y-42850000D01*
X185817500Y-63800000D02*
X185817500Y-64195000D01*
X165600000Y-51100000D02*
X164250000Y-51100000D01*
X181650000Y-52300000D02*
X181650000Y-53450000D01*
X184812500Y-65912500D02*
X184812500Y-65200000D01*
X165150000Y-51100000D02*
X165150000Y-42850000D01*
D59*
X181550000Y-54100000D02*
X181700000Y-53950000D01*
D58*
X194350000Y-56100000D02*
X193037500Y-57412500D01*
D59*
X180234600Y-55444600D02*
X180762500Y-55444600D01*
D58*
X175700000Y-42850000D02*
X176300000Y-42250000D01*
X189517500Y-58050000D02*
X188257400Y-58050000D01*
X165600000Y-51100000D02*
X166450000Y-51100000D01*
X157700000Y-51150000D02*
X159300000Y-51150000D01*
D60*
X187450000Y-63050744D02*
X187654256Y-63255000D01*
D58*
X188100000Y-44102500D02*
X188100000Y-42300000D01*
D60*
X188150000Y-63250000D02*
X188250000Y-63350000D01*
D58*
X185090000Y-66190000D02*
X184812500Y-65912500D01*
D59*
X181700000Y-53950000D02*
X181700000Y-53900000D01*
D60*
X186650000Y-54100000D02*
X186650000Y-54762500D01*
D58*
X185090000Y-66330000D02*
X185090000Y-66190000D01*
X194400000Y-63100000D02*
X194000000Y-63500000D01*
X191205000Y-57412500D02*
X190950000Y-57667500D01*
D60*
X188145000Y-63255000D02*
X188150000Y-63250000D01*
D58*
X164250000Y-51100000D02*
X164800000Y-51100000D01*
X168050000Y-51100000D02*
X168460000Y-50690000D01*
X188100000Y-42300000D02*
X188050000Y-42250000D01*
X189500000Y-64750000D02*
X189500000Y-64450000D01*
X190950000Y-57667500D02*
X189900000Y-57667500D01*
X194400000Y-56150000D02*
X194400000Y-63100000D01*
D60*
X181450000Y-54762500D02*
X181450000Y-54200000D01*
D58*
X188350000Y-63450000D02*
X188567500Y-63667500D01*
X164117500Y-53980000D02*
X164117500Y-55262500D01*
X186435000Y-52435000D02*
X186400000Y-52400000D01*
X185817500Y-64195000D02*
X184812500Y-65200000D01*
X164117500Y-55262500D02*
X164050000Y-55330000D01*
D62*
X188250000Y-63350000D02*
X188350000Y-63450000D01*
D59*
X179907500Y-55117500D02*
X180234600Y-55444600D01*
D62*
X186000000Y-63300000D02*
X185817500Y-63482500D01*
D58*
X159350000Y-51100000D02*
X161860000Y-51100000D01*
%TO.N,ANALOGREF*%
X164050000Y-57080000D02*
X164050000Y-58280000D01*
X166925000Y-68450000D02*
X165907500Y-68450000D01*
X160062500Y-78837500D02*
X159625000Y-79275000D01*
X163070000Y-60987500D02*
X160230000Y-60987500D01*
X166925000Y-68450000D02*
X167625000Y-69150000D01*
X167050000Y-74250000D02*
X158382500Y-74250000D01*
X177600000Y-60590000D02*
X178250000Y-60590000D01*
X178260000Y-60600000D02*
X179370000Y-60600000D01*
D61*
X159555000Y-79345000D02*
X158492500Y-79345000D01*
D58*
X171550000Y-67985000D02*
X171565000Y-68000000D01*
X157762500Y-73630000D02*
X157762500Y-73320000D01*
D61*
X159655000Y-61145000D02*
X158642500Y-61145000D01*
D58*
X165907500Y-68450000D02*
X165872500Y-68415000D01*
X179370000Y-60544800D02*
X179397200Y-60517600D01*
X175750000Y-65500000D02*
X175750000Y-62440000D01*
X171565000Y-68215000D02*
X171795000Y-68445000D01*
X179397200Y-60517600D02*
X180166128Y-60517600D01*
X180100000Y-60451472D02*
X180166128Y-60517600D01*
X159812500Y-60987500D02*
X159675000Y-61125000D01*
X167625000Y-69150000D02*
X167625000Y-74075000D01*
X167625000Y-73675000D02*
X167050000Y-74250000D01*
X171565000Y-68000000D02*
X171565000Y-68215000D01*
D61*
X159675000Y-61125000D02*
X159655000Y-61145000D01*
D58*
X175825000Y-65575000D02*
X175750000Y-65500000D01*
X180166128Y-60517600D02*
X181042600Y-60517600D01*
X158382500Y-74250000D02*
X157762500Y-73630000D01*
X164050000Y-58280000D02*
X164250000Y-58480000D01*
X181042600Y-60382400D02*
X180100000Y-60382400D01*
X160230000Y-78837500D02*
X160062500Y-78837500D01*
X164217500Y-59530000D02*
X164217500Y-59840000D01*
X164250000Y-58480000D02*
X164250000Y-59497500D01*
X178250000Y-60590000D02*
X178260000Y-60600000D01*
D61*
X159625000Y-79275000D02*
X159555000Y-79345000D01*
D58*
X164217500Y-61117500D02*
X164225000Y-61125000D01*
X157762500Y-73320000D02*
X157762500Y-72117500D01*
X160230000Y-60987500D02*
X159812500Y-60987500D01*
X164217500Y-59840000D02*
X163070000Y-60987500D01*
X171795000Y-68445000D02*
X171795000Y-69875000D01*
X179370000Y-60600000D02*
X179370000Y-60544800D01*
X181042600Y-60517600D02*
X181042600Y-60382400D01*
X175750000Y-62440000D02*
X177600000Y-60590000D01*
X171550000Y-66400000D02*
X171550000Y-67985000D01*
X164250000Y-59497500D02*
X164217500Y-59530000D01*
X162850000Y-78850000D02*
X160242500Y-78850000D01*
X157762500Y-72117500D02*
X157855000Y-72025000D01*
X164217500Y-59530000D02*
X164217500Y-61117500D01*
X167625000Y-74075000D02*
X162850000Y-78850000D01*
X180100000Y-60382400D02*
X180100000Y-60451472D01*
X160242500Y-78850000D02*
X160230000Y-78837500D01*
%TO.N,Net-(U1-VFBSMPS)*%
X191825000Y-61025000D02*
X191300000Y-60500000D01*
X191300000Y-60500000D02*
X190700000Y-60500000D01*
D60*
X189350000Y-59500000D02*
X189300000Y-59450000D01*
D58*
X192550000Y-61025000D02*
X191825000Y-61025000D01*
X189850000Y-60000000D02*
X190350000Y-60500000D01*
X190350000Y-60500000D02*
X190700000Y-60500000D01*
D61*
X189650000Y-59800000D02*
X189850000Y-60000000D01*
D60*
X189300000Y-59450000D02*
X188537500Y-59450000D01*
D62*
X189350000Y-59500000D02*
X189650000Y-59800000D01*
D64*
%TO.N,Net-(C27-Pad1)*%
X173317500Y-76700000D02*
X173317500Y-76715000D01*
X173317500Y-76715000D02*
X174450000Y-77847500D01*
X173365000Y-76747500D02*
X173317500Y-76700000D01*
X173365000Y-77750000D02*
X173365000Y-76747500D01*
D61*
%TO.N,ELECTRODE_ADC2*%
X173065000Y-74825000D02*
X171795000Y-74825000D01*
X173065000Y-75875154D02*
X173065000Y-74825000D01*
D60*
X171795000Y-74825000D02*
X171795000Y-74155000D01*
D61*
X172740154Y-76200000D02*
X173065000Y-75875154D01*
X172182500Y-76417500D02*
X172400000Y-76200000D01*
X172400000Y-76200000D02*
X172740154Y-76200000D01*
D60*
X178000000Y-59050000D02*
X180762500Y-59050000D01*
X171795000Y-74155000D02*
X174975000Y-70975000D01*
X174975000Y-62075000D02*
X178000000Y-59050000D01*
D61*
X172182500Y-76700000D02*
X172182500Y-76417500D01*
D60*
X174975000Y-70975000D02*
X174975000Y-62075000D01*
D64*
%TO.N,Net-(U8A-+)*%
X174450000Y-76652500D02*
X175470000Y-76652500D01*
D61*
X174450000Y-74940000D02*
X174335000Y-74825000D01*
D64*
X174450000Y-76652500D02*
X174450000Y-76050000D01*
X174335000Y-75935000D02*
X174335000Y-74825000D01*
X174450000Y-76050000D02*
X174335000Y-75935000D01*
X175470000Y-76652500D02*
X175500000Y-76682500D01*
%TO.N,Net-(C29-Pad2)*%
X175500000Y-77817500D02*
X176550000Y-77817500D01*
%TO.N,ELECTRODE_ADC1*%
X174300000Y-68200000D02*
X174300000Y-69840000D01*
X174335000Y-69875000D02*
X173065000Y-69875000D01*
D60*
X177000000Y-58650000D02*
X180762500Y-58650000D01*
X173700000Y-68050000D02*
X173700000Y-61950000D01*
D61*
X174350000Y-69890000D02*
X174335000Y-69875000D01*
D60*
X173065000Y-68685000D02*
X173700000Y-68050000D01*
X173700000Y-61950000D02*
X177000000Y-58650000D01*
X173065000Y-68885000D02*
X173065000Y-68685000D01*
D64*
X169850000Y-68700000D02*
X170595200Y-68700000D01*
X174300000Y-69840000D02*
X174335000Y-69875000D01*
D59*
X173065000Y-68885000D02*
X173065000Y-69875000D01*
D61*
X174335000Y-68235000D02*
X174300000Y-68200000D01*
D64*
X170595200Y-68700000D02*
X170700000Y-68595200D01*
D61*
X170000000Y-68700000D02*
X169850000Y-68700000D01*
D62*
X173065000Y-69875000D02*
X173065000Y-69435000D01*
D61*
%TO.N,Net-(C31-Pad1)*%
X168800000Y-69250000D02*
X168800000Y-68697500D01*
X169192500Y-69642500D02*
X168800000Y-69250000D01*
D62*
X168800000Y-68697500D02*
X168800000Y-68615000D01*
D61*
X169192500Y-69810000D02*
X169192500Y-69642500D01*
D62*
X168800000Y-68615000D02*
X169850000Y-67565000D01*
D64*
%TO.N,Net-(U8B-+)*%
X175600000Y-71375000D02*
X175600000Y-69880000D01*
X171700000Y-71450000D02*
X171315000Y-71450000D01*
X175600000Y-69880000D02*
X175605000Y-69875000D01*
X170357500Y-70860000D02*
X170357500Y-69840000D01*
X171315000Y-71450000D02*
X170725000Y-70860000D01*
X170725000Y-70860000D02*
X170357500Y-70860000D01*
D65*
X170387500Y-69897500D02*
X170400000Y-69885000D01*
D61*
X170387500Y-70830000D02*
X170357500Y-70860000D01*
D64*
X171775000Y-71375000D02*
X171700000Y-71450000D01*
X170357500Y-69840000D02*
X170387500Y-69810000D01*
D61*
%TO.N,Net-(C32-Pad2)*%
X169222500Y-70860000D02*
X169222500Y-71910000D01*
D60*
%TO.N,RESET*%
X175700000Y-44847500D02*
X173997500Y-44847500D01*
X175700000Y-44847500D02*
X175700000Y-45100000D01*
X179754000Y-58250000D02*
X180762500Y-58250000D01*
X173997500Y-44847500D02*
X173150000Y-44000000D01*
X175700000Y-45100000D02*
X175300000Y-45500000D01*
X175300000Y-45500000D02*
X174250000Y-45500000D01*
X179600000Y-58096000D02*
X179754000Y-58250000D01*
D58*
X167350000Y-44000000D02*
X173150000Y-44000000D01*
D60*
%TO.N,Net-(U1-PC14)*%
X179050000Y-56250000D02*
X177917500Y-55117500D01*
X175150000Y-54350000D02*
X175150000Y-54900000D01*
X177917500Y-55117500D02*
X177650000Y-55117500D01*
X176582500Y-54050000D02*
X175450000Y-54050000D01*
X177650000Y-55117500D02*
X176582500Y-54050000D01*
X180762500Y-56250000D02*
X179050000Y-56250000D01*
X175450000Y-54050000D02*
X175150000Y-54350000D01*
%TO.N,Net-(U1-PC15)*%
X176250000Y-56300000D02*
X177632500Y-56300000D01*
X177650000Y-56282500D02*
X178017500Y-56650000D01*
X178017500Y-56650000D02*
X180762500Y-56650000D01*
X177632500Y-56300000D02*
X177650000Y-56282500D01*
%TO.N,Net-(U1-RF1)*%
X186650000Y-62537500D02*
X186650000Y-63100000D01*
D64*
X186750000Y-65742500D02*
X186750000Y-64825000D01*
X186650000Y-63258326D02*
X186649628Y-63257954D01*
D60*
X186650000Y-63100000D02*
X186650000Y-63200000D01*
D64*
X186650000Y-64725000D02*
X186650000Y-63258326D01*
X186750000Y-64825000D02*
X186650000Y-64725000D01*
%TO.N,Net-(FL1-IN)*%
X186750000Y-70050000D02*
X190247000Y-73547000D01*
X186750000Y-66557500D02*
X186750000Y-70050000D01*
X190247000Y-73547000D02*
X194268000Y-73547000D01*
%TO.N,Net-(FL1-OUT)*%
X195493000Y-73547000D02*
X196117000Y-73547000D01*
X196117000Y-73547000D02*
X196790000Y-74220000D01*
X196790000Y-74220000D02*
X196790000Y-77010000D01*
%TO.N,Net-(C39-Pad2)*%
X196820000Y-79265000D02*
X196790000Y-79295000D01*
X196785000Y-78610000D02*
X196785000Y-79290000D01*
X196790000Y-78605000D02*
X196785000Y-78610000D01*
X196790000Y-77970000D02*
X196790000Y-78605000D01*
X196785000Y-79290000D02*
X196790000Y-79295000D01*
D60*
%TO.N,BOOT*%
X189202500Y-45297500D02*
X190500000Y-44000000D01*
X179893597Y-57050000D02*
X180762500Y-57050000D01*
X179600000Y-57343597D02*
X179893597Y-57050000D01*
D61*
X188100000Y-45297500D02*
X188100000Y-46150000D01*
X188100000Y-46150000D02*
X188150000Y-46200000D01*
D60*
X188100000Y-45297500D02*
X189202500Y-45297500D01*
D58*
X190500000Y-44000000D02*
X196300000Y-44000000D01*
%TO.N,Earth*%
X177530000Y-44530000D02*
X177530000Y-40330000D01*
X186170000Y-44530000D02*
X186170000Y-40330000D01*
D60*
%TO.N,Net-(D1-A)*%
X172900000Y-55400000D02*
X171725000Y-55400000D01*
X178300000Y-63700000D02*
X177000000Y-62400000D01*
X172950000Y-55450000D02*
X172900000Y-55400000D01*
X171725000Y-55400000D02*
X171575000Y-55250000D01*
X179202500Y-63700000D02*
X178300000Y-63700000D01*
%TO.N,Net-(D2-A)*%
X178520141Y-64795000D02*
X176865407Y-63140266D01*
X179212500Y-64795000D02*
X178520141Y-64795000D01*
X171775000Y-57650000D02*
X171575000Y-57450000D01*
X172900000Y-57650000D02*
X171775000Y-57650000D01*
%TO.N,Net-(D3-A)*%
X171842500Y-59750000D02*
X171597500Y-59505000D01*
X172900000Y-59750000D02*
X171842500Y-59750000D01*
X178791665Y-65850000D02*
X176840985Y-63899320D01*
X179212500Y-65850000D02*
X178791665Y-65850000D01*
X176840985Y-63899320D02*
X176840985Y-63859015D01*
%TO.N,Net-(D4-A)*%
X179212500Y-66950000D02*
X179059447Y-66950000D01*
X179059447Y-66950000D02*
X176756400Y-64646953D01*
X171675000Y-61850000D02*
X171575000Y-61750000D01*
X172900000Y-61850000D02*
X171675000Y-61850000D01*
D63*
%TO.N,BATT*%
X153600000Y-40400000D02*
X152000000Y-40400000D01*
X156700000Y-43500000D02*
X153600000Y-40400000D01*
D58*
X159500000Y-42750000D02*
X162402500Y-42750000D01*
D63*
X158750000Y-43500000D02*
X156700000Y-43500000D01*
D58*
X158750000Y-43500000D02*
X159500000Y-42750000D01*
D61*
%TO.N,RLDOUT*%
X140430000Y-65170000D02*
X138100000Y-67500000D01*
X149897500Y-70125000D02*
X138775000Y-70125000D01*
X138775000Y-70125000D02*
X138100000Y-70800000D01*
X138100000Y-70800000D02*
X138100000Y-80640000D01*
X138100000Y-67500000D02*
X138100000Y-70800000D01*
X138100000Y-80640000D02*
X140430000Y-82970000D01*
X140430000Y-82970000D02*
X140430000Y-81780000D01*
%TO.N,Net-(U2-+)*%
X152055000Y-61795000D02*
X154417500Y-61795000D01*
X149830000Y-64020000D02*
X152055000Y-61795000D01*
X149830000Y-65170000D02*
X149830000Y-64020000D01*
%TO.N,Net-(U2--)*%
X148570000Y-57770000D02*
X151945000Y-61145000D01*
X151945000Y-61145000D02*
X154417500Y-61145000D01*
X142430000Y-57770000D02*
X148570000Y-57770000D01*
D60*
%TO.N,SWO*%
X183450000Y-52300000D02*
X183450000Y-54762500D01*
X179100000Y-47950000D02*
X178950000Y-47950000D01*
X171800000Y-47950000D02*
X171000000Y-48750000D01*
X178950000Y-47950000D02*
X171800000Y-47950000D01*
X179100000Y-47950000D02*
X183450000Y-52300000D01*
%TO.N,SWCLK*%
X186250000Y-54249256D02*
X186250000Y-54762500D01*
X184913376Y-53765000D02*
X185774770Y-53765000D01*
X185774770Y-53765000D02*
X186250000Y-54240230D01*
X184400000Y-51650000D02*
X184400000Y-53251624D01*
X185900744Y-53900000D02*
X186250000Y-54249256D01*
X184400000Y-53251624D02*
X184913376Y-53765000D01*
X180170000Y-47420000D02*
X184400000Y-51650000D01*
X186250000Y-54240230D02*
X186250000Y-54762500D01*
X171060000Y-47420000D02*
X180170000Y-47420000D01*
X169730000Y-48750000D02*
X171060000Y-47420000D01*
%TO.N,SWDIO*%
X170216600Y-46993400D02*
X170216600Y-46983400D01*
X170216600Y-46983400D02*
X170360000Y-46840000D01*
X170360000Y-46840000D02*
X181640000Y-46840000D01*
X168460000Y-48750000D02*
X170216600Y-46993400D01*
X181640000Y-46840000D02*
X187057500Y-52257500D01*
X187057500Y-52257500D02*
X187057500Y-53544124D01*
X187050000Y-53551624D02*
X187050000Y-54762500D01*
X187057500Y-53544124D02*
X187050000Y-53551624D01*
D59*
X168500000Y-48750000D02*
X168460000Y-48750000D01*
%TO.N,Net-(J5-CC2)*%
X180950000Y-41300000D02*
X180100000Y-42150000D01*
X180100000Y-42150000D02*
X180100000Y-45130000D01*
X183100000Y-41100000D02*
X182900000Y-41300000D01*
X182900000Y-41300000D02*
X180950000Y-41300000D01*
%TO.N,Net-(J5-CC1)*%
X183100000Y-43350000D02*
X183100000Y-45130000D01*
X184250000Y-42200000D02*
X183100000Y-43350000D01*
X184250000Y-41100000D02*
X184250000Y-42200000D01*
D65*
%TO.N,/USB+*%
X182075000Y-45155000D02*
X182075000Y-45450000D01*
X182100000Y-45130000D02*
X182075000Y-45155000D01*
D59*
X181100000Y-45130000D02*
X181100000Y-45900000D01*
D60*
X186000000Y-47400000D02*
X187450000Y-48850000D01*
X187450000Y-48850000D02*
X187450000Y-54762500D01*
D59*
X181900000Y-46050000D02*
X182100000Y-45850000D01*
X181100000Y-45900000D02*
X181250000Y-46050000D01*
D60*
X183250000Y-47400000D02*
X186000000Y-47400000D01*
X181900000Y-46050000D02*
X183250000Y-47400000D01*
D59*
X181250000Y-46050000D02*
X181900000Y-46050000D01*
X182100000Y-45850000D02*
X182100000Y-45130000D01*
%TO.N,/USB-*%
X182600000Y-44400000D02*
X182600000Y-45130000D01*
D65*
X181625000Y-45155000D02*
X181625000Y-45450000D01*
D59*
X181600000Y-45130000D02*
X181600000Y-44300000D01*
D60*
X182600000Y-45130000D02*
X182600000Y-45953200D01*
X183596800Y-46950000D02*
X186300000Y-46950000D01*
D65*
X181600000Y-45130000D02*
X181625000Y-45155000D01*
D59*
X181750000Y-44150000D02*
X182350000Y-44150000D01*
X181600000Y-44300000D02*
X181750000Y-44150000D01*
D60*
X182600000Y-45953200D02*
X183596800Y-46950000D01*
D59*
X182350000Y-44150000D02*
X182600000Y-44400000D01*
D60*
X186300000Y-46950000D02*
X187850000Y-48500000D01*
X187850000Y-48500000D02*
X187850000Y-54762500D01*
D62*
%TO.N,Net-(U1-VLXSMPS)*%
X189850000Y-59000000D02*
X190027500Y-59000000D01*
D60*
X189100000Y-58650000D02*
X189350000Y-58900000D01*
D61*
X189350000Y-58900000D02*
X189600000Y-58900000D01*
X189600000Y-58900000D02*
X189700000Y-59000000D01*
D60*
X188537500Y-58650000D02*
X189100000Y-58650000D01*
D61*
X189700000Y-59000000D02*
X190027500Y-59000000D01*
D58*
%TO.N,Net-(L3-Pad1)*%
X192275000Y-59000000D02*
X192550000Y-59275000D01*
X191172500Y-59000000D02*
X192275000Y-59000000D01*
D62*
%TO.N,Net-(R1-Pad2)*%
X158642500Y-60242500D02*
X158642500Y-60495000D01*
X157467500Y-59067500D02*
X158642500Y-60242500D01*
X157095000Y-60495000D02*
X158642500Y-60495000D01*
X155930000Y-59330000D02*
X157095000Y-60495000D01*
X155930000Y-59070000D02*
X155930000Y-59330000D01*
X157130000Y-59067500D02*
X157467500Y-59067500D01*
%TO.N,Net-(R1-Pad1)*%
X154700000Y-59105000D02*
X154735000Y-59070000D01*
X154700000Y-60212500D02*
X154700000Y-59105000D01*
X154417500Y-60495000D02*
X154700000Y-60212500D01*
X154735000Y-58017500D02*
X154782500Y-57970000D01*
X154735000Y-59070000D02*
X154735000Y-58017500D01*
%TO.N,RLDIN1*%
X155977500Y-57970000D02*
X156600000Y-57970000D01*
X157032500Y-57970000D02*
X157130000Y-57872500D01*
X153200000Y-57400000D02*
X153000000Y-57600000D01*
X156600000Y-57970000D02*
X157032500Y-57970000D01*
X153675000Y-56925000D02*
X153200000Y-57400000D01*
X155975000Y-56925000D02*
X153675000Y-56925000D01*
X153000000Y-62800000D02*
X153000000Y-64342500D01*
X153000000Y-64342500D02*
X153830000Y-65172500D01*
X156600000Y-57970000D02*
X156600000Y-57550000D01*
X153000000Y-57600000D02*
X153000000Y-60400000D01*
X156600000Y-57550000D02*
X155975000Y-56925000D01*
D61*
%TO.N,Net-(U4A-+)*%
X164677500Y-68415000D02*
X164677500Y-69512500D01*
X164675000Y-69515000D02*
X162835000Y-69515000D01*
X162835000Y-69515000D02*
X162805000Y-69485000D01*
X164677500Y-69512500D02*
X164675000Y-69515000D01*
%TO.N,RLDIN*%
X155927500Y-68872500D02*
X155975000Y-68920000D01*
X153350000Y-70475000D02*
X153830000Y-70955000D01*
X155975000Y-68920000D02*
X156120000Y-68920000D01*
X153830000Y-70955000D02*
X153830000Y-74372500D01*
X156685000Y-69485000D02*
X157855000Y-69485000D01*
X153622500Y-68872500D02*
X154780000Y-68872500D01*
X153350000Y-68600000D02*
X153622500Y-68872500D01*
X153830000Y-68120000D02*
X153350000Y-68600000D01*
X153350000Y-68600000D02*
X153350000Y-70475000D01*
X153830000Y-66367500D02*
X153830000Y-68120000D01*
X156120000Y-68920000D02*
X156685000Y-69485000D01*
X154780000Y-68872500D02*
X155927500Y-68872500D01*
D62*
%TO.N,Net-(R11-Pad1)*%
X154267500Y-78695000D02*
X155105000Y-78695000D01*
X155477500Y-77280000D02*
X155477500Y-76285000D01*
X155477500Y-78322500D02*
X155477500Y-77280000D01*
X155105000Y-78695000D02*
X155477500Y-78322500D01*
X155477500Y-76285000D02*
X155532500Y-76230000D01*
%TO.N,RLDIN2*%
X156727500Y-76230000D02*
X156065000Y-75567500D01*
X156727500Y-76230000D02*
X157722500Y-76230000D01*
X157722500Y-76230000D02*
X157830000Y-76122500D01*
X156065000Y-75567500D02*
X153830000Y-75567500D01*
%TO.N,Net-(R12-Pad2)*%
X157800000Y-78002500D02*
X157800000Y-77347500D01*
X156672500Y-77280000D02*
X156672500Y-77872500D01*
X157500000Y-78700000D02*
X157505000Y-78695000D01*
X157505000Y-78695000D02*
X158492500Y-78695000D01*
X157800000Y-77347500D02*
X157830000Y-77317500D01*
X158492500Y-78695000D02*
X157800000Y-78002500D01*
X156672500Y-77872500D02*
X157500000Y-78700000D01*
D64*
%TO.N,Net-(R16-Pad2)*%
X158492500Y-79995000D02*
X169925000Y-79995000D01*
X169925000Y-79995000D02*
X172170000Y-77750000D01*
D61*
X158492500Y-79995000D02*
X158506400Y-79981100D01*
D60*
%TO.N,Net-(U1-PA3)*%
X181450000Y-63200000D02*
X181450000Y-62537500D01*
X180397500Y-63700000D02*
X180950000Y-63700000D01*
X180950000Y-63700000D02*
X181450000Y-63200000D01*
D61*
%TO.N,Net-(R20-Pad2)*%
X163522500Y-61795000D02*
X168800000Y-67072500D01*
X168800000Y-67072500D02*
X168800000Y-67502500D01*
X158642500Y-61795000D02*
X163522500Y-61795000D01*
D60*
%TO.N,Net-(U1-PA4)*%
X180407500Y-64795000D02*
X181850000Y-63352500D01*
X181850000Y-63352500D02*
X181850000Y-62537500D01*
%TO.N,Net-(U1-PA5)*%
X181350000Y-64400000D02*
X182250000Y-63500000D01*
X181350000Y-64907500D02*
X181350000Y-64400000D01*
X182250000Y-63500000D02*
X182250000Y-62537500D01*
X180407500Y-65850000D02*
X181350000Y-64907500D01*
%TO.N,Net-(U1-PA6)*%
X181706600Y-64858511D02*
X181706600Y-65650900D01*
X182650000Y-63915111D02*
X181706600Y-64858511D01*
X181706600Y-65650900D02*
X180407500Y-66950000D01*
X182650000Y-62537500D02*
X182650000Y-63915111D01*
%TO.N,Net-(U1-OSC_OUT)*%
X191700000Y-65950000D02*
X191255000Y-65505000D01*
X190350000Y-64950000D02*
X190350000Y-64450000D01*
X190905000Y-65505000D02*
X190350000Y-64950000D01*
X191255000Y-65505000D02*
X190905000Y-65505000D01*
X190350000Y-64450000D02*
X188437500Y-62537500D01*
X188437500Y-62537500D02*
X187850000Y-62537500D01*
%TO.N,Net-(U1-OSC_IN)*%
X193100000Y-64100000D02*
X193100000Y-64850000D01*
X188537500Y-61850000D02*
X188537500Y-62037500D01*
X188537500Y-62037500D02*
X189950000Y-63450000D01*
X189950000Y-63450000D02*
X192450000Y-63450000D01*
X192450000Y-63450000D02*
X193100000Y-64100000D01*
D58*
%TO.N,VREF*%
X160127400Y-62452400D02*
X158642500Y-62452400D01*
X159547600Y-80652400D02*
X158492500Y-80652400D01*
X162805000Y-72025000D02*
X164175000Y-72025000D01*
X159900000Y-80625000D02*
X159575000Y-80625000D01*
X162805000Y-72025000D02*
X161625000Y-72025000D01*
X161625000Y-72025000D02*
X160975000Y-71375000D01*
X160115000Y-68215000D02*
X157855000Y-68215000D01*
X160975000Y-69075000D02*
X160115000Y-68215000D01*
X164425000Y-72275000D02*
X164425000Y-72850000D01*
X160975000Y-71375000D02*
X160975000Y-69075000D01*
X162805000Y-70755000D02*
X162805000Y-72025000D01*
X160150000Y-62475000D02*
X160127400Y-62452400D01*
X159575000Y-80625000D02*
X159547600Y-80652400D01*
X164175000Y-72025000D02*
X164325000Y-72175000D01*
X164325000Y-72175000D02*
X164425000Y-72275000D01*
D64*
%TO.N,Net-(U7--)*%
X148070000Y-75570000D02*
X151845000Y-79345000D01*
X151845000Y-79345000D02*
X154267500Y-79345000D01*
X142430000Y-75570000D02*
X148070000Y-75570000D01*
%TO.N,Net-(U7-+)*%
X149830000Y-82120000D02*
X151955000Y-79995000D01*
X151955000Y-79995000D02*
X154267500Y-79995000D01*
D58*
X149830000Y-82970000D02*
X149830000Y-82070000D01*
D64*
X149830000Y-82970000D02*
X149830000Y-82120000D01*
%TD*%
%TA.AperFunction,Conductor*%
%TO.N,+5V*%
G36*
X152722408Y-48309685D02*
G01*
X152768163Y-48362489D01*
X152779367Y-48414629D01*
X152769999Y-50259999D01*
X152770000Y-50259998D01*
X152770000Y-50260000D01*
X153763819Y-50251126D01*
X153831029Y-50270211D01*
X153877254Y-50322604D01*
X153888919Y-50376183D01*
X153881060Y-51293728D01*
X153860802Y-51360596D01*
X153807608Y-51405897D01*
X153756227Y-51416663D01*
X152770000Y-51409999D01*
X152770000Y-51410000D01*
X152760855Y-52726861D01*
X152740705Y-52793762D01*
X152687585Y-52839149D01*
X152636858Y-52850000D01*
X151424000Y-52850000D01*
X151356961Y-52830315D01*
X151311206Y-52777511D01*
X151300000Y-52726000D01*
X151300000Y-48414000D01*
X151319685Y-48346961D01*
X151372489Y-48301206D01*
X151424000Y-48290000D01*
X152655369Y-48290000D01*
X152722408Y-48309685D01*
G37*
%TD.AperFunction*%
%TD*%
%TA.AperFunction,Conductor*%
%TO.N,GND*%
G36*
X147942418Y-38519685D02*
G01*
X147988173Y-38572489D01*
X147999377Y-38624620D01*
X147950617Y-48376620D01*
X147930598Y-48443560D01*
X147877566Y-48489051D01*
X147826619Y-48500000D01*
X144474621Y-48500000D01*
X144407582Y-48480315D01*
X144361827Y-48427511D01*
X144350623Y-48375380D01*
X144399383Y-38623380D01*
X144419402Y-38556440D01*
X144472434Y-38510949D01*
X144523381Y-38500000D01*
X147875379Y-38500000D01*
X147942418Y-38519685D01*
G37*
%TD.AperFunction*%
%TD*%
M02*
